<svg width="18" height="12" viewBox="0 0 18 12" fill="none" xmlns="http://www.w3.org/2000/svg">
<path d="M14.6 9H16.2C16.68 9 17 8.68 17 8.2V5.8C17 5.08 16.44 4.44 15.8 4.28C14.36 3.88 12.2 3.4 12.2 3.4C12.2 3.4 11.16 2.28 10.44 1.56C10.04 1.24 9.56 1 9 1H3.4C2.92 1 2.52 1.32 2.28 1.72L1.16 4.04C1.05406 4.34898 1 4.67336 1 5V8.2C1 8.68 1.32 9 1.8 9H3.4" stroke="#2D64BC" stroke-width="2" stroke-linecap="round" stroke-linejoin="round"/>
<path d="M4.9999 10.6C5.88356 10.6 6.5999 9.88365 6.5999 8.99999C6.5999 8.11634 5.88356 7.39999 4.9999 7.39999C4.11625 7.39999 3.3999 8.11634 3.3999 8.99999C3.3999 9.88365 4.11625 10.6 4.9999 10.6Z" stroke="#2D64BC" stroke-width="2" stroke-linecap="round" stroke-linejoin="round"/>
<path d="M6.6001 9H11.4001" stroke="#2D64BC" stroke-width="2" stroke-linecap="round" stroke-linejoin="round"/>
<path d="M12.9999 10.6C13.8836 10.6 14.5999 9.88365 14.5999 8.99999C14.5999 8.11634 13.8836 7.39999 12.9999 7.39999C12.1162 7.39999 11.3999 8.11634 11.3999 8.99999C11.3999 9.88365 12.1162 10.6 12.9999 10.6Z" stroke="#2D64BC" stroke-width="2" stroke-linecap="round" stroke-linejoin="round"/>
</svg>
