<svg width="10" height="10" viewBox="0 0 10 10" fill="none" xmlns="http://www.w3.org/2000/svg">
<path d="M7.41935 2.72337V2.6087C7.41935 1.81413 6.98266 1.11141 6.18911 0.630435C5.51895 0.223913 4.6371 0 3.70968 0C2.78226 0 1.9004 0.223913 1.23024 0.630435C0.436693 1.11141 0 1.81413 0 2.6087V4.78261C0 5.57717 0.436693 6.27989 1.23024 6.76087C1.66148 7.01238 2.11558 7.18563 2.58065 7.27609V7.3913C2.58065 8.18587 3.01734 8.88859 3.81089 9.36956C4.48105 9.77609 5.3629 10 6.29032 10C7.21774 10 8.0996 9.77609 8.76976 9.36956C9.56331 8.88859 10 8.18587 10 7.3913V5.21739C10 4.01413 8.98024 3.04783 7.41935 2.72337ZM9.03226 5.21739C9.03226 5.63859 8.15444 6.43913 6.53992 6.51522C7.11008 6.05435 7.41935 5.45109 7.41935 4.78261V4.04565C8.4629 4.30163 9.03226 4.86304 9.03226 5.21739ZM4.16815 6.06685C4.02177 6.07989 3.86895 6.08696 3.70968 6.08696C3.50484 6.08696 3.31089 6.075 3.12782 6.0538C3.11257 6.0511 3.09723 6.04947 3.08185 6.04891C3.02097 6.0413 2.96089 6.03261 2.90323 6.02283V5.15924C3.17108 5.19803 3.44028 5.21744 3.70968 5.21739C3.97907 5.21744 4.24828 5.19803 4.51613 5.15924V6.02283C4.41573 6.03913 4.31169 6.05326 4.20363 6.06359C4.19355 6.06413 4.17984 6.06522 4.16815 6.06685ZM6.45161 4.40978V4.78261C6.45161 5.04239 6.11774 5.4462 5.48387 5.73587V4.92065C5.72522 4.83536 5.96107 4.72394 6.18911 4.5875C6.28159 4.53134 6.36909 4.4721 6.45161 4.40978ZM3.70968 1.30435C5.48387 1.30435 6.45161 2.16576 6.45161 2.6087C6.45161 3.05163 5.48387 3.91304 3.70968 3.91304C1.93548 3.91304 0.967742 3.05163 0.967742 2.6087C0.967742 2.16576 1.93548 1.30435 3.70968 1.30435ZM0.967742 4.78261V4.40978C1.05054 4.47174 1.13804 4.5308 1.23024 4.58696C1.45829 4.7234 1.69414 4.83481 1.93548 4.92011V5.73533C1.30161 5.4462 0.967742 5.04239 0.967742 4.78261ZM3.54839 7.3913H3.70968C3.85591 7.3913 4.00067 7.38551 4.14395 7.37391C4.26358 7.4308 4.38763 7.48261 4.51613 7.52935V8.34456C3.88226 8.05489 3.54839 7.65109 3.54839 7.3913ZM5.48387 8.63152V7.76848C5.75173 7.80708 6.02093 7.82631 6.29032 7.82609C6.55972 7.82613 6.82892 7.80672 7.09677 7.76793V8.63152C6.56101 8.71707 6.01963 8.71707 5.48387 8.63152ZM8.06452 8.34456V7.52935C8.30586 7.44405 8.54171 7.33264 8.76976 7.1962C8.86223 7.1404 8.94973 7.08134 9.03226 7.01902V7.3913C9.03226 7.65109 8.69839 8.05489 8.06452 8.34456Z" fill="#2D64BC"/>
</svg>
