<svg width="190" height="196" viewBox="0 0 190 196" fill="none" xmlns="http://www.w3.org/2000/svg">
<g filter="url(#filter0_d_15_319)">
<path d="M95 186C145.258 186 186 145.258 186 95C186 44.7421 145.258 4 95 4C44.7421 4 4 44.7421 4 95C4 145.258 44.7421 186 95 186Z" fill="#86A4C6"/>
<mask id="mask0_15_319" style="mask-type:luminance" maskUnits="userSpaceOnUse" x="4" y="4" width="182" height="182">
<path d="M95 186C145.258 186 186 145.258 186 95C186 44.7421 145.258 4 95 4C44.7421 4 4 44.7421 4 95C4 145.258 44.7421 186 95 186Z" fill="white"/>
</mask>
<g mask="url(#mask0_15_319)">
<path d="M97.6539 91.6996C97.6539 91.6996 63.4509 91.6996 40.5305 105.034C40.5305 105.034 29.3712 107.768 24.8466 162.04L50.1816 196H98.8575L106.399 188.709L104.89 143.835L97.6539 91.6996Z" fill="#DDDDDD"/>
<path d="M94.2749 91.6996C94.2749 91.6996 125.396 91.6996 148.317 105.034C148.317 105.034 159.469 107.768 163.993 162.04L138.666 196H95V190.539L93.7311 146.577L94.2749 91.6996Z" fill="#F9F9F9"/>
<path d="M141.044 149.376H111.685V176.279C111.685 176.279 112.772 182.403 121.691 187.317C130.61 192.231 140.826 178.357 140.826 178.357L141.044 149.376Z" fill="#DDDDDD"/>
</g>
<path d="M113.011 93.5149V103.401L109.125 108.577L106.486 102.512L109.705 95.498L111.569 93.2598L113.011 93.5149Z" fill="#666362"/>
<path d="M73.4138 94.0471C73.4138 94.0471 72.6887 102.184 74.6899 103.744C76.6912 105.304 77.8514 103.744 77.8514 103.744L77.1988 98.7351L76.1111 95.0095V93.6024L73.4138 94.0471Z" fill="#666361"/>
<path d="M113.577 68.5517C113.577 68.5517 115.564 70.9576 117.159 71.0888C117.159 71.0888 119.334 69.6307 119.704 65.9853C119.704 65.9853 119.951 60.2403 120.748 57.4334C121.546 54.6265 120.748 47.5545 115.564 48.6189C110.379 49.6834 111.445 55.7638 111.445 55.7638C111.445 55.7638 110.517 64.3522 110.517 64.7313C110.517 65.1105 113.577 68.5517 113.577 68.5517Z" fill="#F8C6A1"/>
<path d="M73.0585 69.3536C73.0585 69.3536 71.2022 72.022 69.4692 71.8908C69.4692 71.8908 67.2939 71.0888 67.0402 66.9477C67.0402 66.9477 66.9459 61.2026 65.8872 58.5342C65.8872 58.5342 65.1622 48.0284 70.9629 49.7417L76.1112 60.7214L73.0585 69.3536Z" fill="#CE906A"/>
<path d="M112.04 80.2459V104.888C112.04 104.888 100.852 133.125 97.3348 137.514L96.0079 139.512L93.8761 135.786L87.1327 116.736L85.987 107.528V99.0267L89.8808 85.8379L103.919 84.6422L112.04 80.2459Z" fill="#E9A679"/>
<path d="M74.777 81.8425L74.2476 100.492C74.2476 100.492 73.8488 104.356 78.5982 113.542C83.3476 122.729 83.7682 124.734 84.2975 126.199C84.8268 127.664 89.1992 136.45 90.2578 137.252C91.3165 138.054 93.1582 142.712 93.035 144.98C93.035 144.98 95.9354 139.599 97.2768 137.514C97.2768 137.514 89.6633 103.153 91.5848 90.9048L74.777 81.8425Z" fill="#CC9169"/>
<path d="M93.4048 97.7436C93.4048 97.7436 80.9911 98.4726 73.8271 84.1173C73.8271 84.1173 70.6947 67.0498 70.6947 59.5841L73.1455 39.5056L77.7136 31.6171L86.8426 29.0362L91.8386 31.6171L97.9729 37.785L101.25 55.5743L96.9723 85.2619L93.4048 97.7436Z" fill="#E9A679"/>
<path d="M93.4048 97.7435C93.4048 97.7435 103.679 99.034 112.381 85.9836C112.381 85.9836 115.375 77.2348 114.947 70.6295L113.809 35.6342L102.824 31.6171H91.8386L90.8379 40.6502L92.832 43.5227C92.832 43.5227 94.1226 96.7447 93.4048 97.7435Z" fill="#F8C6A1"/>
<path d="M112.852 60.5027L115.665 58.4978L116.572 49.6542C116.572 49.6542 120.465 45.5569 119.378 37.4496C119.378 37.4496 117.565 23.6848 111.22 22.0444C111.22 22.0444 106.87 13.3904 97.9874 13.9299C97.9874 13.9299 91.012 13.2008 88.0173 16.3066C88.0173 16.3066 74.2404 15.1183 67.8088 33.1627C67.8088 33.1627 65.3289 41.3793 68.0408 47.7441C68.0408 47.7441 69.6215 50.2375 69.7085 51.8706L70.7092 59.5841L72.957 61.2318L72.6887 49.1147C72.6887 49.1147 74.2259 43.6467 75.9516 42.7281C75.9516 42.7281 78.6708 40.5409 78.5765 39.542C78.5765 39.542 79.8454 38.0839 84.3773 40.8179C84.3773 40.8179 93.1727 47.015 97.8859 46.8327C97.8859 46.8327 105.405 46.9275 108.219 40.1763C108.219 40.1763 112.497 43.4717 113.142 47.2118C113.169 47.359 113.188 47.5074 113.2 47.6566C113.577 51.5717 112.852 60.5027 112.852 60.5027Z" fill="black"/>
<path d="M130.994 143.799H126.281V150.907H130.994V143.799Z" fill="black"/>
<path d="M142.052 148.72H115.767V164.759H142.052V148.72Z" fill="#E6E6E6" stroke="#00A89A" stroke-width="2" stroke-miterlimit="10"/>
<path d="M74.2404 74.6685C74.2404 74.6685 81.1506 81.5582 93.5498 81.0041L94.2749 94.8127C94.2749 94.8127 73.0875 94.5065 74.2404 74.6685Z" fill="#DDDDDD"/>
<path d="M113.048 74.6685C113.048 74.6685 105.949 81.5582 93.5498 81.0041L93.6441 94.7835C93.6441 94.7835 114.215 94.5065 113.048 74.6685Z" fill="#F9F9F9"/>
<path d="M116.811 32.6815C116.811 34.5878 116.249 36.4513 115.195 38.0363C114.142 39.6213 112.645 40.8566 110.894 41.5861C109.142 42.3156 107.215 42.5065 105.355 42.1346C103.496 41.7627 101.788 40.8447 100.447 39.4968C99.1064 38.1489 98.1934 36.4315 97.8235 34.5619C97.4537 32.6922 97.6435 30.7543 98.369 28.9931C99.0946 27.2319 100.323 25.7267 101.9 24.6676C103.476 23.6085 105.329 23.0432 107.225 23.0432C109.767 23.0432 112.206 24.0587 114.003 25.8662C115.801 27.6738 116.811 30.1253 116.811 32.6815Z" fill="#F9F9F9"/>
<path d="M107.53 35.6853C109.18 35.6853 110.517 34.3405 110.517 32.6815C110.517 31.0226 109.18 29.6778 107.53 29.6778C105.88 29.6778 104.542 31.0226 104.542 32.6815C104.542 34.3405 105.88 35.6853 107.53 35.6853Z" fill="#020202"/>
<path d="M105.514 24.1077C105.514 24.1077 112.156 27.024 111.561 32.6815C111.561 32.6815 111.946 38.361 105.514 41.1533C105.514 41.1533 115.919 42.451 116.216 32.6815C116.245 32.6815 115.767 24.0494 105.514 24.1077Z" fill="#B3B3B3"/>
</g>
<defs>
<filter id="filter0_d_15_319" x="0" y="0" width="190" height="200" filterUnits="userSpaceOnUse" color-interpolation-filters="sRGB">
<feFlood flood-opacity="0" result="BackgroundImageFix"/>
<feColorMatrix in="SourceAlpha" type="matrix" values="0 0 0 0 0 0 0 0 0 0 0 0 0 0 0 0 0 0 127 0" result="hardAlpha"/>
<feOffset/>
<feGaussianBlur stdDeviation="2"/>
<feComposite in2="hardAlpha" operator="out"/>
<feColorMatrix type="matrix" values="0 0 0 0 0 0 0 0 0 0 0 0 0 0 0 0 0 0 0.25 0"/>
<feBlend mode="normal" in2="BackgroundImageFix" result="effect1_dropShadow_15_319"/>
<feBlend mode="normal" in="SourceGraphic" in2="effect1_dropShadow_15_319" result="shape"/>
</filter>
</defs>
</svg>
