<svg width="32" height="32" viewBox="0 0 32 32" fill="none" xmlns="http://www.w3.org/2000/svg">
<path d="M2.66663 12V8.00001C2.66663 7.26668 2.92796 6.63912 3.45063 6.11734C3.97329 5.59557 4.60085 5.33423 5.33329 5.33334H26.6666C27.4 5.33334 28.028 5.59468 28.5506 6.11734C29.0733 6.64001 29.3342 7.26757 29.3333 8.00001V16H26.6666V8.00001H5.33329V12H2.66663ZM5.33329 26.6667C4.59996 26.6667 3.9724 26.4058 3.45063 25.884C2.92885 25.3622 2.66751 24.7342 2.66663 24V20H5.33329V24H14.6666V26.6667H5.33329ZM24 30L21.9666 28.2667C20.0111 26.6 18.7497 25.3942 18.1826 24.6493C17.6155 23.9045 17.3324 23.1325 17.3333 22.3333C17.3333 21.3333 17.6888 20.4725 18.4 19.7507C19.1111 19.0289 19.9777 18.6676 21 18.6667C21.5777 18.6667 22.128 18.8 22.6506 19.0667C23.1733 19.3333 23.6231 19.7222 24 20.2333C24.3555 19.7222 24.7946 19.3333 25.3173 19.0667C25.84 18.8 26.4008 18.6667 27 18.6667C28 18.6667 28.8613 19.028 29.584 19.7507C30.3066 20.4733 30.6675 21.3342 30.6666 22.3333C30.6666 23.1333 30.3777 23.9058 29.8 24.6507C29.2222 25.3956 27.9555 26.6009 26 28.2667L24 30ZM24 26.4667L24.9333 25.7C26.1777 24.6333 27 23.8836 27.4 23.4507C27.8 23.0178 28 22.6453 28 22.3333C28 22.0667 27.9 21.8333 27.7 21.6333C27.5 21.4333 27.2666 21.3333 27 21.3333C26.8222 21.3333 26.6608 21.3725 26.516 21.4507C26.3711 21.5289 26.1991 21.6565 26 21.8333L24 23.7333L21.9666 21.8333C21.7666 21.6556 21.5946 21.5276 21.4506 21.4493C21.3066 21.3711 21.1564 21.3325 21 21.3333C20.7111 21.3333 20.4724 21.4333 20.284 21.6333C20.0955 21.8333 20.0008 22.0667 20 22.3333C20 22.6445 20.1946 23.0169 20.584 23.4507C20.9733 23.8845 21.7897 24.6342 23.0333 25.7L24 26.4667ZM9.33329 22.6667C9.06663 22.6667 8.82796 22.6058 8.61729 22.484C8.40663 22.3622 8.24529 22.1787 8.13329 21.9333L5.83329 17.3333H2.66663V14.6667H6.66663C6.91107 14.6667 7.13907 14.7333 7.35063 14.8667C7.56218 15 7.72307 15.1778 7.83329 15.4L9.33329 18.3667L13.4666 10.0667C13.5777 9.84445 13.7444 9.67779 13.9666 9.56668C14.1888 9.45557 14.4222 9.40001 14.6666 9.40001C14.9111 9.40001 15.1444 9.45557 15.3666 9.56668C15.5888 9.67779 15.7555 9.84445 15.8666 10.0667L18.1333 14.6667H22.6666V17.3333H17.3333C17.0666 17.3333 16.828 17.2725 16.6173 17.1507C16.4066 17.0289 16.2453 16.8453 16.1333 16.6L14.6666 13.6667L10.5 21.9333C10.3888 22.1778 10.228 22.3613 10.0173 22.484C9.80663 22.6067 9.57863 22.6676 9.33329 22.6667Z" fill="#2C2B2B"/>
</svg>
