<svg width="281" height="296" viewBox="0 0 281 296" fill="none" xmlns="http://www.w3.org/2000/svg">
<g clip-path="url(#clip0_3_2)">
<path d="M117.115 146.292C118.449 150.742 119.763 155.248 121.144 159.726C122.306 163.521 122.983 167.553 124.85 170.949C129.793 179.953 137.347 184.886 148.092 184.526C158.57 184.175 166.095 179.422 170 169.887C172.667 163.331 174.22 156.32 176.287 149.518C176.592 148.493 176.982 147.488 177.602 145.723L187.727 150.467C183.517 163.644 182.717 177.979 170.734 186.983C166.405 190.084 161.633 192.521 156.579 194.212C153.588 195.275 152.492 196.404 152.531 199.421C152.645 207.959 152.273 216.497 152.626 225.036C153.416 244.134 135.29 265.1 108.142 256.543C89.5961 250.699 76.632 238.09 68.6021 220.492C65.7364 214.043 65.35 206.77 67.5162 200.056C71.6312 186.48 89.8438 182.087 100.703 192.466C107.961 199.421 113.848 207.807 120.154 215.71C124.497 221.146 128.326 227.009 132.737 232.388C134.985 235.13 134.337 236.743 131.937 238.603C129.536 240.462 127.098 242.597 124.316 239.03C118.201 231.155 112.095 223.262 105.923 215.435C102.398 210.957 98.9596 206.403 95.1304 202.2C91.1011 197.779 86.0336 196.783 81.8615 198.994C77.8322 201.119 75.9748 206.043 77.3369 211.868C79.8802 222.787 87.11 230.576 95.4733 237.217C102.484 242.805 110.247 247.037 119.677 247.122C131.194 247.226 140.633 238.925 141.129 227.436C141.538 217.807 141.357 208.149 141.214 198.5C141.214 197.295 140.033 195.284 139.052 195.037C120.792 190.512 113.048 177.221 109.466 160.352C109.342 159.736 109.142 159.128 108.98 158.521C106.494 149.138 106.723 148.778 117.115 146.292Z" fill="white"/>
<path d="M145.958 252.103C150.254 247.615 151.34 242.018 156.941 238.821C160.856 236.591 163.609 231.743 165.98 227.559C174.039 213.329 182.631 199.601 195.366 188.795C197.205 187.229 196.986 182.818 197.052 179.706C197.252 170.409 202.253 163.692 211.179 161.329C213.788 160.634 216.523 160.539 219.175 161.051C221.827 161.564 224.328 162.67 226.487 164.287C228.646 165.904 230.408 167.989 231.639 170.384C232.87 172.779 233.538 175.422 233.592 178.112C233.887 193.093 222.742 201.195 208.273 196.84C207.193 196.625 206.079 196.635 205.002 196.868C203.925 197.102 202.908 197.554 202.015 198.197C192.49 205.644 185.965 215.492 179.821 225.709C175.624 232.924 170.789 239.75 165.371 246.107C160.789 251.382 154.188 253.44 145.958 252.103ZM223.114 179.497C223.095 177.518 222.308 175.622 220.918 174.208C219.528 172.793 217.642 171.969 215.656 171.908C214.634 171.886 213.617 172.066 212.665 172.435C211.712 172.805 210.842 173.359 210.105 174.063C209.367 174.768 208.776 175.611 208.365 176.543C207.955 177.476 207.732 178.479 207.711 179.497C207.782 181.485 208.624 183.368 210.06 184.749C211.497 186.131 213.416 186.903 215.413 186.903C217.41 186.903 219.328 186.131 220.765 184.749C222.202 183.368 223.044 181.485 223.114 179.497Z" fill="white"/>
<path d="M190.728 140.448C190.094 140.497 189.457 140.497 188.823 140.448C179.821 138.333 179.535 137.839 182.031 129.206C184.746 119.804 187.518 110.431 190.118 101.001C192.652 91.7695 188.403 84.1892 180.164 83.6959C177.821 83.5631 175.077 84.8439 173.029 86.229C168.514 89.2839 162.275 89.2649 158.579 85.6503C156.818 83.9104 155.733 81.6043 155.519 79.1426C155.304 76.6808 155.973 74.2231 157.408 72.2069C160.57 67.6436 167.648 66.6759 172.772 69.8921C174.42 70.9357 176.373 72.0172 178.24 72.1121C194.509 72.9754 204.911 85.1474 201.625 101.285C198.977 114.501 194.538 127.356 190.728 140.448Z" fill="white"/>
<path d="M103.913 141.017C100.874 130.525 97.8261 120.762 95.2733 110.858C93.8635 105.422 92.5586 99.7672 92.5109 94.1982C92.4157 82.3297 102.36 72.8141 114.219 72.0931C116.951 71.7926 119.586 70.9092 121.944 69.5031C126.707 66.8846 133.156 67.8618 136.509 72.1121C139.547 75.9733 138.938 82.3108 135.185 85.84C131.432 89.3692 125.421 89.3787 121.021 85.6408C115.239 80.7264 105.827 84.0944 104.141 92.0826C103.535 95.484 103.695 98.9771 104.608 102.31C107.132 112.082 109.885 121.815 113.067 131.397C114.553 135.885 113.686 138.209 109.114 139.253C107.599 139.604 106.161 140.249 103.913 141.017Z" fill="white"/>
</g>
<defs>
<clipPath id="clip0_3_2">
<rect width="281" height="296" fill="white"/>
</clipPath>
</defs>
</svg>
