<svg width="412" height="513" viewBox="0 0 412 513" fill="none" xmlns="http://www.w3.org/2000/svg">
<path d="M206 438.677C316.081 438.677 405.319 433.477 405.319 427.062C405.319 420.648 316.081 415.448 206 415.448C95.9192 415.448 6.68103 420.648 6.68103 427.062C6.68103 433.477 95.9192 438.677 206 438.677Z" fill="#F5F5F5"/>
<path d="M299.25 355.222C317.236 355.222 331.817 340.669 331.817 322.718C331.817 304.767 317.236 290.214 299.25 290.214C281.264 290.214 266.683 304.767 266.683 322.718C266.683 340.669 281.264 355.222 299.25 355.222Z" fill="white"/>
<path d="M299.25 355.622C292.729 355.624 286.354 353.696 280.931 350.082C275.508 346.467 271.281 341.329 268.784 335.317C266.287 329.305 265.633 322.688 266.904 316.305C268.175 309.922 271.314 304.058 275.924 299.455C280.534 294.852 286.409 291.718 292.804 290.447C299.2 289.177 305.829 289.828 311.853 292.318C317.878 294.808 323.028 299.025 326.651 304.437C330.274 309.848 332.208 316.21 332.208 322.718C332.199 331.44 328.725 339.803 322.546 345.972C316.367 352.141 307.989 355.611 299.25 355.622ZM299.25 290.625C292.888 290.625 286.668 292.508 281.378 296.036C276.088 299.564 271.966 304.578 269.531 310.445C267.097 316.312 266.461 322.767 267.703 328.995C268.945 335.223 272.009 340.943 276.509 345.433C281.008 349.922 286.741 352.979 292.981 354.216C299.221 355.454 305.689 354.817 311.566 352.385C317.444 349.954 322.467 345.837 326 340.557C329.533 335.276 331.418 329.068 331.416 322.718C331.408 314.207 328.016 306.047 321.985 300.03C315.954 294.013 307.777 290.63 299.25 290.625Z" fill="#AB1F1F"/>
<path d="M304.493 304.291H294.007V341.145H304.493V304.291Z" fill="#AB1F1F"/>
<path d="M317.713 327.961V317.496H280.787V327.961H317.713Z" fill="#AB1F1F"/>
<path d="M78.6412 77.0218L77.9421 76.2728C82.7008 71.7831 88.7392 68.8792 95.2228 67.9622L95.3667 68.9882C89.0921 69.8714 83.2475 72.6787 78.6412 77.0218Z" fill="#AB1F1F"/>
<path d="M71.0339 88.236L70.0779 87.8667C71.1156 85.2529 72.4985 82.7893 74.1899 80.541L75.0123 81.1566C73.3813 83.3324 72.0437 85.7125 71.0339 88.236Z" fill="#AB1F1F"/>
<path d="M99.7152 127.542C115.294 127.542 127.923 114.937 127.923 99.3886C127.923 83.8399 115.294 71.2352 99.7152 71.2352C84.1361 71.2352 71.5068 83.8399 71.5068 99.3886C71.5068 114.937 84.1361 127.542 99.7152 127.542Z" fill="#AB1F1F"/>
<path d="M116.564 86.7073C115.478 85.5816 114.177 84.6834 112.739 84.0653C111.301 83.4471 109.753 83.1213 108.187 83.107C106.621 83.0927 105.068 83.3901 103.619 83.9818C102.17 84.5736 100.853 85.4478 99.746 86.5534C98.6399 85.4481 97.3241 84.5741 95.8756 83.9825C94.427 83.3908 92.8748 83.0935 91.3097 83.1078C89.7446 83.1222 88.1981 83.4479 86.7607 84.0659C85.3232 84.684 84.0237 85.5819 82.9382 86.7073C80.8108 89.0039 79.6647 92.0381 79.7434 95.1648C79.8221 98.2916 81.1194 101.264 83.3597 103.452L96.7237 116.79C97.1246 117.19 97.6006 117.507 98.1244 117.724C98.6483 117.94 99.2098 118.052 99.7768 118.052C100.344 118.052 100.905 117.94 101.429 117.724C101.953 117.507 102.429 117.19 102.83 116.79L116.194 103.452C118.427 101.258 119.715 98.2811 119.784 95.1544C119.853 92.0277 118.698 88.9974 116.564 86.7073Z" fill="white"/>
<path d="M99.7151 111.69C99.5079 111.683 99.3076 111.614 99.1407 111.491C98.9738 111.369 98.8479 111.198 98.7796 111.003L92.8275 93.6328L90.3397 100.897C90.269 101.099 90.1369 101.273 89.9618 101.397C89.7867 101.52 89.5774 101.586 89.3631 101.584H79.4018C79.1291 101.584 78.8677 101.476 78.6749 101.284C78.4821 101.091 78.3738 100.83 78.3738 100.558C78.3738 100.286 78.4821 100.025 78.6749 99.8328C78.8677 99.6404 79.1291 99.5323 79.4018 99.5323H88.6538L91.8817 90.1238C91.9516 89.9223 92.0828 89.7474 92.2569 89.6237C92.431 89.4999 92.6394 89.4334 92.8532 89.4334C93.0669 89.4334 93.2753 89.4999 93.4495 89.6237C93.6236 89.7474 93.7547 89.9223 93.8246 90.1238L99.8795 107.802L105.76 93.9816C105.834 93.8055 105.956 93.6535 106.112 93.5429C106.269 93.4324 106.453 93.3675 106.644 93.3558C106.836 93.3447 107.028 93.3879 107.197 93.4805C107.366 93.573 107.506 93.7111 107.6 93.879L110.704 99.522H120.069C120.342 99.522 120.604 99.6301 120.796 99.8225C120.989 100.015 121.097 100.276 121.097 100.548C121.097 100.82 120.989 101.081 120.796 101.274C120.604 101.466 120.342 101.574 120.069 101.574H110.108C109.924 101.576 109.743 101.528 109.584 101.436C109.425 101.344 109.294 101.211 109.203 101.051L106.767 96.7005L100.661 111.065C100.582 111.25 100.45 111.408 100.282 111.519C100.114 111.631 99.9168 111.69 99.7151 111.69Z" fill="#AB1F1F"/>
<path d="M256.228 391.111H148.936C147.187 391.131 145.454 390.787 143.846 390.101C142.238 389.416 140.791 388.405 139.596 387.131C138.401 385.857 137.485 384.349 136.905 382.703C136.326 381.056 136.096 379.308 136.23 377.568L153.572 121.068C153.875 117.405 155.532 113.985 158.22 111.472C160.908 108.96 164.436 107.535 168.118 107.473H275.431C277.184 107.453 278.922 107.799 280.534 108.487C282.145 109.175 283.595 110.192 284.791 111.471C285.987 112.751 286.902 114.265 287.478 115.917C288.054 117.57 288.279 119.324 288.137 121.068L270.764 377.568C270.451 381.221 268.792 384.628 266.106 387.13C263.421 389.632 259.901 391.051 256.228 391.111Z" fill="#263238"/>
<path d="M280.016 211.931H277.312C276.823 211.936 276.337 211.84 275.887 211.648C275.437 211.456 275.032 211.172 274.698 210.815C274.364 210.457 274.109 210.034 273.948 209.573C273.788 209.111 273.726 208.621 273.766 208.134L277.086 159.102C277.163 158.076 277.624 157.117 278.375 156.414C279.127 155.711 280.116 155.316 281.147 155.306H283.85C284.34 155.3 284.825 155.396 285.275 155.588C285.726 155.78 286.131 156.064 286.464 156.421C286.798 156.779 287.054 157.202 287.214 157.663C287.375 158.125 287.437 158.615 287.397 159.102L284.077 208.134C283.999 209.16 283.539 210.119 282.787 210.822C282.035 211.525 281.046 211.921 280.016 211.931Z" fill="#263238"/>
<path d="M152.01 179.222H149.316C148.918 179.227 148.522 179.15 148.155 178.994C147.788 178.839 147.458 178.61 147.184 178.32C146.911 178.031 146.7 177.688 146.567 177.314C146.433 176.939 146.378 176.54 146.407 176.144L147.61 158.435C147.686 157.604 148.067 156.83 148.679 156.261C149.292 155.693 150.094 155.371 150.93 155.357H153.634C154.031 155.355 154.424 155.434 154.789 155.59C155.155 155.747 155.483 155.976 155.755 156.265C156.027 156.554 156.237 156.896 156.371 157.269C156.504 157.643 156.56 158.039 156.533 158.435L155.33 176.144C155.256 176.976 154.876 177.751 154.263 178.32C153.649 178.888 152.846 179.21 152.01 179.222Z" fill="#0C3489"/>
<path d="M149.871 210.843H147.168C146.77 210.847 146.376 210.768 146.01 210.613C145.644 210.457 145.315 210.227 145.042 209.938C144.77 209.649 144.561 209.306 144.427 208.932C144.294 208.558 144.24 208.161 144.269 207.765L145.471 190.056C145.547 189.225 145.928 188.451 146.541 187.883C147.154 187.315 147.956 186.993 148.792 186.978H151.516C151.913 186.976 152.307 187.055 152.672 187.212C153.037 187.368 153.366 187.598 153.638 187.887C153.91 188.175 154.119 188.517 154.253 188.891C154.387 189.264 154.442 189.661 154.415 190.056L153.212 207.765C153.138 208.601 152.755 209.379 152.137 209.948C151.52 210.517 150.712 210.836 149.871 210.843Z" fill="#0C3489"/>
<path d="M253.956 391.111H146.664C144.916 391.131 143.182 390.787 141.575 390.101C139.967 389.416 138.519 388.405 137.324 387.131C136.129 385.857 135.213 384.349 134.633 382.703C134.054 381.056 133.824 379.308 133.958 377.568L151.31 121.068C151.624 117.403 153.292 113.986 155.99 111.481C158.688 108.976 162.223 107.562 165.908 107.515H273.159C274.908 107.495 276.643 107.839 278.251 108.525C279.86 109.211 281.308 110.224 282.503 111.498C283.698 112.773 284.614 114.282 285.193 115.93C285.772 117.578 286.001 119.327 285.865 121.068L268.502 377.568C268.19 381.223 266.529 384.632 263.841 387.134C261.154 389.636 257.631 391.053 253.956 391.111Z" fill="#0C3489"/>
<path opacity="0.3" d="M135.089 374.695L152.03 124.392H284.704L267.762 374.695H135.089Z" fill="white"/>
<path opacity="0.1" d="M187.465 374.695L234.815 124.392H264.534L217.185 374.695H187.465Z" fill="white"/>
<path opacity="0.1" d="M165.014 374.695L212.363 124.392H227.424L180.074 374.695H165.014Z" fill="white"/>
<path d="M206.144 113.804H232.019C232.235 113.8 232.449 113.842 232.648 113.926C232.847 114.01 233.026 114.135 233.173 114.293C233.32 114.451 233.433 114.638 233.503 114.841C233.573 115.045 233.6 115.262 233.581 115.476C233.546 115.928 233.343 116.351 233.012 116.662C232.682 116.973 232.247 117.15 231.793 117.159H205.918C205.701 117.161 205.487 117.118 205.288 117.033C205.089 116.947 204.91 116.821 204.763 116.663C204.616 116.504 204.504 116.317 204.434 116.113C204.363 115.908 204.337 115.692 204.355 115.476C204.391 115.025 204.594 114.604 204.925 114.294C205.256 113.985 205.691 113.81 206.144 113.804Z" fill="white"/>
<path d="M200.757 415.787L191.69 416.648L188.421 395.769L197.488 394.897L200.757 415.787Z" fill="#FFB573"/>
<path d="M190.652 412.226L200.151 409.282C200.314 409.225 200.494 409.234 200.651 409.306C200.809 409.379 200.931 409.51 200.994 409.672L204.078 417.192C204.154 417.394 204.188 417.609 204.177 417.824C204.167 418.04 204.111 418.25 204.014 418.443C203.918 418.636 203.782 418.807 203.616 418.945C203.45 419.082 203.257 419.184 203.05 419.244C199.616 420.27 196.347 420.506 192.204 422.322C187.362 424.374 185.337 427.124 180.125 427.124C176.394 427.124 175.551 423.707 177.134 423.235C184.33 421.06 183.384 419.275 188.606 413.663C189.149 413.012 189.855 412.517 190.652 412.226Z" fill="#263238"/>
<path opacity="0.2" d="M188.421 395.769L190.107 406.542L199.184 405.67L197.499 394.897L188.421 395.769Z" fill="black"/>
<path d="M194.98 131.944C183.086 130.548 171.254 131.482 159.38 133.78C157.402 134.163 155.597 135.166 154.227 136.641C152.858 138.117 151.994 139.99 151.763 141.988C150.478 153.336 149.008 178.77 154.744 216.712L203.348 212.608C203.44 205.723 198.537 174.358 202.587 141.814C202.753 140.665 202.686 139.495 202.391 138.372C202.097 137.249 201.579 136.197 200.87 135.277C200.161 134.357 199.275 133.588 198.263 133.015C197.251 132.443 196.135 132.078 194.98 131.944Z" fill="white"/>
<path d="M166.679 141.67L168.416 145.138C168.497 145.313 168.626 145.462 168.788 145.567C168.95 145.672 169.138 145.73 169.331 145.733L171.213 145.836C171.548 145.85 171.879 145.749 172.148 145.548L175.386 143.137L171.387 140.234L166.679 141.67Z" fill="#263238"/>
<path d="M171.274 144.84C170.589 144.523 169.812 144.461 169.085 144.666C167.553 150.052 165.877 165.514 165.702 172.368C170.349 185.88 171.87 187.245 171.87 187.245L174.225 170.983C174.225 170.983 171.583 154.351 171.274 144.84Z" fill="#263238"/>
<path d="M184.69 108.551C183.579 115.24 182.634 127.46 187.445 131.779C183.919 135.473 179.303 139.751 171.387 140.234C163.472 140.716 164.695 135.247 166.7 132.323C174.091 130.353 173.731 124.854 172.282 119.714L184.69 108.551Z" fill="#FFB573"/>
<path d="M189.459 131.195C188.899 130.953 188.317 130.764 187.722 130.63C187.576 130.592 187.422 130.602 187.283 130.66C187.144 130.717 187.027 130.818 186.951 130.948C186.19 132.241 183.867 138.018 171.387 140.234C173.443 141.444 176.167 145.2 177.339 147.005C181.081 145.066 190.816 139.269 189.891 131.769C189.872 131.645 189.823 131.528 189.748 131.428C189.672 131.327 189.573 131.247 189.459 131.195Z" fill="#F5F5F5"/>
<path d="M166.772 132.631C166.798 132.514 166.794 132.393 166.762 132.278C166.729 132.163 166.668 132.057 166.584 131.972C166.501 131.886 166.397 131.823 166.282 131.787C166.168 131.752 166.046 131.746 165.929 131.769C165.496 131.853 165.071 131.966 164.654 132.108C164.557 132.145 164.467 132.197 164.387 132.262C163.431 133.144 158.219 140.654 163.102 146.728C164.13 145.076 167.676 141.331 171.387 140.234C167.871 138.654 166.144 135.709 166.772 132.631Z" fill="#F5F5F5"/>
<path opacity="0.2" d="M179.632 113.106L172.292 119.714C172.646 120.907 172.893 122.129 173.032 123.366C175.869 122.884 179.683 119.673 179.889 116.697C180.028 115.495 179.941 114.277 179.632 113.106Z" fill="black"/>
<path d="M169.825 88.3283C163.492 90.801 163.081 95.9925 163.657 101.666C164.232 107.34 170.421 103.585 171.798 100.035C173.176 96.485 178.594 84.9015 169.825 88.3283Z" fill="#263238"/>
<path d="M190.025 99.6451C188.267 108.582 187.681 113.886 182.562 118C174.841 124.156 164.387 118.842 163.461 109.628C162.629 101.328 165.641 88.0821 174.862 85.4966C176.873 84.9057 179.004 84.8486 181.043 85.3312C183.083 85.8137 184.962 86.8191 186.493 88.2479C188.024 89.6768 189.155 91.4797 189.775 93.4785C190.394 95.4773 190.481 97.6029 190.025 99.6451Z" fill="#FFB573"/>
<path d="M189.655 107.043C182.12 107.443 183.713 103.175 185.08 100.722C186.447 98.2703 183.662 94.2176 185.481 92.1143C182.233 93.407 178.809 92.34 174.461 89.3236C171.089 86.974 166.864 96.3619 162.752 91.6526C158.866 87.21 162.475 80.5102 171.809 79.4329C181.143 78.3556 182.839 84.9425 188.966 84.3577C195.093 83.7729 192.965 88.8106 191.762 89.8366C196.902 90.1751 199.709 95.0794 189.655 107.043Z" fill="#263238"/>
<path d="M190.58 90.4624C191.759 89.817 192.744 88.8689 193.432 87.7163C194.121 86.5636 194.488 85.2482 194.497 83.9063C196.532 87.4665 196.316 91.5089 190.58 90.4624Z" fill="#263238"/>
<path d="M171.048 109.187C171.867 109.328 172.706 109.303 173.516 109.113C174.325 108.922 175.087 108.571 175.756 108.079C175.777 108.06 175.793 108.037 175.804 108.011C175.815 107.985 175.82 107.958 175.82 107.93C175.82 107.902 175.815 107.875 175.804 107.849C175.793 107.824 175.777 107.8 175.756 107.781C175.716 107.743 175.663 107.722 175.607 107.722C175.552 107.722 175.498 107.743 175.458 107.781C174.708 108.312 173.846 108.661 172.938 108.802C172.03 108.942 171.101 108.87 170.226 108.592C170.17 108.578 170.111 108.585 170.06 108.611C170.009 108.638 169.969 108.682 169.948 108.735C169.932 108.79 169.938 108.848 169.965 108.898C169.992 108.948 170.038 108.986 170.092 109.002C170.405 109.092 170.724 109.154 171.048 109.187Z" fill="#263238"/>
<path d="M191.844 109.782C190.437 111.592 188.373 112.779 186.098 113.086C183.106 113.476 182.109 110.695 183.363 108.099C184.505 105.76 187.475 102.744 190.23 103.554C192.986 104.365 193.571 107.525 191.844 109.782Z" fill="#FFB573"/>
<path d="M188.874 304.076C189.233 277.287 192.667 213.48 192.667 213.48L154.775 216.671C154.775 216.671 162.31 282.427 166.854 309.76C171.583 338.17 186.088 404.726 186.088 404.726L201.508 403.413C201.508 403.413 195.874 324.791 188.874 304.076Z" fill="#263238"/>
<path d="M185.162 405.147L203.451 403.598L202.731 397.708L183.672 398.981L185.162 405.147Z" fill="#0C3489"/>
<path d="M176.517 100.179C176.424 100.907 175.952 101.461 175.489 101.41C175.026 101.359 174.708 100.722 174.81 99.9837C174.913 99.245 175.376 98.7012 175.838 98.7525C176.301 98.8038 176.62 99.4502 176.517 100.179Z" fill="#263238"/>
<path d="M168.129 99.522C168.036 100.261 167.563 100.804 167.101 100.753C166.638 100.702 166.319 100.066 166.422 99.3373C166.525 98.6088 166.987 98.0548 167.45 98.1061C167.913 98.1574 168.231 98.7525 168.129 99.522Z" fill="#263238"/>
<path d="M170.493 100.384C169.255 102.282 167.768 104.008 166.073 105.514C167.162 106.653 169.414 106.345 169.414 106.345L170.493 100.384Z" fill="#ED893E"/>
<path opacity="0.4" d="M162.824 99.7067C162.67 100.876 163.852 101.851 165.487 102.056C167.121 102.261 168.632 101.369 168.776 100.199" fill="#0C3489"/>
<path opacity="0.4" d="M172.539 100.794C172.312 101.954 173.454 103 175.057 103.308C176.661 103.616 178.234 102.795 178.45 101.646" fill="#0C3489"/>
<path d="M175.695 103.626C175.51 103.636 175.324 103.636 175.139 103.626C174.349 103.532 173.607 103.199 173.012 102.672C172.752 102.45 172.549 102.17 172.42 101.854C172.291 101.538 172.24 101.196 172.271 100.856C171.75 100.629 171.194 100.49 170.627 100.445C170.056 100.303 169.46 100.303 168.889 100.445C168.745 101.697 167.183 102.559 165.435 102.343C164.645 102.257 163.901 101.927 163.307 101.4C163.049 101.177 162.847 100.896 162.718 100.58C162.59 100.265 162.538 99.9231 162.567 99.5836L163.06 99.6451C163.04 99.9075 163.082 100.171 163.184 100.414C163.286 100.656 163.444 100.871 163.646 101.04C164.164 101.495 164.811 101.779 165.497 101.851C166.977 102.046 168.293 101.359 168.427 100.333C168.499 99.758 169.691 99.799 170.678 99.9221C171.665 100.045 172.837 100.322 172.734 100.887C172.712 101.149 172.754 101.413 172.856 101.656C172.958 101.899 173.117 102.113 173.32 102.282C173.844 102.731 174.489 103.017 175.174 103.104C175.859 103.192 176.554 103.077 177.175 102.774C177.414 102.663 177.623 102.496 177.785 102.287C177.946 102.078 178.054 101.834 178.1 101.574V101.328L190.786 102.959L190.724 103.452L178.511 101.882C178.423 102.167 178.277 102.432 178.082 102.66C177.888 102.887 177.649 103.073 177.381 103.205C176.861 103.48 176.282 103.624 175.695 103.626Z" fill="#263238"/>
<path d="M179.745 96.957C179.818 96.9572 179.89 96.9358 179.951 96.8954C180.05 96.8374 180.124 96.7426 180.154 96.6314C180.185 96.5202 180.171 96.4013 180.115 96.3004C179.796 95.7036 179.335 95.1947 178.772 94.8188C178.209 94.4429 177.561 94.2117 176.887 94.1458C176.772 94.1401 176.658 94.1799 176.572 94.2567C176.485 94.3334 176.432 94.4409 176.424 94.5562C176.419 94.6688 176.458 94.7792 176.533 94.8636C176.608 94.948 176.713 94.9997 176.825 95.0076C177.359 95.0701 177.869 95.2617 178.312 95.5656C178.754 95.8696 179.116 96.2768 179.365 96.7518C179.403 96.8171 179.459 96.8707 179.526 96.9068C179.593 96.9429 179.669 96.9603 179.745 96.957Z" fill="#263238"/>
<path d="M165.415 95.7976C165.486 95.8046 165.558 95.7942 165.624 95.7674C165.69 95.7406 165.749 95.6981 165.795 95.6437C166.127 95.2092 166.557 94.8586 167.05 94.6198C167.543 94.3811 168.085 94.2609 168.632 94.2689C168.689 94.2745 168.746 94.2689 168.801 94.2523C168.855 94.2357 168.906 94.2086 168.95 94.1723C168.994 94.1361 169.03 94.0915 169.057 94.0411C169.084 93.9908 169.1 93.9357 169.105 93.879C169.112 93.8237 169.108 93.7675 169.094 93.7137C169.079 93.6599 169.053 93.6096 169.019 93.5657C168.985 93.5218 168.942 93.4851 168.893 93.4579C168.844 93.4307 168.791 93.4134 168.735 93.407C168.044 93.389 167.359 93.5327 166.734 93.8267C166.11 94.1207 165.563 94.5568 165.137 95.0999C165.064 95.1872 165.028 95.2998 165.038 95.4132C165.047 95.5266 165.102 95.6316 165.188 95.7053C165.255 95.7534 165.333 95.785 165.415 95.7976Z" fill="#263238"/>
<path d="M220.443 299.756C212.579 259.414 210.811 227.864 203.348 212.546L166.638 216.65C166.638 216.65 188.503 276.763 199.184 302.424C210.277 329.1 232.173 374.675 232.173 374.675H250.512C250.512 374.675 233.396 318.132 220.443 299.756Z" fill="#263238"/>
<path d="M104.084 147.036L100.116 144.533C99.4719 144.118 98.7038 143.94 97.9427 144.028C97.1816 144.116 96.4746 144.465 95.9424 145.015L93.249 147.847C92.9589 148.152 92.7347 148.514 92.5903 148.91C92.4459 149.305 92.3843 149.726 92.4094 150.146C92.4344 150.566 92.5456 150.977 92.736 151.353C92.9264 151.728 93.1919 152.061 93.5163 152.33L95.4386 153.972C97.1107 155.386 99.0614 156.435 101.165 157.05L106.973 158.763L110.787 154.659C111.948 150.381 104.084 147.036 104.084 147.036Z" fill="#FFB573"/>
<path d="M162.824 145.117C161.385 148.626 159.977 151.889 158.445 155.224C156.913 158.558 155.361 161.852 153.644 165.124C151.927 168.397 150.097 171.65 148.021 174.912C146.993 176.534 145.852 178.155 144.556 179.786C143.164 181.585 141.578 183.226 139.828 184.68C138.672 185.623 137.396 186.409 136.034 187.019C135.603 187.183 135.202 187.348 134.729 187.491L134.009 187.686C133.647 187.775 133.28 187.84 132.909 187.881C131.656 188.022 130.388 187.932 129.167 187.614C127.642 187.188 126.192 186.527 124.87 185.655C123.881 185.038 122.936 184.353 122.043 183.603C119.077 181.018 116.342 178.178 113.871 175.118C111.475 172.245 109.214 169.362 107.045 166.417C104.876 163.473 102.789 160.579 100.651 157.491L112.02 150.165C115.608 155.946 119.578 161.482 123.904 166.735C125.892 169.169 128.083 171.431 130.452 173.497C130.911 173.871 131.396 174.214 131.902 174.523C132.282 174.779 132.663 174.882 132.395 174.789C132.034 174.69 131.655 174.669 131.285 174.728C131.135 174.742 130.987 174.769 130.843 174.81H130.761C130.709 174.81 130.709 174.81 130.699 174.81C130.933 174.657 131.156 174.489 131.367 174.307C132.306 173.457 133.156 172.515 133.906 171.496C134.78 170.326 135.654 169.013 136.487 167.648C138.189 164.811 139.74 161.886 141.133 158.886C142.572 155.808 143.96 152.73 145.245 149.529C146.53 146.328 147.754 143.076 148.792 139.967L162.824 145.117Z" fill="#0C3489"/>
<g opacity="0.6">
<path d="M162.824 145.117C161.385 148.626 159.977 151.889 158.445 155.224C156.913 158.558 155.361 161.852 153.644 165.124C151.927 168.397 150.097 171.65 148.021 174.912C146.993 176.534 145.852 178.155 144.556 179.786C143.164 181.585 141.578 183.226 139.828 184.68C138.672 185.623 137.396 186.409 136.034 187.019C135.603 187.183 135.202 187.348 134.729 187.491L134.009 187.686C133.647 187.775 133.28 187.84 132.909 187.881C131.656 188.022 130.388 187.932 129.167 187.614C127.642 187.188 126.192 186.527 124.87 185.655C123.881 185.038 122.936 184.353 122.043 183.603C119.077 181.018 116.342 178.178 113.871 175.118C111.475 172.245 109.214 169.362 107.045 166.417C104.876 163.473 102.789 160.579 100.651 157.491L112.02 150.165C115.608 155.946 119.578 161.482 123.904 166.735C125.892 169.169 128.083 171.431 130.452 173.497C130.911 173.871 131.396 174.214 131.902 174.523C132.282 174.779 132.663 174.882 132.395 174.789C132.034 174.69 131.655 174.669 131.285 174.728C131.135 174.742 130.987 174.769 130.843 174.81H130.761C130.709 174.81 130.709 174.81 130.699 174.81C130.933 174.657 131.156 174.489 131.367 174.307C132.306 173.457 133.156 172.515 133.906 171.496C134.78 170.326 135.654 169.013 136.487 167.648C138.189 164.811 139.74 161.886 141.133 158.886C142.572 155.808 143.96 152.73 145.245 149.529C146.53 146.328 147.754 143.076 148.792 139.967L162.824 145.117Z" fill="white"/>
</g>
<path d="M189.737 129.368C185.882 136.55 172.158 163.914 170.493 180.802C164.417 165.412 165.744 131.369 165.744 131.369C161.414 131.79 157.166 132.827 153.13 134.447C151.829 134.98 150.702 135.863 149.873 136.996C149.043 138.13 148.545 139.471 148.432 140.87C147.249 158.484 147.807 176.173 150.097 193.678C154.364 226.818 158.321 278.354 158.321 278.354C158.321 278.354 192.297 276.938 218.511 271.418C215.314 246.086 204.376 203.63 204.273 192.262C204.15 177.631 204.489 149.026 204.951 137.084C205.029 135.398 204.5 133.74 203.459 132.409C202.418 131.079 200.935 130.164 199.277 129.83C196.132 129.248 192.923 129.093 189.737 129.368Z" fill="#0C3489"/>
<path opacity="0.7" d="M189.737 129.368C185.882 136.55 172.158 163.914 170.493 180.802C164.417 165.412 165.744 131.369 165.744 131.369C161.414 131.79 157.166 132.827 153.13 134.447C151.829 134.98 150.702 135.863 149.873 136.997C149.043 138.13 148.545 139.471 148.432 140.87C147.249 158.484 147.807 176.173 150.097 193.678C154.364 226.818 158.321 278.354 158.321 278.354C158.321 278.354 192.297 276.938 218.511 271.418C215.314 246.086 204.376 203.63 204.273 192.262C204.15 177.631 204.489 149.016 204.951 137.074C205.049 135.439 204.565 133.822 203.585 132.508C202.605 131.195 201.193 130.268 199.596 129.892C196.35 129.257 193.032 129.081 189.737 129.368Z" fill="white"/>
<path d="M181.729 272.854C175.828 240.361 171.151 192.683 170.771 186.947H171.295C171.675 192.683 176.363 240.299 182.253 272.793L181.729 272.854Z" fill="white"/>
<path d="M178.789 215.05H147.456C146.823 215.021 146.216 214.789 145.727 214.387C145.238 213.986 144.892 213.437 144.742 212.823L134.266 164.222C134.19 163.956 134.177 163.677 134.23 163.405C134.283 163.134 134.399 162.88 134.57 162.662C134.74 162.445 134.96 162.271 135.211 162.155C135.462 162.039 135.737 161.984 136.014 161.995H167.337C167.972 162.021 168.58 162.253 169.072 162.654C169.563 163.056 169.91 163.606 170.061 164.222L180.537 212.823C180.613 213.088 180.626 213.368 180.573 213.639C180.52 213.91 180.404 214.165 180.233 214.382C180.063 214.6 179.843 214.774 179.592 214.89C179.34 215.006 179.065 215.06 178.789 215.05Z" fill="white"/>
<path d="M177.812 215.46H145.944C145.3 215.43 144.683 215.193 144.184 214.785C143.686 214.376 143.333 213.817 143.179 213.193L132.519 163.77C132.442 163.499 132.431 163.214 132.486 162.938C132.541 162.662 132.661 162.403 132.835 162.182C133.009 161.961 133.234 161.784 133.49 161.666C133.745 161.548 134.026 161.492 134.307 161.503H166.175C166.82 161.533 167.437 161.77 167.935 162.178C168.434 162.587 168.786 163.145 168.941 163.77L179.591 213.193C179.669 213.463 179.682 213.747 179.629 214.024C179.575 214.3 179.457 214.559 179.283 214.78C179.109 215.002 178.885 215.179 178.63 215.297C178.374 215.415 178.094 215.471 177.812 215.46Z" fill="#0C3489"/>
<path d="M181.462 187.573L173.536 187.276C172.583 187.243 171.634 187.411 170.75 187.768L166.638 189.41C166.252 189.562 165.901 189.791 165.606 190.082C165.311 190.373 165.078 190.721 164.92 191.104C164.763 191.487 164.684 191.898 164.69 192.312C164.695 192.726 164.785 193.135 164.952 193.514L166.597 197.064C166.929 197.752 167.488 198.306 168.181 198.631C168.874 198.956 169.657 199.033 170.4 198.849L174.934 197.72C174.934 197.72 183.446 197.043 183.754 192.59L181.462 187.573Z" fill="#FFB573"/>
<path d="M203.348 133.77C205.311 136.848 207.11 139.659 208.878 142.676C210.647 145.692 212.384 148.678 214.018 151.797C215.653 154.916 217.205 158.137 218.614 161.585C219.345 163.39 219.97 165.237 220.485 167.115C221.147 169.404 221.453 171.781 221.389 174.163V174.564C221.393 174.632 221.393 174.7 221.389 174.769C221.389 175.138 221.286 175.508 221.214 175.877C221.143 176.246 221.05 176.534 220.947 176.903C220.844 177.272 220.731 177.467 220.618 177.754C220.225 178.642 219.721 179.477 219.117 180.237C218.277 181.285 217.322 182.235 216.27 183.069C214.653 184.34 212.934 185.476 211.13 186.465C207.956 188.197 204.689 189.752 201.343 191.123C198.105 192.498 194.877 193.75 191.629 194.93C188.38 196.11 185.183 197.248 181.801 198.377L177.884 185.449C180.968 184.608 184.114 183.572 187.188 182.525C190.261 181.479 193.356 180.309 196.275 179.088C199.14 177.907 201.934 176.561 204.643 175.056C205.786 174.424 206.876 173.7 207.902 172.891C208.171 172.687 208.413 172.449 208.621 172.183C208.533 172.283 208.463 172.398 208.416 172.522C208.416 172.614 208.364 172.676 208.313 172.789C208.273 172.909 208.242 173.033 208.221 173.158C208.177 173.316 208.15 173.477 208.138 173.64C208.138 173.702 208.138 173.712 208.138 173.692V173.62C208.067 172.646 207.877 171.685 207.573 170.757C207.162 169.414 206.674 168.095 206.113 166.807C204.856 163.967 203.435 161.203 201.857 158.527C200.254 155.778 198.547 153.028 196.717 150.319C194.887 147.611 193.016 144.912 191.135 142.45L203.348 133.77Z" fill="#0C3489"/>
<g opacity="0.7">
<path d="M203.348 133.77C205.311 136.848 207.11 139.659 208.878 142.676C210.647 145.692 212.384 148.678 214.018 151.797C215.653 154.916 217.205 158.137 218.614 161.585C219.345 163.39 219.97 165.237 220.485 167.115C221.147 169.404 221.453 171.781 221.389 174.163V174.564C221.393 174.632 221.393 174.7 221.389 174.769C221.389 175.138 221.286 175.508 221.214 175.877C221.143 176.246 221.05 176.534 220.947 176.903C220.844 177.272 220.731 177.467 220.618 177.754C220.225 178.642 219.721 179.477 219.117 180.237C218.277 181.285 217.322 182.235 216.27 183.069C214.653 184.34 212.934 185.476 211.13 186.465C207.956 188.197 204.689 189.752 201.343 191.123C198.105 192.498 194.877 193.75 191.629 194.93C188.38 196.11 185.183 197.248 181.801 198.377L177.884 185.449C180.968 184.608 184.114 183.572 187.188 182.525C190.261 181.479 193.356 180.309 196.275 179.088C199.14 177.907 201.934 176.561 204.643 175.056C205.786 174.424 206.876 173.7 207.902 172.891C208.171 172.687 208.413 172.449 208.621 172.183C208.533 172.283 208.463 172.398 208.416 172.522C208.416 172.614 208.364 172.676 208.313 172.789C208.273 172.909 208.242 173.033 208.221 173.158C208.177 173.316 208.15 173.477 208.138 173.64C208.138 173.702 208.138 173.712 208.138 173.692V173.62C208.067 172.646 207.877 171.685 207.573 170.757C207.162 169.414 206.674 168.095 206.113 166.807C204.856 163.967 203.435 161.203 201.857 158.527C200.254 155.778 198.547 153.028 196.717 150.319C194.887 147.611 193.016 144.912 191.135 142.45L203.348 133.77Z" fill="white"/>
</g>
<path d="M192.944 169.372C192.876 169.371 192.809 169.353 192.749 169.319C192.69 169.285 192.64 169.236 192.605 169.177C192.575 169.132 192.554 169.082 192.544 169.029C192.534 168.976 192.535 168.921 192.546 168.869C192.558 168.816 192.58 168.766 192.611 168.722C192.643 168.678 192.682 168.641 192.729 168.613L194.332 167.587C195.829 166.645 197.004 165.271 197.702 163.648C198.399 162.025 198.586 160.228 198.239 158.496L195.011 142.183C194.774 140.963 194.133 139.859 193.19 139.048C192.246 138.237 191.057 137.768 189.813 137.716C188.569 137.664 187.344 138.032 186.336 138.76C185.328 139.489 184.596 140.536 184.258 141.732L179.683 157.727C179.184 159.418 179.211 161.22 179.762 162.895C180.313 164.57 181.361 166.038 182.767 167.105L184.289 168.254C184.374 168.321 184.43 168.419 184.443 168.526C184.457 168.634 184.427 168.742 184.361 168.828C184.328 168.87 184.288 168.906 184.242 168.932C184.196 168.958 184.146 168.975 184.093 168.982C184.04 168.989 183.987 168.985 183.936 168.971C183.885 168.957 183.837 168.933 183.795 168.9L182.356 167.761C180.81 166.599 179.655 164.996 179.043 163.163C178.432 161.331 178.393 159.356 178.933 157.501L183.518 141.506C183.911 140.14 184.753 138.946 185.908 138.115C187.064 137.284 188.465 136.864 189.888 136.923C191.31 136.982 192.672 137.517 193.754 138.441C194.836 139.365 195.575 140.625 195.854 142.019L199.082 158.343C199.463 160.234 199.259 162.197 198.497 163.971C197.735 165.745 196.451 167.245 194.815 168.274L193.201 169.3C193.166 169.329 193.124 169.35 193.08 169.362C193.036 169.375 192.99 169.378 192.944 169.372Z" fill="#263238"/>
<path d="M195.412 142.522L183.867 142.039C183.813 142.037 183.76 142.024 183.711 142C183.662 141.977 183.619 141.945 183.582 141.905C183.546 141.865 183.518 141.818 183.5 141.767C183.482 141.716 183.474 141.662 183.477 141.609C183.487 141.501 183.537 141.402 183.617 141.33C183.697 141.258 183.801 141.218 183.908 141.219L195.443 141.701C195.497 141.703 195.55 141.717 195.598 141.74C195.647 141.763 195.691 141.795 195.727 141.835C195.764 141.875 195.792 141.922 195.81 141.973C195.828 142.024 195.836 142.078 195.833 142.132C195.832 142.185 195.82 142.238 195.798 142.287C195.776 142.335 195.744 142.379 195.705 142.416C195.666 142.452 195.619 142.48 195.569 142.498C195.519 142.516 195.465 142.524 195.412 142.522Z" fill="#263238"/>
<path d="M189.799 137.74C189.692 137.738 189.591 137.695 189.514 137.621C189.438 137.547 189.393 137.447 189.388 137.34C189.388 135.288 188.75 131.728 186.828 130.948C186.775 130.931 186.726 130.902 186.684 130.865C186.642 130.827 186.609 130.782 186.585 130.731C186.562 130.68 186.549 130.625 186.548 130.569C186.546 130.513 186.557 130.457 186.578 130.405C186.599 130.353 186.63 130.306 186.67 130.267C186.71 130.228 186.758 130.197 186.81 130.177C186.862 130.156 186.918 130.147 186.974 130.149C187.031 130.151 187.086 130.165 187.136 130.189C189.984 131.359 190.22 136.714 190.22 137.371C190.22 137.479 190.179 137.583 190.104 137.662C190.029 137.74 189.927 137.787 189.819 137.792L189.799 137.74Z" fill="#263238"/>
<path d="M154.487 151.684H154.405C154.299 151.662 154.206 151.598 154.146 151.508C154.086 151.418 154.065 151.308 154.086 151.202C155.443 144.461 161.056 133.821 166.001 130.682C166.046 130.654 166.096 130.635 166.148 130.626C166.201 130.618 166.254 130.62 166.306 130.632C166.358 130.645 166.406 130.667 166.449 130.699C166.492 130.73 166.528 130.77 166.556 130.815C166.586 130.859 166.606 130.909 166.616 130.961C166.626 131.013 166.625 131.067 166.614 131.119C166.602 131.17 166.58 131.219 166.549 131.263C166.518 131.306 166.478 131.342 166.432 131.369C161.652 134.385 156.204 144.707 154.888 151.345C154.871 151.439 154.822 151.525 154.749 151.587C154.675 151.649 154.583 151.683 154.487 151.684Z" fill="#263238"/>
<path d="M157.859 152.741C157.221 154.372 155.803 155.357 154.775 154.936C153.747 154.516 153.346 152.884 153.983 151.212C154.621 149.54 156.039 148.596 157.067 149.026C158.095 149.457 158.506 151.109 157.859 152.741Z" fill="white"/>
<path d="M184.998 168.633C184.998 169.393 184.525 169.998 184.021 169.977C183.518 169.957 183.127 169.321 183.158 168.551C183.189 167.782 183.631 167.176 184.134 167.207C184.638 167.238 185.029 167.864 184.998 168.633Z" fill="white"/>
<path d="M193.859 169.003C193.859 169.762 193.397 170.367 192.883 170.347C192.369 170.326 191.999 169.69 192.03 168.921C192.06 168.151 192.492 167.556 193.058 167.577C193.623 167.597 193.89 168.264 193.859 169.003Z" fill="white"/>
<path d="M368.188 154.772L367.16 154.711C367.331 152.526 367.045 150.33 366.32 148.262C365.596 146.193 364.449 144.298 362.952 142.696C361.454 141.093 359.64 139.819 357.623 138.954C355.606 138.088 353.431 137.651 351.236 137.669V136.643C353.572 136.623 355.887 137.088 358.033 138.008C360.179 138.928 362.111 140.284 363.705 141.988C365.299 143.693 366.52 145.709 367.292 147.91C368.064 150.111 368.369 152.448 368.188 154.772Z" fill="#0C3489"/>
<path d="M368.73 159.074L368.134 167.569L369.162 167.641L369.758 159.146L368.73 159.074Z" fill="#0C3489"/>
<path d="M351.236 140.234H280.304C276.43 140.297 272.719 141.797 269.891 144.44C267.064 147.084 265.323 150.682 265.007 154.536L264.36 164.068C264.212 165.902 264.45 167.746 265.056 169.484C265.663 171.221 266.625 172.813 267.883 174.159C269.14 175.505 270.664 176.574 272.359 177.299C274.053 178.024 275.88 178.389 277.724 178.37H348.656L362.41 186.835L364.59 154.536C364.738 152.703 364.502 150.858 363.897 149.121C363.292 147.383 362.33 145.791 361.073 144.445C359.817 143.1 358.293 142.03 356.599 141.305C354.905 140.58 353.079 140.215 351.236 140.234Z" fill="#0C3489"/>
<path d="M347.638 153.89H281.938V156.27H347.638V153.89Z" fill="white"/>
<path d="M347.062 162.334H298.284V164.714H347.062V162.334Z" fill="white"/>
<path d="M244.529 191.226H317.024C318.909 191.206 320.777 191.578 322.51 192.318C324.242 193.059 325.801 194.152 327.087 195.528C328.372 196.904 329.356 198.532 329.976 200.309C330.596 202.085 330.838 203.971 330.686 205.846L330.028 215.593C329.702 219.532 327.922 223.209 325.033 225.91C322.143 228.612 318.351 230.146 314.392 230.214H241.887L226.652 238.884L228.893 205.846C229.217 201.907 230.997 198.229 233.887 195.527C236.776 192.825 240.57 191.292 244.529 191.226Z" fill="white"/>
<path opacity="0.15" d="M244.529 191.226H317.024C318.909 191.206 320.777 191.578 322.51 192.318C324.242 193.059 325.801 194.152 327.087 195.528C328.372 196.904 329.356 198.532 329.976 200.309C330.596 202.085 330.838 203.971 330.686 205.846L330.028 215.593C329.702 219.532 327.922 223.209 325.033 225.91C322.143 228.612 318.351 230.146 314.392 230.214H241.887L226.652 238.884L228.893 205.846C229.217 201.907 230.997 198.229 233.887 195.527C236.776 192.825 240.57 191.292 244.529 191.226Z" fill="#FF0000"/>
<path opacity="0.5" d="M313.344 205.19H246.154V207.632H313.344V205.19Z" fill="#0C3489"/>
<path opacity="0.5" d="M272.121 213.818H245.568V216.26H272.121V213.818Z" fill="#0C3489"/>
<path opacity="0.5" d="M295.59 213.818H278.628V216.26H295.59V213.818Z" fill="#0C3489"/>
</svg>
