<svg width="412" height="485" viewBox="0 0 412 485" fill="none" xmlns="http://www.w3.org/2000/svg">
<path d="M123.08 98.3386C115.757 91.4613 103.68 90.1421 99.1598 97.3007C94.6396 104.459 97.2198 112.025 87.9466 119.96C81.6416 125.382 86.317 141.998 122.285 140.475C139.308 139.758 133.546 122.045 133.09 113.674C132.635 105.303 132.605 95.06 123.08 98.3386Z" fill="#263238"/>
<path d="M108.908 390.347L100.198 390.687L100.033 381.258L108.743 380.919L108.908 390.347Z" fill="#B55B52"/>
<path d="M99.6545 388.883H109.5C109.673 388.881 109.842 388.938 109.978 389.046C110.114 389.154 110.209 389.305 110.247 389.474L111.954 397.283C111.993 397.473 111.989 397.67 111.942 397.859C111.895 398.047 111.807 398.223 111.683 398.373C111.559 398.523 111.404 398.643 111.227 398.724C111.051 398.806 110.858 398.847 110.664 398.845C107.221 398.786 105.552 398.583 101.216 398.583C98.5487 398.583 91.6326 398.864 87.9466 398.864C84.2606 398.864 83.795 395.217 85.2985 394.887C92.0885 393.403 96.0364 391.366 98.2092 389.416C98.6077 389.065 99.1231 388.874 99.6545 388.883Z" fill="#263238"/>
<path opacity="0.2" d="M100.033 381.268L100.11 385.653L108.821 385.274L108.743 380.929L100.033 381.268Z" fill="black"/>
<path d="M87.19 200.451C85.25 210.907 87.481 262.016 90.4395 284.588C94.3777 314.561 98.4517 384.159 98.4517 384.159L110.092 383.46C110.092 383.46 113.002 310.167 110.625 286.102C111.974 255.129 115.31 201.033 115.31 201.033L87.19 200.451Z" fill="#507BA0"/>
<path opacity="0.2" d="M113.38 234.74C113.787 226.893 108.229 219.918 105.989 234.74C104.572 244.159 107.502 260.668 111.343 272.327C111.935 260.193 112.691 246.681 113.38 234.74Z" fill="black"/>
<path d="M172.909 361.024L167.244 366.437L159.571 358.211L165.227 352.808L172.909 361.024Z" fill="#B55B52"/>
<path d="M165.76 366.582L171.58 358.609C171.675 358.47 171.819 358.373 171.983 358.337C172.147 358.301 172.319 358.329 172.463 358.415L179.253 362.411C179.42 362.522 179.563 362.666 179.673 362.833C179.784 363.001 179.86 363.189 179.896 363.386C179.932 363.584 179.928 363.786 179.884 363.982C179.84 364.178 179.758 364.363 179.641 364.526C177.575 367.271 176.44 368.484 173.889 371.995C172.317 374.148 170.503 377.117 168.34 380.104C166.177 383.092 163.219 380.948 163.859 379.503C166.769 373.013 165.537 371.209 165.382 368.115C165.332 367.576 165.465 367.036 165.76 366.582Z" fill="#263238"/>
<path opacity="0.2" d="M159.571 358.221L163.529 362.45L169.145 356.999L165.236 352.808L159.571 358.221Z" fill="black"/>
<path d="M100.692 200.732C100.692 200.732 113.225 266.692 116.484 292.3C118.424 307.597 161.201 362.635 161.201 362.635L168.505 354.942C168.505 354.942 152.849 314.649 133.993 290.748C133.246 262.734 136.427 216.62 125.602 201.246L100.692 200.732Z" fill="#507BA0"/>
<path d="M89.6926 150.156C89.6926 155.821 89.4307 161.379 89.0136 166.995C88.5965 172.611 88.0436 178.199 87.1415 183.825L86.9766 184.882L86.7535 186.075C86.5854 186.858 86.4011 187.624 86.2006 188.374C85.7738 189.858 85.2306 191.284 84.7456 192.661C83.6843 195.362 82.4798 198.004 81.1372 200.577C78.4934 205.606 75.4815 210.434 72.1259 215.02C71.7717 215.495 71.2544 215.823 70.6733 215.941C70.0922 216.058 69.4882 215.957 68.9772 215.656C68.4662 215.355 68.0842 214.877 67.9044 214.312C67.7247 213.747 67.76 213.135 68.0034 212.595V212.537C70.2829 207.609 72.4945 202.555 74.4248 197.55C75.3948 195.048 76.2581 192.516 76.9953 190.033C77.3445 188.791 77.6549 187.559 77.8974 186.356C78.0235 185.755 78.1108 185.163 78.1981 184.581L78.2951 183.718L78.3921 182.748C78.8868 177.374 79.1778 171.923 79.4494 166.462C79.721 161.001 79.8471 155.491 80.0023 150.078V150.03C80.0229 148.744 80.5536 147.518 81.4777 146.623C82.4018 145.728 83.6436 145.237 84.9299 145.257C86.2162 145.278 87.4416 145.809 88.3366 146.733C89.2316 147.657 89.7229 148.899 89.7023 150.185L89.6926 150.156Z" fill="#B55B52"/>
<path d="M86.5304 143.065C74.6188 146.548 76.1514 168.217 76.1514 168.217L93.0876 172.776C93.0876 172.776 95.9006 156.907 95.6484 151.213C95.3962 145.296 93.0973 141.154 86.5304 143.065Z" fill="#507BA0"/>
<path d="M69.2644 211.344L63.299 216.417L71.6603 219.831C71.6603 219.831 74.2502 215.883 73.0474 212.139L69.2644 211.344Z" fill="#B55B52"/>
<path d="M64.3562 224.157L68.1683 224.633C68.5918 224.685 69.0209 224.597 69.3892 224.382C69.7574 224.166 70.0443 223.835 70.2053 223.439L71.6603 219.831L63.2989 216.417L62.6684 222.014C62.6109 222.521 62.7558 223.031 63.0718 223.432C63.3878 223.834 63.8493 224.094 64.3562 224.157Z" fill="#B55B52"/>
<path d="M82.6795 148.701C82.146 170.429 87.1415 186.288 87.1997 200.451L125.602 201.246C125.321 187.065 125.437 177.811 131.538 152.397C131.804 151.29 131.835 150.14 131.631 149.02C131.427 147.9 130.991 146.835 130.352 145.893C129.713 144.951 128.885 144.153 127.92 143.549C126.955 142.945 125.875 142.549 124.748 142.386C122.45 142.047 119.898 141.727 117.309 141.552C111.505 141.014 105.67 140.891 99.8485 141.184C95.7551 141.475 91.3513 142.076 88.2085 142.551C86.7155 142.773 85.3467 143.509 84.3375 144.631C83.3284 145.754 82.7421 147.193 82.6795 148.701Z" fill="#507BA0"/>
<path d="M118.473 168.78L107.085 168.702C106.971 168.707 106.858 168.688 106.753 168.645C106.648 168.602 106.554 168.536 106.476 168.454C106.399 168.371 106.34 168.272 106.305 168.164C106.269 168.056 106.257 167.942 106.27 167.829L106.9 162.436C106.941 162.195 107.066 161.977 107.252 161.819C107.439 161.661 107.675 161.574 107.919 161.573L119.297 161.65C119.41 161.644 119.523 161.662 119.628 161.704C119.733 161.746 119.828 161.81 119.905 161.893C119.983 161.975 120.042 162.073 120.077 162.18C120.113 162.288 120.125 162.401 120.112 162.514L119.481 167.917C119.442 168.157 119.32 168.375 119.135 168.533C118.95 168.691 118.716 168.779 118.473 168.78Z" fill="white"/>
<path opacity="0.4" d="M99.9067 141.193C99.9067 141.193 93.6405 145.578 100.266 156.577C105.705 151.287 111.406 146.272 117.347 141.552L99.9067 141.193Z" fill="white"/>
<path d="M116.028 121.88C114.816 127.468 113.496 137.73 117.347 141.552C111.292 143.937 105.709 147.379 100.857 151.718C96.599 143.899 99.8873 141.183 99.8873 141.183C106.173 139.825 106.115 135.179 105.116 130.795L116.028 121.88Z" fill="#B55B52"/>
<path opacity="0.2" d="M114.845 122.85C114.693 126.189 113.83 129.457 112.313 132.434C111.256 134.481 108.433 135.344 105.591 135.509C105.685 133.923 105.531 132.333 105.135 130.795L114.845 122.85Z" fill="black"/>
<path d="M125.117 115.042C122.207 123.985 121.237 127.827 115.417 131.319C106.736 136.566 96.3856 131.086 96.5214 121.473C96.6572 112.821 101.371 99.6578 111.139 98.3095C113.302 97.9963 115.51 98.2421 117.551 99.0233C119.592 99.8046 121.399 101.095 122.8 102.773C124.202 104.45 125.15 106.458 125.556 108.606C125.961 110.753 125.81 112.969 125.117 115.042Z" fill="#B55B52"/>
<path d="M101.401 103.295C106.251 104.663 118.065 105.682 120.432 104.265C118.211 107.68 120.325 117.011 123.759 119.271C128.386 115.556 129.414 106.574 125.136 102.122C120.859 97.6693 107.337 92.344 101.401 103.295Z" fill="#263238"/>
<path d="M126.475 120.513C126.169 121.365 125.695 122.147 125.082 122.813C124.469 123.48 123.729 124.017 122.905 124.393C120.713 125.363 119.258 123.5 119.569 121.24C119.85 119.213 121.334 116.254 123.681 116.216C124.188 116.223 124.685 116.354 125.129 116.599C125.572 116.844 125.949 117.194 126.225 117.619C126.501 118.043 126.668 118.53 126.712 119.034C126.756 119.539 126.674 120.047 126.475 120.513Z" fill="#B55B52"/>
<path d="M126.223 199.005L127.891 202.488C128.017 202.749 127.697 203.021 127.251 203.011L86.9669 202.167C86.6274 202.167 86.3461 201.983 86.3267 201.76L86.0454 198.317C86.0454 198.084 86.3364 197.89 86.7147 197.89L125.612 198.705C125.731 198.697 125.85 198.721 125.957 198.774C126.064 198.827 126.156 198.906 126.223 199.005Z" fill="#263238"/>
<path d="M120.917 203.244H121.955C122.159 203.244 122.323 203.137 122.314 203.011L121.916 198.53C121.916 198.404 121.722 198.287 121.518 198.287H120.471C120.267 198.287 120.112 198.384 120.122 198.52L120.51 202.992C120.529 203.137 120.704 203.244 120.917 203.244Z" fill="#507BA0"/>
<path d="M89.8866 202.604H90.9342C91.1379 202.604 91.3028 202.507 91.2931 202.371L90.8954 197.89C90.8954 197.764 90.7014 197.657 90.4977 197.647H89.4501C89.2464 197.647 89.0815 197.744 89.1009 197.88L89.4889 202.352C89.5083 202.487 89.6829 202.594 89.8866 202.604Z" fill="#507BA0"/>
<path d="M105.397 202.924H106.445C106.648 202.924 106.813 202.827 106.803 202.691L106.406 198.219C106.406 198.084 106.212 197.977 106.008 197.977H104.96C104.757 197.977 104.602 198.084 104.611 198.21L104.999 202.691C105.019 202.808 105.193 202.924 105.397 202.924Z" fill="#507BA0"/>
<path d="M111.159 114.295C110.965 115.032 110.422 115.537 109.937 115.411C109.452 115.285 109.219 114.586 109.403 113.849C109.587 113.112 110.14 112.607 110.625 112.733C111.11 112.86 111.343 113.558 111.159 114.295Z" fill="#263238"/>
<path d="M102.797 112.161C102.613 112.908 102.07 113.403 101.585 113.277C101.1 113.151 100.857 112.462 101.051 111.715C101.245 110.968 101.779 110.483 102.264 110.599C102.749 110.716 102.991 111.424 102.797 112.161Z" fill="#263238"/>
<path d="M102.468 110.696L100.819 109.726C100.819 109.726 101.381 111.356 102.468 110.696Z" fill="#263238"/>
<path d="M104.65 113.994C103.564 115.515 102.275 116.879 100.819 118.049C101.126 118.413 101.509 118.706 101.941 118.907C102.374 119.108 102.844 119.213 103.321 119.213L104.65 113.994Z" fill="#A02724"/>
<path d="M105.116 122.113C105.081 122.084 105.056 122.046 105.042 122.003C105.029 121.96 105.027 121.914 105.038 121.871C105.047 121.843 105.061 121.817 105.08 121.794C105.099 121.772 105.122 121.753 105.148 121.739C105.175 121.726 105.203 121.718 105.232 121.715C105.262 121.713 105.291 121.716 105.319 121.725C106.225 122.009 107.185 122.076 108.122 121.921C109.059 121.766 109.946 121.394 110.713 120.833C110.758 120.794 110.816 120.775 110.875 120.78C110.934 120.784 110.989 120.812 111.028 120.857C111.066 120.902 111.085 120.961 111.081 121.02C111.076 121.079 111.049 121.134 111.004 121.172C110.183 121.791 109.226 122.203 108.213 122.372C107.199 122.54 106.16 122.462 105.184 122.142L105.116 122.113Z" fill="#263238"/>
<path d="M115.718 110.89C115.659 110.838 115.61 110.776 115.572 110.706C115.372 110.18 115.049 109.71 114.631 109.334C114.213 108.958 113.711 108.686 113.167 108.543C113.05 108.522 112.945 108.456 112.877 108.359C112.809 108.262 112.782 108.141 112.803 108.024C112.823 107.907 112.89 107.803 112.987 107.735C113.084 107.666 113.205 107.64 113.322 107.66C114.014 107.831 114.655 108.165 115.191 108.635C115.728 109.104 116.144 109.694 116.406 110.357C116.441 110.448 116.445 110.548 116.418 110.642C116.392 110.735 116.336 110.818 116.259 110.878C116.182 110.937 116.088 110.971 115.99 110.973C115.893 110.975 115.797 110.946 115.718 110.89Z" fill="#263238"/>
<path d="M101.148 107.447L101.09 107.389C101.007 107.305 100.96 107.192 100.96 107.073C100.96 106.955 101.007 106.842 101.09 106.758C101.602 106.278 102.22 105.924 102.895 105.727C103.569 105.53 104.28 105.494 104.97 105.623C105.028 105.638 105.082 105.664 105.13 105.7C105.177 105.736 105.217 105.781 105.247 105.832C105.277 105.884 105.296 105.941 105.303 106C105.311 106.059 105.306 106.119 105.29 106.176C105.261 106.291 105.187 106.389 105.085 106.449C104.983 106.509 104.862 106.526 104.747 106.496C104.194 106.392 103.623 106.421 103.084 106.581C102.544 106.742 102.05 107.028 101.643 107.418C101.573 107.471 101.488 107.502 101.4 107.507C101.312 107.513 101.224 107.491 101.148 107.447Z" fill="#263238"/>
<path d="M131.529 149.244C134.351 152.979 136.99 156.742 139.551 160.651C140.821 162.591 142.082 164.531 143.275 166.627C144.561 168.746 145.714 170.942 146.729 173.203C147.036 173.908 147.301 174.63 147.524 175.366C147.686 175.934 147.796 176.515 147.854 177.103C147.87 177.338 147.87 177.575 147.854 177.811V178.247C147.836 178.44 147.807 178.631 147.766 178.82L147.699 179.12V179.256V179.363L147.621 179.576C147.165 180.74 146.806 181.914 146.263 183.039C145.279 185.345 144.098 187.562 142.732 189.664C141.326 191.787 139.679 193.74 137.824 195.484C136.879 196.37 135.864 197.178 134.788 197.899C134.235 198.258 133.672 198.608 133.09 198.928L132.169 199.374C131.82 199.529 131.567 199.636 131.063 199.82L129.22 195.397C129.351 195.268 129.491 195.149 129.637 195.038L130.171 194.572C130.53 194.252 130.879 193.903 131.218 193.544C131.909 192.803 132.557 192.022 133.158 191.206C134.343 189.54 135.375 187.771 136.243 185.92C136.65 184.95 137.096 184.038 137.436 183.01C137.775 181.982 138.154 181.07 138.464 180.1C138.775 179.13 139.017 178.063 139.318 177.054V176.87V176.773V176.86V177.054C139.318 177.17 139.269 177.345 139.26 177.413C139.255 177.487 139.255 177.562 139.26 177.636V177.917C139.26 178.14 139.26 178.073 139.26 177.976C139.26 177.879 138.988 177.355 138.784 176.947C137.902 175.289 136.718 173.378 135.506 171.554C134.293 169.731 133.032 167.859 131.742 166.025C129.172 162.349 126.523 158.634 123.924 154.987L131.529 149.244Z" fill="#B55B52"/>
<path d="M133.634 198.675L126.155 203.962L122.799 196.318C122.799 196.318 127.338 193.884 130.918 195.513L133.634 198.675Z" fill="#B55B52"/>
<path d="M120.946 204.592L119.074 201.983C118.719 201.48 118.573 200.858 118.669 200.249C118.765 199.641 119.095 199.093 119.588 198.724L122.799 196.318L126.155 203.962L124.099 205.233C123.59 205.545 122.981 205.653 122.396 205.534C121.811 205.415 121.293 205.079 120.946 204.592Z" fill="#B55B52"/>
<path d="M116.562 146.936C114.02 157.033 129.695 174.319 129.695 174.319L142.878 160.632C142.878 160.632 136.854 147.77 128.987 143.735C123.497 140.922 117.687 142.483 116.562 146.936Z" fill="#507BA0"/>
<path d="M110.829 112.83L109.18 111.86C109.18 111.86 109.733 113.49 110.829 112.83Z" fill="#263238"/>
<path d="M93.98 173.911C93.9091 173.911 93.84 173.889 93.7813 173.85C93.7226 173.81 93.677 173.754 93.6502 173.688C93.6187 173.602 93.6224 173.507 93.6605 173.423C93.6986 173.34 93.7681 173.275 93.8539 173.242L95.3671 172.66C96.7845 172.137 98.0083 171.193 98.875 169.955C99.7417 168.718 100.21 167.245 100.217 165.734L100.324 151.553C100.354 150.473 100.014 149.416 99.3579 148.557C98.7023 147.699 97.7718 147.092 96.7222 146.837C95.6725 146.583 94.5673 146.697 93.5914 147.159C92.6155 147.622 91.8281 148.406 91.361 149.38L84.8038 161.99C84.0993 163.321 83.8149 164.835 83.9881 166.331C84.1612 167.827 84.7839 169.236 85.7738 170.371L86.8408 171.583C86.8767 171.617 86.9052 171.657 86.9245 171.702C86.9437 171.747 86.9533 171.796 86.9525 171.845C86.9517 171.894 86.9407 171.942 86.92 171.987C86.8994 172.031 86.8696 172.071 86.8326 172.103C86.7956 172.135 86.7523 172.159 86.7055 172.173C86.6586 172.188 86.6093 172.192 86.5606 172.186C86.512 172.18 86.4652 172.164 86.4232 172.138C86.3812 172.113 86.345 172.079 86.317 172.039L85.25 170.72C84.1575 169.486 83.4673 167.949 83.2715 166.313C83.0756 164.677 83.3835 163.02 84.1539 161.563L90.7111 148.953C91.2716 147.877 92.178 147.021 93.2843 146.523C94.3907 146.024 95.6326 145.913 96.81 146.206C97.9873 146.5 99.0316 147.181 99.7746 148.14C100.518 149.1 100.916 150.281 100.906 151.495L100.799 165.676C100.791 167.321 100.285 168.925 99.3458 170.276C98.4071 171.627 97.0807 172.661 95.5417 173.242L94.0285 173.814L93.98 173.911Z" fill="#263238"/>
<path d="M100.566 154.715C100.476 154.713 100.39 154.676 100.325 154.614C100.261 154.551 100.222 154.466 100.217 154.376C100.08 153.255 99.6057 152.202 98.8578 151.356C98.11 150.51 97.1233 149.91 96.0278 149.636C94.9324 149.362 93.7796 149.426 92.7214 149.82C91.6632 150.214 90.7492 150.92 90.1 151.844C90.0777 151.884 90.0478 151.919 90.0118 151.948C89.9759 151.976 89.9346 151.998 89.8905 152.01C89.8464 152.023 89.8002 152.027 89.7546 152.021C89.709 152.016 89.6649 152.002 89.6247 151.98C89.5846 151.957 89.5493 151.927 89.5207 151.891C89.4922 151.855 89.471 151.814 89.4584 151.77C89.4458 151.726 89.442 151.68 89.4472 151.634C89.4525 151.589 89.4666 151.544 89.4889 151.504C90.2107 150.438 91.2428 149.618 92.4455 149.157C93.6482 148.696 94.9634 148.616 96.2133 148.927C97.4632 149.238 98.5873 149.926 99.4335 150.897C100.28 151.868 100.807 153.075 100.945 154.356C100.945 154.448 100.91 154.537 100.846 154.603C100.783 154.67 100.697 154.71 100.605 154.715H100.566Z" fill="#263238"/>
<path d="M96.7833 146.965C96.7259 146.964 96.6695 146.95 96.6189 146.923C96.5683 146.895 96.5249 146.857 96.4923 146.809C96.315 146.416 96.2234 145.99 96.2234 145.558C96.2234 145.127 96.315 144.7 96.4923 144.307C96.7441 143.525 97.1686 142.809 97.7345 142.213C98.3003 141.617 98.993 141.156 99.7612 140.863C99.8037 140.847 99.8493 140.839 99.8949 140.841C99.9405 140.843 99.9853 140.854 100.026 140.874C100.067 140.894 100.104 140.923 100.133 140.957C100.163 140.992 100.185 141.033 100.198 141.077C100.226 141.163 100.219 141.257 100.179 141.338C100.14 141.42 100.07 141.482 99.9843 141.513C99.3264 141.783 98.735 142.193 98.251 142.713C97.7669 143.234 97.4019 143.854 97.181 144.53C97.0363 144.83 96.9524 145.156 96.9341 145.489C96.9158 145.822 96.9635 146.156 97.0743 146.47C97.0994 146.509 97.1166 146.552 97.1248 146.598C97.133 146.643 97.1321 146.69 97.1222 146.735C97.1123 146.78 97.0935 146.823 97.067 146.86C97.0404 146.898 97.0067 146.93 96.9676 146.955C96.9078 146.973 96.8446 146.976 96.7833 146.965Z" fill="#263238"/>
<path d="M93.1846 173.378C93.0197 174.008 93.1846 174.61 93.6502 174.716C94.1158 174.823 94.5426 174.387 94.6978 173.746C94.853 173.106 94.6396 172.505 94.2225 172.408C93.8054 172.311 93.3398 172.738 93.1846 173.378Z" fill="#263238"/>
<path d="M120.713 156.626C121.024 158.091 122.071 159.099 123.032 158.896C123.992 158.692 124.516 157.324 124.196 155.869C123.875 154.414 122.838 153.386 121.877 153.6C120.917 153.813 120.393 155.2 120.713 156.626Z" fill="#263238"/>
<path d="M123.749 156.17C123.705 156.171 123.66 156.164 123.619 156.148C123.577 156.132 123.539 156.108 123.506 156.077C123.474 156.047 123.448 156.01 123.43 155.969C123.411 155.929 123.401 155.885 123.4 155.84C123.196 150.476 121.159 143.812 117.192 141.843C117.11 141.802 117.048 141.729 117.019 141.642C116.99 141.555 116.996 141.46 117.037 141.378C117.057 141.336 117.084 141.299 117.119 141.269C117.153 141.238 117.193 141.215 117.237 141.2C117.28 141.186 117.326 141.18 117.372 141.184C117.418 141.188 117.462 141.201 117.503 141.222C121.751 143.327 123.875 150.069 124.089 155.772C124.093 155.818 124.087 155.864 124.073 155.907C124.058 155.951 124.034 155.991 124.003 156.025C123.972 156.058 123.934 156.085 123.892 156.104C123.85 156.122 123.805 156.131 123.759 156.131L123.749 156.17Z" fill="#263238"/>
<path d="M119.675 156.752C119.879 158.003 120.781 158.896 121.693 158.75C122.605 158.605 123.187 157.47 122.983 156.209C122.779 154.948 121.867 154.065 120.956 154.211C120.044 154.356 119.472 155.491 119.675 156.752Z" fill="white"/>
<path d="M119.598 156.859C119.889 158.411 120.704 159.555 121.412 159.42C122.12 159.284 122.44 157.926 122.149 156.374C121.858 154.822 121.043 153.677 120.335 153.813C119.627 153.949 119.297 155.307 119.598 156.859Z" fill="#263238"/>
<path d="M85.8515 171.545C85.6963 172.185 85.9096 172.786 86.3267 172.883C86.7438 172.98 87.2095 172.563 87.3744 171.913C87.5393 171.263 87.3161 170.681 86.899 170.575C86.4819 170.468 86.0164 170.914 85.8515 171.545Z" fill="#263238"/>
<path d="M192.105 92.5574C185.965 93.6535 185.189 93.0909 185.112 88.6774C185.034 84.2639 182.803 76.9016 185.907 74.593C186.12 74.391 186.382 74.2484 186.668 74.1794C186.953 74.1104 187.251 74.1175 187.533 74.2C187.815 74.2825 188.07 74.4374 188.273 74.6493C188.476 74.8613 188.62 75.1228 188.691 75.4078C188.88 74.9237 189.249 74.5314 189.721 74.3127C190.193 74.094 190.731 74.0659 191.223 74.2341C191.349 73.3223 191.494 70.9846 193.163 70.3541C194.831 69.7236 196.364 71.2368 196.364 71.2368C196.364 71.2368 196.237 67.6381 198.662 67.9873C199.386 68.103 200.059 68.4342 200.592 68.9377C201.125 69.4413 201.493 70.0937 201.65 70.81C201.65 70.81 203.047 68.773 204.938 69.5781C206.83 70.3832 206.432 72.75 206.432 72.75C206.432 72.75 208.44 71.78 209.934 72.8761C211.428 73.9722 210.341 75.7279 210.341 75.7279C210.341 75.7279 211.699 72.2359 214.289 74.1662C216.617 75.9122 214.503 78.6476 214.503 78.6476C214.503 78.6476 217.063 78.2305 217.684 79.5206C219.779 83.9147 211.796 88.8229 211.534 96.2434C199.274 100.88 192.105 92.5574 192.105 92.5574Z" fill="#263238"/>
<path d="M147.854 210.49L143.76 209.733L138.348 214.904C138.053 215.184 137.821 215.523 137.665 215.899C137.51 216.275 137.435 216.679 137.446 217.086L137.523 221.315C137.533 222.038 137.811 222.732 138.305 223.261C138.798 223.79 139.47 224.116 140.191 224.177L142.073 224.342C142.757 224.406 143.443 224.227 144.007 223.834C144.572 223.442 144.979 222.862 145.157 222.198L146.127 218.745C146.127 218.745 151.472 212.43 147.854 210.49Z" fill="#FFB573"/>
<path d="M189.195 133.142C186.45 140.252 183.715 147.392 181.076 154.55C178.438 161.709 175.819 168.896 173.365 175.968L172.928 177.277L172.628 178.131C172.511 178.451 172.395 178.781 172.288 179.033C171.832 180.187 171.376 181.138 170.92 182.098C170.009 184.038 169.087 185.774 168.156 187.53C166.284 191.022 164.354 194.388 162.404 197.744C158.524 204.466 154.644 211.033 150.628 217.697L138.28 210.015C142.354 203.681 146.282 197.143 150.046 190.615C151.899 187.336 153.722 184.048 155.42 180.789C156.264 179.159 157.079 177.529 157.796 175.939C158.136 175.172 158.475 174.387 158.698 173.746C158.776 173.562 158.805 173.436 158.854 173.31L159.009 172.806L159.455 171.389C161.793 163.94 164.247 156.742 166.614 149.438L173.714 127.604L189.195 133.142Z" fill="#507BA0"/>
<path opacity="0.6" d="M189.195 133.142C186.45 140.252 183.715 147.392 181.076 154.55C178.438 161.709 175.819 168.896 173.365 175.968L172.928 177.277L172.628 178.131C172.511 178.451 172.395 178.781 172.288 179.033C171.832 180.187 171.376 181.138 170.92 182.098C170.009 184.038 169.087 185.774 168.156 187.53C166.284 191.022 164.354 194.388 162.404 197.744C158.524 204.466 154.644 211.033 150.628 217.697L138.28 210.015C142.354 203.681 146.282 197.143 150.046 190.615C151.899 187.336 153.722 184.048 155.42 180.789C156.264 179.159 157.079 177.529 157.796 175.939C158.136 175.172 158.475 174.387 158.698 173.746C158.776 173.562 158.805 173.436 158.854 173.31L159.009 172.806L159.455 171.389C161.793 163.94 164.247 156.742 166.614 149.438L173.714 127.604L189.195 133.142Z" fill="white"/>
<path d="M152.199 392.763L143.499 393.189L147.611 370.53L155.885 372.431L152.199 392.763Z" fill="#FFB573"/>
<path d="M214.619 393.092H205.918L205.947 372.946H214.638L214.619 393.092Z" fill="#FFB573"/>
<path d="M205.094 392.084H215.696C215.866 392.081 216.032 392.139 216.163 392.248C216.295 392.356 216.383 392.508 216.413 392.675L217.81 400.435C217.841 400.627 217.83 400.824 217.777 401.011C217.725 401.198 217.632 401.372 217.506 401.519C217.379 401.667 217.222 401.786 217.045 401.866C216.868 401.947 216.676 401.989 216.481 401.987C213.067 401.929 210.584 401.726 206.287 401.726C203.648 401.726 195.617 401.997 192.008 401.997C188.4 401.997 188.031 398.389 189.535 398.059C196.325 396.594 201.437 394.577 203.658 392.646C204.052 392.29 204.562 392.089 205.094 392.084Z" fill="#263238"/>
<path opacity="0.2" d="M147.611 370.54L145.71 381.016L153.984 382.917L155.885 372.441L147.611 370.54Z" fill="black"/>
<path opacity="0.2" d="M214.638 372.946H205.937V383.325H214.638V372.946Z" fill="black"/>
<path d="M221.642 132.89C214.852 163.435 216.656 193.583 215.928 200.111L169.495 197.046C164.645 160.186 170.057 136.673 173.132 127.031C173.632 125.44 174.577 124.025 175.856 122.954C177.135 121.883 178.694 121.201 180.349 120.988C187.254 120.231 194.207 120.014 201.146 120.338C205.843 120.619 210.505 121.327 215.075 122.453C217.328 122.969 219.285 124.357 220.516 126.314C221.747 128.27 222.152 130.635 221.642 132.89Z" fill="#507BA0"/>
<path d="M207.645 99.6384C206.112 105.39 204.298 115.575 207.218 120.726C207.674 121.531 206.801 122.22 206.762 123.151C206.655 126.003 202.795 126.857 195.888 126.895C188.982 126.934 186.023 124.053 187.905 121.337C188.194 120.923 188.632 120.638 189.127 120.542C195.597 119.097 195.723 114.023 194.841 109.183L207.645 99.6384Z" fill="#FFB573"/>
<path opacity="0.4" d="M195.393 125.314C197.208 127.837 198.358 130.776 198.74 133.86C205.637 130.62 208.925 122.753 208.925 122.753L206.849 120.532C206.849 120.532 199.186 121.977 195.393 125.314Z" fill="black"/>
<path opacity="0.4" d="M194.715 125.343C192.175 127.41 190.032 129.921 188.39 132.754C183.569 129.767 185.16 121.25 185.16 121.25L189.089 120.474C189.089 120.474 190.844 122.094 194.715 125.343Z" fill="black"/>
<path d="M195.025 125.13L193.541 125.275L191.029 126.934C190.868 127.933 191.046 128.957 191.533 129.844C192.992 130.129 194.481 130.23 195.966 130.145C196.962 129.664 197.756 128.846 198.207 127.836L196.364 125.479L195.025 125.13Z" fill="#263238"/>
<path d="M195.025 125.13C196.888 127.462 198.318 130.11 199.244 132.948C206.141 129.708 210.157 121.968 210.157 121.968L206.83 119.058C206.83 119.058 198.818 121.813 195.025 125.13Z" fill="#507BA0"/>
<path d="M195.025 125.13C192.363 126.809 190.035 128.967 188.157 131.493C183.307 128.515 185.16 120.493 185.16 120.493L189.089 119.717C189.089 119.717 191.164 121.9 195.025 125.13Z" fill="#507BA0"/>
<path opacity="0.2" d="M202.426 103.528L194.86 109.174C195.089 110.34 195.216 111.525 195.238 112.714C197.964 112.51 201.883 109.804 202.358 106.972C202.586 105.837 202.609 104.671 202.426 103.528Z" fill="black"/>
<path d="M209.032 90.1324C207.936 98.6975 207.732 103.712 203.095 107.893C196.121 114.091 185.771 109.455 184.287 100.735C182.948 92.8872 184.966 80.1996 193.609 77.3381C195.512 76.6967 197.547 76.5526 199.521 76.9194C201.495 77.2862 203.343 78.1518 204.889 79.4338C206.434 80.7159 207.626 82.3719 208.351 84.2444C209.076 86.117 209.311 88.1438 209.032 90.1324Z" fill="#FFB573"/>
<path d="M206.936 97.873C204.996 96.0009 206.209 87.0381 207.189 84.4676C202.339 84.9332 186.664 84.9138 187.255 80.5876C187.847 76.2614 193.55 72.5851 202.872 75.6212C210.632 78.1529 212.572 82.0232 212.572 85.1854C212.689 91.6844 206.936 97.873 206.936 97.873Z" fill="#263238"/>
<path d="M212.039 97.97C211.117 99.7305 209.544 101.06 207.654 101.675C205.181 102.442 203.959 100.162 204.657 97.7178C205.278 95.5256 207.325 92.4701 209.798 92.7805C212.272 93.0909 213.174 95.7875 212.039 97.97Z" fill="#FFB573"/>
<path d="M142.878 378.358L157.263 381.53C157.263 381.53 171.25 326.715 175.402 299.924C176.673 291.776 179.621 280.146 182.308 267.914C185.694 252.491 189.952 235.807 193.444 222.741C197.13 208.977 199.865 199.083 199.865 199.083L169.495 197.075C169.495 197.075 155.362 268.768 152.51 295.161C149.532 322.593 142.878 378.358 142.878 378.358Z" fill="#263238"/>
<path opacity="0.2" d="M182.308 267.895C185.694 252.472 189.952 235.788 193.444 222.722L190.253 215.932C182.716 224.933 180.785 252.782 182.308 267.895Z" fill="black"/>
<path d="M183.967 198.006C183.967 198.006 190.253 271.27 192.697 296.636C195.413 324.416 202.698 381.326 202.698 381.326H217.306C217.306 381.326 217.965 320.721 215.366 293.891C214.997 241.142 215.919 200.121 215.919 200.121L183.967 198.006Z" fill="#263238"/>
<path d="M200.835 381.666H219.595V376.059L200.108 374.983L200.835 381.666Z" fill="#507BA0"/>
<path d="M140.996 378.3L158.136 382.083L159.358 376.544L141.413 372.024L140.996 378.3Z" fill="#507BA0"/>
<path d="M196.509 91.665C196.509 92.3634 196.053 92.9066 195.597 92.8775C195.141 92.8484 194.802 92.2567 194.85 91.5583C194.899 90.8599 195.306 90.3167 195.762 90.3458C196.218 90.3749 196.558 90.9666 196.509 91.665Z" fill="#263238"/>
<path d="M188.594 91.18C188.594 91.8784 188.138 92.4216 187.682 92.3925C187.226 92.3634 186.887 91.7717 186.935 91.0733C186.984 90.3749 187.391 89.8317 187.847 89.8608C188.303 89.8899 188.642 90.4428 188.594 91.18Z" fill="#263238"/>
<path d="M190.408 91.665C189.43 93.7459 188.173 95.6843 186.673 97.4268C187.828 98.6684 189.971 98.2804 189.971 98.2804L190.408 91.665Z" fill="#ED893E"/>
<path d="M192.804 100.347C193.59 100.302 194.359 100.099 195.064 99.7487C195.769 99.3985 196.396 98.9089 196.907 98.3095C196.943 98.2716 196.963 98.2212 196.963 98.1689C196.963 98.1165 196.943 98.0661 196.907 98.0282C196.867 97.9914 196.815 97.9709 196.761 97.9709C196.707 97.9709 196.655 97.9914 196.616 98.0282C196.04 98.6854 195.317 99.1982 194.507 99.525C193.697 99.8519 192.821 99.9838 191.95 99.91C191.923 99.9073 191.896 99.91 191.87 99.9178C191.845 99.9257 191.821 99.9385 191.8 99.9557C191.779 99.9728 191.762 99.9939 191.75 100.018C191.737 100.041 191.729 100.068 191.727 100.094C191.724 100.149 191.743 100.203 191.779 100.245C191.815 100.286 191.866 100.312 191.921 100.317C192.214 100.345 192.509 100.355 192.804 100.347Z" fill="#263238"/>
<path d="M198.439 89.24C198.508 89.2321 198.575 89.2089 198.633 89.1721C198.725 89.1125 198.79 89.0189 198.814 88.9118C198.837 88.8047 198.818 88.6926 198.759 88.5998C198.413 88.0417 197.938 87.5745 197.375 87.237C196.811 86.8996 196.175 86.7017 195.52 86.6598C195.421 86.675 195.331 86.7249 195.266 86.8005C195.202 86.8761 195.166 86.9724 195.166 87.0721C195.166 87.1717 195.202 87.268 195.266 87.3436C195.331 87.4193 195.421 87.4692 195.52 87.4843C196.037 87.5226 196.539 87.6832 196.982 87.953C197.426 88.2228 197.799 88.5941 198.071 89.0363C198.107 89.1014 198.161 89.1549 198.226 89.191C198.291 89.227 198.365 89.244 198.439 89.24Z" fill="#263238"/>
<path d="M184.685 88.2021C184.752 88.1974 184.817 88.1764 184.875 88.1409C184.932 88.1054 184.98 88.0565 185.015 87.9984C185.262 87.5476 185.612 87.1616 186.037 86.8717C186.462 86.5818 186.949 86.3962 187.459 86.33C187.567 86.3202 187.667 86.2696 187.739 86.1885C187.811 86.1074 187.85 86.0019 187.847 85.8935C187.839 85.7846 187.79 85.6829 187.708 85.6104C187.626 85.5378 187.519 85.5002 187.41 85.5055C186.759 85.5842 186.136 85.8182 185.595 86.1879C185.053 86.5576 184.608 87.0521 184.297 87.6298C184.244 87.7238 184.231 87.8347 184.26 87.9382C184.289 88.0418 184.358 88.1297 184.452 88.1827C184.525 88.2157 184.607 88.2226 184.685 88.2021Z" fill="#263238"/>
<path d="M202.154 393.597C202.927 393.578 203.694 393.474 204.444 393.286C204.483 393.277 204.519 393.257 204.546 393.228C204.574 393.198 204.592 393.161 204.599 393.122C204.609 393.084 204.607 393.044 204.593 393.007C204.579 392.97 204.554 392.939 204.521 392.918C204.211 392.714 201.475 390.978 200.486 391.482C200.379 391.538 200.288 391.622 200.224 391.724C200.159 391.826 200.122 391.943 200.117 392.064C200.083 392.264 200.1 392.469 200.166 392.661C200.232 392.853 200.345 393.024 200.496 393.16C200.982 393.493 201.568 393.647 202.154 393.597ZM203.852 392.995C202.368 393.296 201.233 393.238 200.777 392.84C200.674 392.748 200.596 392.631 200.552 392.5C200.508 392.369 200.498 392.229 200.525 392.093C200.525 391.938 200.602 391.88 200.661 391.851C201.175 391.599 202.746 392.336 203.852 392.995Z" fill="#507BA0"/>
<path d="M204.395 393.296C204.429 393.31 204.468 393.31 204.502 393.296C204.535 393.278 204.562 393.252 204.581 393.219C204.6 393.187 204.609 393.149 204.609 393.112C204.609 393.005 204.502 390.493 203.522 389.668C203.404 389.565 203.265 389.488 203.114 389.442C202.964 389.397 202.805 389.385 202.649 389.406C202.494 389.407 202.343 389.46 202.222 389.557C202.1 389.653 202.015 389.789 201.98 389.94C201.757 390.91 203.415 392.85 204.298 393.306C204.331 393.313 204.365 393.309 204.395 393.296ZM202.785 389.765C202.958 389.767 203.123 389.833 203.251 389.95C203.871 390.473 204.094 391.938 204.162 392.675C203.299 391.996 202.222 390.551 202.378 389.979C202.378 389.93 202.378 389.804 202.688 389.775H202.785V389.765Z" fill="#507BA0"/>
<path d="M142.199 389.358L152.403 392.268C152.566 392.315 152.707 392.417 152.803 392.557C152.899 392.697 152.943 392.866 152.927 393.034L152.17 400.862C152.146 401.055 152.08 401.24 151.977 401.404C151.874 401.569 151.737 401.71 151.575 401.817C151.413 401.923 151.23 401.994 151.038 402.024C150.846 402.053 150.65 402.041 150.463 401.987C147.194 401.017 144.866 400.135 140.763 398.961C138.222 398.243 129.948 395.275 126.931 393.219C123.914 391.162 125.689 387.99 127.115 388.572C133.527 391.172 138.037 390.755 140.695 389.542C141.159 389.305 141.692 389.24 142.199 389.358Z" fill="#263238"/>
<path d="M138.949 390.018C139.699 390.204 140.466 390.311 141.238 390.338C141.28 390.34 141.321 390.331 141.358 390.31C141.394 390.289 141.423 390.258 141.442 390.221C141.465 390.189 141.477 390.15 141.477 390.11C141.477 390.07 141.465 390.031 141.442 389.998C141.2 389.727 139.036 387.321 137.96 387.525C137.84 387.551 137.729 387.608 137.637 387.689C137.546 387.771 137.476 387.874 137.436 387.99C137.352 388.172 137.314 388.371 137.326 388.571C137.338 388.771 137.399 388.965 137.504 389.135C137.874 389.582 138.382 389.893 138.949 390.018ZM140.753 389.901C139.24 389.785 138.163 389.416 137.843 388.931C137.778 388.811 137.744 388.676 137.744 388.538C137.744 388.401 137.778 388.266 137.843 388.145C137.902 387.99 137.979 387.961 138.047 387.951C138.6 387.825 139.861 388.97 140.753 389.94V389.901Z" fill="#507BA0"/>
<path d="M141.19 390.328C141.228 390.338 141.268 390.338 141.306 390.328C141.344 390.319 141.378 390.299 141.405 390.272C141.433 390.244 141.452 390.21 141.462 390.173C141.462 390.076 142.063 387.631 141.355 386.564C141.268 386.434 141.155 386.324 141.023 386.24C140.891 386.157 140.743 386.102 140.589 386.079C140.438 386.038 140.278 386.047 140.134 386.107C139.99 386.167 139.87 386.273 139.793 386.409C139.308 387.282 140.395 389.571 141.103 390.289C141.128 390.309 141.158 390.323 141.19 390.328ZM140.598 386.496C140.764 386.543 140.906 386.65 140.996 386.797C141.462 387.476 141.268 388.951 141.141 389.707C140.492 388.824 139.871 387.146 140.171 386.632C140.171 386.584 140.259 386.477 140.53 386.516L140.598 386.496Z" fill="#507BA0"/>
<path d="M207.79 119.97C207.687 119.953 207.581 119.96 207.481 119.99C207.381 120.021 207.29 120.073 207.213 120.144C207.136 120.216 207.077 120.303 207.039 120.4C207.001 120.498 206.986 120.603 206.995 120.707C207.334 125.906 199.235 135.257 197.295 163.261C196.14 180.294 195.083 233.401 195.859 261.027C195.87 261.389 195.964 261.745 196.133 262.065C196.302 262.386 196.543 262.664 196.835 262.878C197.128 263.093 197.466 263.237 197.823 263.301C198.179 263.365 198.546 263.347 198.895 263.248C213.212 259.252 219.973 268.942 222.728 257.516C222.583 243.829 218.441 194.689 219.508 183.039C220.575 171.389 225.008 139.738 226.113 131.299C227.093 123.966 211.796 120.697 207.79 119.97Z" fill="#507BA0"/>
<path opacity="0.7" d="M207.79 119.97C207.687 119.953 207.581 119.96 207.481 119.99C207.381 120.021 207.29 120.073 207.213 120.144C207.136 120.216 207.077 120.303 207.039 120.4C207.001 120.498 206.986 120.603 206.995 120.707C207.334 125.906 199.235 135.257 197.295 163.261C196.14 180.294 195.083 233.401 195.859 261.027C195.87 261.389 195.964 261.745 196.133 262.065C196.302 262.386 196.543 262.664 196.835 262.878C197.128 263.093 197.466 263.237 197.823 263.301C198.179 263.365 198.546 263.347 198.895 263.248C213.212 259.252 219.973 268.942 222.728 257.516C222.583 243.829 218.441 194.689 219.508 183.039C220.575 171.389 225.008 139.738 226.113 131.299C227.093 123.966 211.796 120.697 207.79 119.97Z" fill="white"/>
<path opacity="0.2" d="M217.228 143.706C216.598 148.032 216.355 165.511 220.517 173.921C221.215 168.101 222.127 161.185 223.009 154.521L217.228 143.706Z" fill="#507BA0"/>
<path d="M223.174 219.298L219.042 219.783L215.385 226.311C215.185 226.664 215.06 227.055 215.02 227.46C214.98 227.864 215.025 228.272 215.152 228.658L216.472 232.674C216.695 233.361 217.167 233.94 217.795 234.299C218.422 234.658 219.161 234.77 219.867 234.614L221.71 234.226C222.387 234.088 222.993 233.714 223.42 233.17C223.846 232.626 224.065 231.948 224.038 231.258L223.921 227.688C223.921 227.688 227.2 220.112 223.174 219.298Z" fill="#FFB573"/>
<path d="M225.444 128.04C226.763 131.92 227.986 135.752 229.198 139.632C230.411 143.512 231.623 147.392 232.768 151.272C233.912 155.152 235.018 159.119 236.037 163.164C236.541 165.191 237.007 167.238 237.453 169.381C237.656 170.458 237.86 171.554 238.025 172.718C238.103 173.32 238.19 173.873 238.238 174.542L238.326 175.512L238.374 176.608C238.394 176.976 238.394 177.345 238.374 177.714C238.374 178.102 238.374 178.47 238.326 178.771L238.238 179.741L238.132 180.614C237.996 181.788 237.821 182.855 237.647 183.922C237.298 186.036 236.89 188.073 236.473 190.091C235.639 194.126 234.708 198.074 233.767 202.003C232.826 205.931 231.827 209.85 230.857 213.759L227.947 225.486L213.901 221.674C216.074 214.098 218.053 206.387 219.886 198.724C220.778 194.844 221.613 191.042 222.36 187.249C222.728 185.309 223.077 183.466 223.33 181.642C223.475 180.73 223.591 179.828 223.669 179.014C223.744 178.37 223.77 177.721 223.747 177.074V176.666L223.679 176.142C223.679 175.813 223.562 175.376 223.504 174.998C223.368 174.183 223.194 173.32 223 172.437C222.602 170.672 222.127 168.848 221.613 167.015C220.643 163.338 219.411 159.614 218.159 155.908C215.686 148.497 212.902 141.038 210.031 133.782L225.444 128.04Z" fill="#507BA0"/>
<path opacity="0.7" d="M225.444 128.04C226.763 131.92 227.986 135.752 229.198 139.632C230.411 143.512 231.623 147.392 232.768 151.272C233.912 155.152 235.018 159.119 236.037 163.164C236.541 165.191 237.007 167.238 237.453 169.381C237.656 170.458 237.86 171.554 238.025 172.718C238.103 173.32 238.19 173.873 238.238 174.542L238.326 175.512L238.374 176.608C238.394 176.976 238.394 177.345 238.374 177.714C238.374 178.102 238.374 178.47 238.326 178.771L238.238 179.741L238.132 180.614C237.996 181.788 237.821 182.855 237.647 183.922C237.298 186.036 236.89 188.073 236.473 190.091C235.639 194.126 234.708 198.074 233.767 202.003C232.826 205.931 231.827 209.85 230.857 213.759L227.947 225.486L213.901 221.674C216.074 214.098 218.053 206.387 219.886 198.724C220.778 194.844 221.613 191.042 222.36 187.249C222.728 185.309 223.077 183.466 223.33 181.642C223.475 180.73 223.591 179.828 223.669 179.014C223.744 178.37 223.77 177.721 223.747 177.074V176.666L223.679 176.142C223.679 175.813 223.562 175.376 223.504 174.998C223.368 174.183 223.194 173.32 223 172.437C222.602 170.672 222.127 168.848 221.613 167.015C220.643 163.338 219.411 159.614 218.159 155.908C215.686 148.497 212.902 141.038 210.031 133.782L225.444 128.04Z" fill="white"/>
<path d="M188.924 119.242C189.137 119.241 189.346 119.3 189.527 119.412C189.708 119.525 189.853 119.687 189.946 119.879C190.038 120.071 190.074 120.286 190.05 120.497C190.025 120.709 189.941 120.91 189.806 121.075C187.498 123.753 186.043 127.429 183.307 139.224C180.009 153.454 172.987 225.05 171.667 260.135C171.661 260.426 171.591 260.713 171.463 260.975C171.335 261.237 171.152 261.468 170.926 261.652C170.7 261.837 170.437 261.97 170.155 262.043C169.873 262.116 169.578 262.127 169.291 262.075C162.443 260.814 157.748 264.131 157.001 259.737C156.176 254.887 159.251 208.56 165.003 186.773C164.101 167.451 167.361 128.69 173.869 123.539C177.4 120.678 184.908 119.31 188.924 119.242Z" fill="#507BA0"/>
<path opacity="0.7" d="M188.924 119.242C189.137 119.241 189.346 119.3 189.527 119.412C189.708 119.525 189.853 119.687 189.946 119.879C190.038 120.071 190.074 120.286 190.05 120.497C190.025 120.709 189.941 120.91 189.806 121.075C187.498 123.753 186.043 127.429 183.307 139.224C180.009 153.454 172.987 225.05 171.667 260.135C171.661 260.426 171.591 260.713 171.463 260.975C171.335 261.237 171.152 261.468 170.926 261.652C170.7 261.837 170.437 261.97 170.155 262.043C169.873 262.116 169.578 262.127 169.291 262.075C162.443 260.814 157.748 264.131 157.001 259.737C156.176 254.887 159.251 208.56 165.003 186.773C164.101 167.451 167.361 128.69 173.869 123.539C177.4 120.678 184.908 119.31 188.924 119.242Z" fill="white"/>
<path d="M192.697 128.855C192.697 128.855 184.316 152.397 181.367 172.127C181.135 177.491 183.686 187.879 185.752 192.409C190.068 183.01 192.765 177.471 193.192 172.127C193.88 164.085 195.015 129.01 195.015 129.01L192.697 128.855Z" fill="#263238"/>
<path d="M210.235 156.859C210.15 156.856 210.068 156.825 210.002 156.772C209.936 156.718 209.89 156.644 209.87 156.561C209.85 156.479 209.858 156.392 209.892 156.314C209.927 156.237 209.986 156.172 210.06 156.131L211.651 155.297C213.136 154.533 214.353 153.335 215.139 151.862C215.926 150.389 216.245 148.711 216.055 147.052L214.328 131.416C214.201 130.25 213.685 129.161 212.863 128.325C212.041 127.488 210.962 126.953 209.799 126.805C208.635 126.657 207.456 126.905 206.451 127.51C205.446 128.114 204.674 129.039 204.259 130.135L198.672 144.831C198.071 146.388 197.957 148.092 198.347 149.715C198.737 151.339 199.611 152.805 200.855 153.92L202.193 155.132C202.264 155.205 202.304 155.302 202.304 155.404C202.304 155.505 202.264 155.603 202.193 155.675C202.121 155.746 202.023 155.786 201.922 155.786C201.82 155.786 201.723 155.746 201.65 155.675L200.311 154.473C198.957 153.25 198.006 151.644 197.585 149.868C197.164 148.092 197.293 146.231 197.954 144.53L203.59 129.864C204.071 128.611 204.959 127.555 206.111 126.867C207.264 126.178 208.614 125.896 209.945 126.066C211.277 126.236 212.513 126.848 213.455 127.804C214.397 128.76 214.992 130.004 215.143 131.338L216.869 146.965C217.074 148.783 216.719 150.621 215.852 152.232C214.986 153.844 213.649 155.153 212.019 155.986L210.429 156.81C210.371 156.847 210.303 156.864 210.235 156.859Z" fill="#263238"/>
<path d="M215.046 134.83C214.953 134.831 214.864 134.798 214.794 134.737C214.724 134.676 214.679 134.592 214.667 134.5C214.442 133.243 213.803 132.096 212.853 131.242C211.902 130.388 210.694 129.876 209.42 129.786C207.266 129.514 204.337 130.193 203.163 133.026C203.146 133.076 203.119 133.122 203.084 133.162C203.049 133.201 203.006 133.233 202.957 133.255C202.909 133.277 202.857 133.289 202.804 133.29C202.751 133.291 202.699 133.282 202.65 133.262C202.601 133.242 202.556 133.212 202.519 133.175C202.482 133.137 202.453 133.092 202.434 133.042C202.414 132.993 202.406 132.94 202.408 132.887C202.41 132.835 202.423 132.783 202.445 132.735C203.101 131.466 204.131 130.43 205.396 129.767C206.66 129.103 208.098 128.844 209.515 129.025C210.931 129.206 212.258 129.818 213.315 130.779C214.372 131.739 215.108 133.001 215.424 134.394C215.438 134.493 215.412 134.593 215.352 134.673C215.292 134.753 215.203 134.806 215.104 134.82L215.046 134.83Z" fill="#263238"/>
<path d="M209.827 126.808C209.777 126.806 209.727 126.793 209.681 126.771C209.636 126.749 209.595 126.718 209.561 126.68C209.528 126.642 209.503 126.598 209.486 126.55C209.47 126.502 209.464 126.451 209.468 126.401C209.585 124.509 209.313 121.066 207.528 120.173C207.437 120.126 207.368 120.044 207.337 119.946C207.306 119.847 207.316 119.741 207.363 119.65C207.411 119.558 207.493 119.49 207.591 119.459C207.689 119.428 207.796 119.437 207.887 119.485C210.467 120.814 210.234 125.877 210.196 126.449C210.191 126.545 210.15 126.634 210.082 126.701C210.013 126.768 209.922 126.806 209.827 126.808Z" fill="#263238"/>
<path d="M202.795 155.52C202.698 156.248 202.242 156.781 201.766 156.713C201.291 156.645 200.981 156.025 201.078 155.307C201.175 154.589 201.621 154.046 202.096 154.114C202.571 154.182 202.882 154.802 202.795 155.52Z" fill="#263238"/>
<path d="M180.242 139.796C179.631 141.339 178.302 142.27 177.332 141.872C176.362 141.474 175.984 139.932 176.595 138.351C177.206 136.77 178.535 135.878 179.505 136.275C180.475 136.673 180.844 138.254 180.242 139.796Z" fill="#263238"/>
<path d="M177.051 138.797H176.973C176.873 138.776 176.785 138.717 176.729 138.631C176.673 138.546 176.652 138.442 176.673 138.341C177.953 131.969 183.249 121.851 187.915 118.941C187.957 118.905 188.007 118.878 188.061 118.862C188.114 118.847 188.171 118.843 188.226 118.851C188.281 118.86 188.334 118.88 188.381 118.911C188.428 118.941 188.467 118.982 188.497 119.029C188.527 119.076 188.546 119.13 188.553 119.185C188.56 119.241 188.555 119.297 188.539 119.35C188.522 119.404 188.494 119.453 188.457 119.495C188.42 119.536 188.374 119.569 188.322 119.591C183.812 122.433 178.68 132.201 177.429 138.477C177.413 138.566 177.367 138.647 177.298 138.706C177.229 138.764 177.141 138.796 177.051 138.797Z" fill="#263238"/>
<path d="M181.348 140.117C180.902 141.445 179.757 142.27 178.787 141.95C177.817 141.63 177.381 140.281 177.817 138.943C178.254 137.604 179.408 136.789 180.378 137.11C181.348 137.43 181.794 138.778 181.348 140.117Z" fill="white"/>
<path d="M181.416 140.252C180.824 141.892 179.728 143.007 178.981 142.736C178.234 142.464 178.108 140.912 178.71 139.263C179.311 137.614 180.397 136.508 181.144 136.78C181.891 137.051 182.017 138.603 181.416 140.252Z" fill="#263238"/>
<path d="M211.098 156.587C211.011 157.305 210.545 157.838 210.07 157.78C209.594 157.722 209.284 157.082 209.381 156.364C209.478 155.646 209.934 155.113 210.409 155.171C210.884 155.229 211.195 155.86 211.098 156.587Z" fill="#263238"/>
<path d="M266.097 114.557C269.337 123.413 260.723 127.865 255.078 140.912C249.432 153.958 263.051 169.517 283.954 169.857C304.858 170.196 305.518 150.175 302.278 135.81C299.038 121.444 305.809 119.106 304.373 108.136C302.53 93.7214 281.762 82.7992 273.517 96.03C266.184 95.3413 263.264 106.816 266.097 114.557Z" fill="#263238"/>
<path d="M328.012 233.77V232.645C327.993 232.105 327.857 231.575 327.614 231.093L324.103 224.167L319.99 223.391C317.08 226.524 319.99 232.771 319.99 232.771V233.77C319.99 234.588 320.258 235.385 320.751 236.037C321.245 236.69 321.938 237.164 322.725 237.388L323.278 237.553C323.848 237.703 324.444 237.718 325.021 237.596C325.597 237.475 326.137 237.22 326.597 236.852C327.057 236.485 327.424 236.014 327.67 235.479C327.916 234.944 328.033 234.359 328.012 233.77Z" fill="#FFC3BD"/>
<path d="M310.581 144.675L312.094 155.287L313.685 165.87C314.209 169.41 314.762 172.932 315.324 176.462L317.002 186.977L317.206 188.015C317.274 188.355 317.39 188.791 317.478 189.169L317.769 190.362L318.108 191.594C318.545 193.224 319.078 194.912 319.544 196.58C320.514 199.927 321.629 203.312 322.725 206.678C324.956 213.4 327.284 220.151 329.768 226.786L316.052 231.636L309.184 211.13C308.049 207.706 306.895 204.282 305.799 200.79C305.256 199.034 304.712 197.298 304.198 195.484L303.801 194.136L303.422 192.729C303.296 192.244 303.16 191.817 303.044 191.284L302.685 189.693L300.658 179.023C300.011 175.505 299.335 171.987 298.631 168.47L296.555 157.916L294.392 147.44L310.581 144.675Z" fill="#507BA0"/>
<path opacity="0.6" d="M310.581 144.675L312.094 155.287L313.685 165.87C314.209 169.41 314.762 172.932 315.324 176.462L317.002 186.977L317.206 188.015C317.274 188.355 317.39 188.791 317.478 189.169L317.769 190.362L318.108 191.594C318.545 193.224 319.078 194.912 319.544 196.58C320.514 199.927 321.629 203.312 322.725 206.678C324.956 213.4 327.284 220.151 329.768 226.786L316.052 231.636L309.184 211.13C308.049 207.706 306.895 204.282 305.799 200.79C305.256 199.034 304.712 197.298 304.198 195.484L303.801 194.136L303.422 192.729C303.296 192.244 303.16 191.817 303.044 191.284L302.685 189.693L300.658 179.023C300.011 175.505 299.335 171.987 298.631 168.47L296.555 157.916L294.392 147.44L310.581 144.675Z" fill="white"/>
<path d="M308.399 143.861C308.854 149.031 308.447 161.893 303.258 193.777H267.368C267.94 179.925 267.979 171.098 262.033 144.666C261.897 144.071 261.886 143.456 261.998 142.856C262.11 142.257 262.344 141.688 262.684 141.182C263.025 140.677 263.466 140.247 263.979 139.918C264.493 139.59 265.068 139.37 265.67 139.273C269.174 138.697 272.707 138.312 276.253 138.118C281.684 137.73 287.137 137.73 292.568 138.118C297.03 138.526 301.87 139.331 304.8 139.864C305.754 140.045 306.623 140.534 307.273 141.256C307.923 141.978 308.318 142.893 308.399 143.861Z" fill="#263238"/>
<path d="M277.834 119.746C278.862 124.994 279.89 134.617 276.214 138.118C276.214 138.118 280.812 143.705 287.854 143.705C294.896 143.705 292.539 138.118 292.539 138.118C286.719 136.721 286.835 132.376 287.854 128.302L277.834 119.746Z" fill="#FFC3BD"/>
<path opacity="0.2" d="M281.918 123.238L287.844 128.292C287.593 129.246 287.424 130.219 287.34 131.202C285.099 130.882 281.588 128.971 281.103 126.536C280.88 125.382 281.724 123.782 281.918 123.238Z" fill="black"/>
<path d="M271.655 109.445C273.023 118.117 273.42 121.813 278.251 125.867C285.526 131.968 295.876 128.389 297.127 119.485C298.252 111.472 295.818 98.6296 286.952 95.9815C284.999 95.3874 282.926 95.3024 280.931 95.7344C278.935 96.1664 277.084 97.1012 275.551 98.4501C274.019 99.7989 272.856 101.517 272.174 103.441C271.492 105.366 271.314 107.432 271.655 109.445Z" fill="#FFC3BD"/>
<path d="M273.1 115.692C278.067 110.774 279.774 103.936 279.308 101.142C284.09 102.471 287.602 100.589 287.388 99.7742C290.764 103.072 296.885 105.682 296.196 102.131C295.507 98.5811 290.977 92.0336 281.53 94.3713C272.082 96.709 268.444 106.409 268.58 110.347C268.716 114.285 273.1 115.692 273.1 115.692Z" fill="#263238"/>
<path d="M284.1 110.425C284.168 111.143 284.595 111.676 285.07 111.637C285.545 111.598 285.856 110.978 285.788 110.27C285.72 109.562 285.283 109.018 284.818 109.057C284.352 109.096 284.1 109.717 284.1 110.425Z" fill="#263238"/>
<path d="M292.161 109.659C292.229 110.367 292.665 110.91 293.131 110.861C293.596 110.813 293.916 110.211 293.848 109.503C293.781 108.795 293.344 108.252 292.878 108.291C292.413 108.33 292.093 108.95 292.161 109.659Z" fill="#263238"/>
<path d="M292.685 108.349L294.343 107.699C294.343 107.699 293.587 109.115 292.685 108.349Z" fill="#263238"/>
<path d="M289.813 111.172C290.598 112.733 291.593 114.179 292.772 115.469C292.434 115.761 292.038 115.976 291.609 116.1C291.18 116.224 290.73 116.254 290.289 116.187L289.813 111.172Z" fill="#ED847E"/>
<path d="M286.68 119.31C287.032 119.334 287.385 119.334 287.737 119.31C287.792 119.303 287.842 119.274 287.877 119.231C287.911 119.187 287.927 119.132 287.922 119.077C287.921 119.05 287.914 119.023 287.902 118.999C287.89 118.974 287.873 118.953 287.851 118.935C287.83 118.918 287.806 118.905 287.78 118.898C287.753 118.89 287.726 118.889 287.699 118.893C286.816 118.995 285.922 118.889 285.088 118.582C284.254 118.275 283.503 117.777 282.897 117.128C282.86 117.094 282.811 117.074 282.761 117.072C282.71 117.071 282.661 117.087 282.621 117.118C282.581 117.15 282.554 117.194 282.544 117.244C282.535 117.294 282.543 117.345 282.567 117.389C283.092 117.965 283.726 118.432 284.432 118.761C285.138 119.091 285.902 119.277 286.68 119.31Z" fill="#263238"/>
<path d="M269.734 116.497C270.382 118.067 271.623 119.318 273.187 119.979C275.263 120.833 276.573 119.009 276.214 116.943C275.894 115.003 274.419 112.316 272.227 112.355C271.75 112.378 271.286 112.519 270.876 112.764C270.466 113.009 270.122 113.352 269.876 113.761C269.629 114.17 269.488 114.634 269.463 115.111C269.438 115.588 269.531 116.064 269.734 116.497Z" fill="#FFC3BD"/>
<path d="M281.336 106.7C281.419 106.729 281.51 106.732 281.595 106.708C281.68 106.684 281.755 106.633 281.811 106.564C283.033 105.061 285.526 105.206 285.545 105.206C285.655 105.212 285.763 105.174 285.847 105.102C285.93 105.03 285.982 104.928 285.992 104.818C285.997 104.763 285.991 104.708 285.974 104.655C285.957 104.602 285.93 104.553 285.893 104.512C285.857 104.47 285.813 104.436 285.763 104.412C285.713 104.388 285.659 104.374 285.604 104.372C285.487 104.372 282.645 104.197 281.161 106.04C281.092 106.127 281.059 106.238 281.07 106.348C281.081 106.459 281.134 106.56 281.219 106.632L281.336 106.7Z" fill="#263238"/>
<path d="M295.08 105.817C295.172 105.823 295.264 105.798 295.34 105.746C295.416 105.694 295.473 105.619 295.502 105.531C295.531 105.444 295.53 105.349 295.499 105.262C295.468 105.175 295.41 105.101 295.333 105.051C294.79 104.668 294.163 104.42 293.506 104.327C292.848 104.234 292.177 104.299 291.55 104.517C291.448 104.562 291.367 104.645 291.325 104.749C291.284 104.852 291.284 104.967 291.327 105.07C291.348 105.122 291.379 105.168 291.418 105.207C291.458 105.247 291.505 105.277 291.556 105.298C291.608 105.319 291.663 105.329 291.718 105.328C291.774 105.328 291.829 105.316 291.879 105.294C292.378 105.127 292.909 105.082 293.428 105.161C293.948 105.241 294.441 105.442 294.867 105.749C294.931 105.791 295.004 105.814 295.08 105.817Z" fill="#263238"/>
<path d="M325.558 394.586L334.491 394.16L331.843 373.984L322.919 374.42L325.558 394.586Z" fill="#FFC3BD"/>
<g opacity="0.2">
<path d="M331.843 373.993L333.211 384.392L324.277 384.818L322.91 374.42L331.843 373.993Z" fill="black"/>
</g>
<path d="M303.257 193.777C303.257 193.777 314.5 261.919 319.078 288.488C323.851 316.113 334.598 381.132 334.598 381.132L322.784 383.072C322.784 383.072 306.856 317.985 300.474 290.922C293.548 261.386 276.767 221.781 276.941 193.854L303.257 193.777Z" fill="#507BA0"/>
<path opacity="0.2" d="M285.206 214.69C283.518 212.236 280.269 208.792 277.776 205.96C280.036 223.323 286.506 243.47 292.413 262.443C293.984 247.99 293.092 226.068 285.206 214.69Z" fill="black"/>
<path d="M270.442 393.219H279.289L279.88 372.732H271.024L270.442 393.219Z" fill="#FFC3BD"/>
<path d="M279.706 391.88H269.763C269.591 391.878 269.424 391.939 269.294 392.052C269.164 392.164 269.079 392.32 269.055 392.491L267.92 400.348C267.9 400.548 267.922 400.749 267.984 400.94C268.047 401.131 268.148 401.306 268.283 401.455C268.417 401.604 268.581 401.723 268.764 401.805C268.947 401.886 269.146 401.929 269.346 401.929C272.809 401.861 274.478 401.658 278.852 401.658C281.539 401.658 287.097 401.939 290.812 401.939C294.528 401.939 294.692 398.272 293.179 397.933C286.244 396.449 283.479 394.392 281.18 392.423C280.767 392.077 280.245 391.885 279.706 391.88Z" fill="#263238"/>
<g opacity="0.2">
<path d="M279.871 372.742L279.57 383.305H270.724L271.024 372.742H279.871Z" fill="black"/>
</g>
<path d="M293.16 193.777C293.16 193.777 289.571 262.792 287.146 289.661C284.614 317.617 281.568 380.967 281.568 380.967H269.599C269.599 380.967 267.465 317.859 268.299 290.292C269.201 260.222 261.974 221.703 266.853 193.777H293.16Z" fill="#507BA0"/>
<path d="M268.561 381.394L282.597 381.656L282.81 373.101L268.502 373.993L268.561 381.394Z" fill="#263238"/>
<path d="M283.023 393.461C283.779 393.531 284.536 393.339 285.167 392.918C285.31 392.791 285.419 392.63 285.485 392.451C285.551 392.272 285.572 392.079 285.545 391.89C285.538 391.776 285.503 391.665 285.442 391.568C285.381 391.472 285.296 391.392 285.196 391.337C284.11 390.735 280.579 392.54 280.181 392.753C280.144 392.774 280.114 392.805 280.095 392.843C280.076 392.881 280.069 392.924 280.075 392.966C280.08 393.009 280.099 393.049 280.129 393.081C280.158 393.112 280.197 393.133 280.239 393.141C281.155 393.336 282.087 393.444 283.023 393.461ZM284.604 391.628C284.738 391.624 284.871 391.651 284.992 391.705C285.033 391.727 285.068 391.759 285.091 391.798C285.115 391.837 285.128 391.882 285.128 391.929C285.15 392.052 285.138 392.178 285.096 392.295C285.053 392.413 284.981 392.517 284.886 392.598C284.352 393.083 282.897 393.17 280.938 392.84C282.082 392.229 283.322 391.819 284.604 391.628Z" fill="#507BA0"/>
<path d="M280.278 393.151H280.366C281.423 392.675 283.508 390.765 283.343 389.765C283.343 389.523 283.14 389.232 282.558 389.174C282.349 389.15 282.138 389.169 281.938 389.231C281.738 389.293 281.552 389.395 281.394 389.533C280.288 390.454 280.084 392.84 280.075 392.937C280.071 392.974 280.077 393.012 280.092 393.046C280.108 393.08 280.132 393.109 280.162 393.131C280.198 393.147 280.238 393.154 280.278 393.151ZM282.393 389.562H282.519C282.897 389.562 282.926 389.746 282.926 389.804C283.033 390.406 281.617 391.899 280.54 392.549C280.623 391.546 281.016 390.593 281.665 389.824C281.868 389.651 282.127 389.558 282.393 389.562Z" fill="#507BA0"/>
<path d="M334.385 391.88H324.442C324.362 391.875 324.283 391.888 324.208 391.917C324.134 391.947 324.067 391.992 324.012 392.051C323.958 392.109 323.917 392.179 323.892 392.255C323.867 392.331 323.86 392.412 323.87 392.491L324.374 400.348C324.433 400.775 324.641 401.167 324.96 401.456C325.279 401.745 325.69 401.913 326.12 401.929C329.574 401.861 331.203 401.658 335.568 401.658C338.265 401.658 343.881 401.939 347.596 401.939C351.311 401.939 350.739 398.272 349.129 397.933C341.883 396.449 338.721 394.392 335.976 392.423C335.513 392.084 334.958 391.894 334.385 391.88Z" fill="#263238"/>
<path d="M337.702 393.461C338.461 393.53 339.221 393.339 339.856 392.918C339.997 392.79 340.105 392.629 340.171 392.45C340.237 392.271 340.258 392.079 340.234 391.89C340.225 391.775 340.188 391.664 340.125 391.568C340.062 391.471 339.976 391.392 339.875 391.337C338.789 390.735 335.268 392.54 334.87 392.753C334.831 392.773 334.799 392.803 334.778 392.842C334.757 392.88 334.749 392.923 334.753 392.966C334.761 393.008 334.781 393.047 334.81 393.078C334.84 393.109 334.877 393.131 334.918 393.141C335.834 393.336 336.766 393.444 337.702 393.461ZM339.283 391.628C339.417 391.622 339.55 391.649 339.671 391.705C339.713 391.726 339.749 391.758 339.775 391.797C339.8 391.836 339.815 391.882 339.817 391.929C339.834 392.051 339.82 392.176 339.778 392.293C339.736 392.41 339.666 392.514 339.574 392.598C339.031 393.083 337.576 393.17 335.617 392.84C336.761 392.231 338.001 391.821 339.283 391.628Z" fill="#507BA0"/>
<path d="M334.967 393.151H335.054C336.102 392.675 338.187 390.765 338.022 389.765C338.022 389.523 337.819 389.232 337.237 389.174C337.03 389.15 336.82 389.169 336.622 389.231C336.423 389.293 336.239 389.396 336.082 389.533C334.967 390.454 334.763 392.84 334.753 392.937C334.752 392.974 334.76 393.011 334.775 393.044C334.79 393.078 334.812 393.108 334.841 393.131C334.881 393.148 334.924 393.154 334.967 393.151ZM337.072 389.562H337.198C337.576 389.562 337.605 389.746 337.615 389.804C337.712 390.406 336.296 391.899 335.219 392.549C335.306 391.547 335.699 390.595 336.344 389.824C336.548 389.652 336.806 389.559 337.072 389.562Z" fill="#507BA0"/>
<path d="M321.794 383.625L335.656 381.394L334.094 373.984L320.359 377.223L321.794 383.625Z" fill="#263238"/>
<path d="M284.653 109.115L286.312 108.465C286.312 108.465 285.565 109.882 284.653 109.115Z" fill="#263238"/>
<path d="M266.785 191.672L265.874 194.892C265.748 195.135 266.039 195.397 266.456 195.397H303.432C303.762 195.397 304.024 195.232 304.043 195.028L304.373 191.817C304.373 191.594 304.111 191.4 303.762 191.4H267.377C267.264 191.391 267.149 191.411 267.046 191.458C266.942 191.506 266.852 191.579 266.785 191.672Z" fill="#263238"/>
<path d="M271.8 195.736H270.83C270.636 195.736 270.491 195.639 270.501 195.523L270.957 191.342C270.957 191.216 271.141 191.119 271.335 191.119H272.305C272.499 191.119 272.644 191.216 272.635 191.342L272.169 195.523C272.159 195.639 271.994 195.736 271.8 195.736Z" fill="#507BA0"/>
<path d="M300.697 195.736H299.727C299.533 195.736 299.378 195.639 299.397 195.523L299.853 191.342C299.853 191.216 300.037 191.119 300.231 191.119H301.201C301.395 191.119 301.541 191.216 301.531 191.342L301.075 195.523C301.056 195.639 300.891 195.736 300.697 195.736Z" fill="#507BA0"/>
<path d="M286.302 195.736H285.332C285.138 195.736 284.992 195.639 285.002 195.523L285.458 191.342C285.458 191.216 285.642 191.119 285.836 191.119H286.806C287 191.119 287.146 191.216 287.126 191.342L286.671 195.523C286.671 195.639 286.496 195.736 286.302 195.736Z" fill="#507BA0"/>
<path d="M274.662 137.827C269.026 138.341 260.413 137.274 260.675 145.917C260.936 154.56 259.258 177.452 259.705 188.17C260.151 198.889 257.357 268.292 261.877 288.41C262.673 291.951 291.87 291.495 295.401 291.155V287.964C295.401 287.964 316.614 285.112 321.862 286.024C321.406 273.938 309.66 212.886 309.204 195.736C308.748 178.587 310.678 149.118 310.562 144.443C310.445 139.767 301.153 137.711 295.459 137.827C296.72 142.047 293.936 149.972 289.484 158.808C278.532 148.138 275.302 142.842 274.662 137.827Z" fill="#507BA0"/>
<path opacity="0.7" d="M274.662 137.827C269.026 138.341 260.413 137.274 260.675 145.917C260.936 154.56 259.258 177.452 259.705 188.17C260.151 198.889 257.357 268.292 261.877 288.41C262.673 291.951 291.87 291.495 295.401 291.155V287.964C295.401 287.964 316.614 285.112 321.862 286.024C321.406 273.938 309.66 212.886 309.204 195.736C308.748 178.587 310.678 149.118 310.562 144.443C310.445 139.767 301.153 137.711 295.459 137.827C296.72 142.047 293.936 149.972 289.484 158.808C278.532 148.138 275.302 142.842 274.662 137.827Z" fill="white"/>
<path opacity="0.2" d="M263.934 158.323L260.325 160.874C260.044 168.343 259.666 176.715 259.627 183.184C262.983 175.764 264.875 165.055 263.934 158.323Z" fill="#507BA0"/>
<path d="M275.428 150.573C275.245 150.845 275.048 151.108 274.836 151.359L274.633 151.592L274.526 151.708L274.332 151.912L273.944 152.329L273.168 153.192C272.644 153.764 272.14 154.356 271.635 154.957C270.627 156.16 269.657 157.386 268.725 158.634C266.823 161.126 265.052 163.716 263.42 166.394C260.212 171.336 257.894 176.802 256.571 182.544C256.327 183.825 256.175 185.122 256.115 186.424C256.176 187.072 256.364 187.702 256.668 188.277C257.9 190.884 259.381 193.366 261.092 195.688C262.886 198.249 264.923 200.741 267.009 203.205C268.056 204.447 269.143 205.65 270.239 206.843C271.335 208.036 272.479 209.258 273.546 210.315L263.09 220.423C261.819 219.036 260.694 217.775 259.52 216.446L256.096 212.44C253.826 209.753 251.644 206.959 249.49 204.03C247.152 200.936 245.131 197.615 243.457 194.116C242.967 193.033 242.549 191.918 242.206 190.78C242.004 190.102 241.845 189.412 241.73 188.713C241.656 188.313 241.604 187.908 241.575 187.501C241.536 187.075 241.52 186.648 241.527 186.221C241.55 184.138 241.728 182.059 242.06 180.003C242.732 176.118 243.818 172.317 245.3 168.664C246.694 165.205 248.315 161.841 250.15 158.595C251.935 155.394 253.894 152.338 255.921 149.351C256.95 147.857 257.997 146.392 259.093 144.947L260.752 142.784L261.615 141.698L262.052 141.154L262.275 140.892L262.372 140.766L262.236 140.922C262.062 141.145 261.897 141.368 261.741 141.601L275.428 150.573Z" fill="#507BA0"/>
<path opacity="0.7" d="M275.428 150.573C275.245 150.845 275.048 151.108 274.836 151.359L274.633 151.592L274.526 151.708L274.332 151.912L273.944 152.329L273.168 153.192C272.644 153.764 272.14 154.356 271.635 154.957C270.627 156.16 269.657 157.386 268.725 158.634C266.823 161.126 265.052 163.716 263.42 166.394C260.212 171.336 257.894 176.802 256.571 182.544C256.327 183.825 256.175 185.122 256.115 186.424C256.176 187.072 256.364 187.702 256.668 188.277C257.9 190.884 259.381 193.366 261.092 195.688C262.886 198.249 264.923 200.741 267.009 203.205C268.056 204.447 269.143 205.65 270.239 206.843C271.335 208.036 272.479 209.258 273.546 210.315L263.09 220.423C261.819 219.036 260.694 217.775 259.52 216.446L256.096 212.44C253.826 209.753 251.644 206.959 249.49 204.03C247.152 200.936 245.131 197.615 243.457 194.116C242.967 193.033 242.549 191.918 242.206 190.78C242.004 190.102 241.845 189.412 241.73 188.713C241.656 188.313 241.604 187.908 241.575 187.501C241.536 187.075 241.52 186.648 241.527 186.221C241.55 184.138 241.728 182.059 242.06 180.003C242.732 176.118 243.818 172.317 245.3 168.664C246.694 165.205 248.315 161.841 250.15 158.595C251.935 155.394 253.894 152.338 255.921 149.351C256.95 147.857 257.997 146.392 259.093 144.947L260.752 142.784L261.615 141.698L262.052 141.154L262.275 140.892L262.372 140.766L262.236 140.922C262.062 141.145 261.897 141.368 261.741 141.601L275.428 150.573Z" fill="white"/>
<path opacity="0.3" d="M289.493 158.808C290.512 179.508 296.041 251.696 295.41 287.964L297.098 287.741C297.098 287.741 294.479 231.966 293.296 207.561C292.112 183.155 289.493 158.808 289.493 158.808Z" fill="#507BA0"/>
<path opacity="0.3" d="M272.732 210.49L262.372 221.703C262.372 225.467 259.743 232.994 266.708 235.729C273.673 238.465 273.857 218.619 272.732 210.49Z" fill="#507BA0"/>
<path opacity="0.3" d="M306.507 210.141L311.066 221.567C311.202 225.447 312.531 233.207 309.834 236.166C307.138 239.124 306.352 218.551 306.507 210.141Z" fill="#507BA0"/>
<path d="M295.187 166.015L306.565 165.938C306.679 165.943 306.792 165.923 306.897 165.88C307.002 165.837 307.096 165.772 307.174 165.689C307.251 165.606 307.31 165.507 307.345 165.4C307.381 165.292 307.393 165.178 307.38 165.065L306.75 159.672C306.712 159.438 306.595 159.225 306.418 159.068C306.241 158.91 306.016 158.819 305.78 158.808L294.392 158.876C294.279 158.873 294.166 158.894 294.062 158.937C293.958 158.981 293.864 159.046 293.787 159.129C293.71 159.211 293.651 159.309 293.615 159.416C293.579 159.523 293.566 159.637 293.577 159.749L294.207 165.152C294.247 165.386 294.366 165.6 294.544 165.757C294.723 165.914 294.95 166.005 295.187 166.015Z" fill="white" stroke="#507BA0" stroke-width="0.5" stroke-miterlimit="10"/>
</svg>
