<svg width="293" height="247" viewBox="0 0 293 247" fill="none" xmlns="http://www.w3.org/2000/svg">
<path d="M22.63 191.892H25.3025C26.5274 187.801 27.3303 183.597 27.6987 179.343C28.281 171.468 24.4664 159.412 17.4792 155.373C10.492 151.335 6.70728 156.329 9.05128 160.599C11.3953 164.868 19.3007 177.014 19.4052 187.465L22.63 191.892Z" fill="#2D64BC"/>
<path d="M21.9881 191.892H22.7345C23.4639 186.734 23.4639 181.5 22.7345 176.342C21.5252 166.123 18.166 161.375 15.0456 158.075C14.9773 158.003 14.8831 157.961 14.7837 157.958C14.6843 157.955 14.5879 157.992 14.5156 158.06C14.4434 158.129 14.4012 158.223 14.3984 158.322C14.3956 158.422 14.4324 158.518 14.5007 158.59C17.5389 161.793 20.8086 166.421 21.9657 176.424C22.7052 181.553 22.7127 186.761 21.9881 191.892Z" fill="white"/>
<path d="M22.8465 191.892C21.473 185.412 15.2323 177.708 9.34241 176.379C2.51198 174.886 -0.809922 178.492 0.167987 181.605C1.1459 184.718 6.54306 186.166 11.7835 188.607C13.548 189.424 15.161 190.535 16.5536 191.892H22.8465Z" fill="#2D64BC"/>
<path d="M20.3607 191.892H21.1594C18.2705 184.628 11.7013 179.448 6.32658 178.97C6.27792 178.965 6.22873 178.969 6.18191 178.984C6.1351 178.998 6.09161 179.021 6.05402 179.053C6.01644 179.084 5.98552 179.122 5.96309 179.166C5.94067 179.209 5.92719 179.257 5.92347 179.306C5.91724 179.355 5.92115 179.404 5.93494 179.451C5.94874 179.499 5.97212 179.543 6.00364 179.58C6.03516 179.618 6.07414 179.649 6.11814 179.671C6.16215 179.693 6.21023 179.706 6.25939 179.709C11.3356 180.164 17.5389 185.031 20.3607 191.892Z" fill="white"/>
<path d="M263.823 123.595L269.414 126.529L269.884 123.027C267.115 115.219 269.391 106.366 272.385 102.678C275.378 98.9903 274.803 96.2805 273.721 95.0712C272.639 93.8619 268.533 92.9437 264.472 97.6914C260.411 102.439 259.478 108.202 260.157 114.017C260.59 117.653 262.501 121.385 263.823 123.595Z" fill="#2D64BC"/>
<path opacity="0.2" d="M263.823 123.595L269.414 126.529L269.884 123.027C267.115 115.219 269.391 106.366 272.385 102.678C275.378 98.9903 274.803 96.2805 273.721 95.0712C272.639 93.8619 268.533 92.9437 264.472 97.6914C260.411 102.439 259.478 108.202 260.157 114.017C260.59 117.653 262.501 121.385 263.823 123.595Z" fill="black"/>
<path d="M266.129 124.804L267.234 125.386C267.223 125.365 267.211 125.345 267.197 125.327C265.614 123.445 263.569 114.234 264.427 108.837C265.487 102.17 268.906 97.8183 271.832 95.9745C271.868 95.9524 271.899 95.9234 271.924 95.8891C271.948 95.8548 271.965 95.8159 271.974 95.7748C271.983 95.7337 271.984 95.6912 271.976 95.6499C271.969 95.6085 271.953 95.5691 271.929 95.534C271.882 95.4627 271.809 95.4126 271.725 95.3945C271.642 95.3764 271.554 95.3916 271.482 95.437C268.496 97.3555 264.883 101.857 263.785 108.74C262.994 113.763 264.577 121.721 266.129 124.804Z" fill="white"/>
<path d="M269.526 110.27C271.161 114.279 271.153 116.242 268.488 116.652C266.084 117.011 263.166 119.929 265.875 124.67L281.731 132.986C281.771 132.099 281.99 131.23 282.375 130.431C282.76 129.632 283.302 128.919 283.97 128.335C286.576 125.73 288.979 123.766 288.606 120.87C288.233 117.974 285.717 115.182 285.299 112.659C284.881 110.135 286.165 108.695 288.905 105.866C291.644 103.036 294.13 98.6469 290.472 96.6463C286.815 94.6457 282.627 98.0721 280.88 100.379C279.133 102.685 277.536 103.701 274.094 103.507C270.653 103.313 267.891 106.261 269.526 110.27Z" fill="#2D64BC"/>
<path d="M274.012 128.94C273.937 116.637 282.754 102.23 287.658 99.3188C287.73 99.2726 287.782 99.2004 287.803 99.1171C287.824 99.0338 287.812 98.9457 287.77 98.8709C287.725 98.799 287.654 98.7473 287.572 98.7264C287.49 98.7056 287.403 98.7172 287.33 98.7589C282.358 101.745 273.467 116.16 273.37 128.619L274.012 128.94Z" fill="white"/>
<path d="M276.371 116.152C276.304 116.168 276.233 116.16 276.171 116.13C276.108 116.1 276.058 116.05 276.028 115.988C274.604 113.331 273.405 110.559 272.445 107.702C272.432 107.662 272.427 107.619 272.431 107.577C272.434 107.535 272.446 107.494 272.466 107.457C272.485 107.42 272.512 107.386 272.544 107.359C272.576 107.332 272.613 107.312 272.654 107.299C272.694 107.286 272.736 107.281 272.778 107.285C272.82 107.289 272.861 107.3 272.898 107.32C272.936 107.339 272.969 107.366 272.996 107.398C273.023 107.43 273.044 107.468 273.057 107.508C274.008 110.326 275.192 113.06 276.595 115.682C276.635 115.758 276.643 115.847 276.618 115.93C276.593 116.012 276.536 116.081 276.461 116.122L276.371 116.152Z" fill="white"/>
<path d="M274.251 123.692C274.19 123.703 274.127 123.697 274.069 123.675C274.011 123.652 273.96 123.614 273.923 123.565C273.873 123.494 273.854 123.406 273.87 123.32C273.885 123.235 273.934 123.159 274.005 123.11C277.219 120.859 281.119 119.803 285.03 120.124C285.116 120.134 285.193 120.179 285.245 120.247C285.298 120.315 285.321 120.4 285.31 120.486C285.299 120.571 285.255 120.648 285.187 120.701C285.119 120.753 285.033 120.776 284.948 120.766C281.204 120.481 277.474 121.484 274.378 123.61C274.342 123.645 274.298 123.673 274.251 123.692Z" fill="white"/>
<path d="M180.566 48.5422L162.374 38.039L144.189 48.5422L162.374 59.0453L180.566 48.5422Z" fill="#F5F5F5"/>
<path d="M162.374 80.0592L180.566 69.556V48.5422L162.374 59.0453V80.0592Z" fill="#EBEBEB"/>
<path d="M165.882 73.0869C165.786 73.0887 165.691 73.0655 165.606 73.0197C165.49 72.9349 165.398 72.8218 165.337 72.6911C165.277 72.5605 165.252 72.4166 165.263 72.2732V70.0337V69.8695H165.375L167.122 68.8468V71.3326C167.119 71.6528 167.04 71.9677 166.891 72.2509C166.741 72.534 166.526 72.7772 166.263 72.96C166.15 73.0363 166.019 73.0802 165.882 73.0869ZM165.546 70.198V72.2583C165.534 72.3542 165.546 72.4516 165.581 72.5417C165.616 72.6317 165.674 72.7114 165.748 72.7734C165.808 72.8004 165.875 72.8105 165.941 72.8026C166.007 72.7947 166.069 72.7691 166.121 72.7286C166.345 72.5726 166.529 72.3665 166.658 72.1267C166.788 71.8869 166.86 71.6201 166.868 71.3476V71.1684H166.218L166.091 70.295L165.546 70.198ZM166.442 70.8847H166.845V69.3544L165.8 69.9591L166.315 70.0561L166.442 70.8847Z" fill="white"/>
<path d="M166.196 74.8636C166.158 74.8636 166.122 74.8486 166.096 74.822C166.069 74.7954 166.054 74.7594 166.054 74.7218V72.8555C166.053 72.8366 166.056 72.8177 166.063 72.8C166.069 72.7823 166.08 72.7662 166.093 72.7528C166.107 72.7394 166.123 72.729 166.14 72.7223C166.158 72.7155 166.177 72.7126 166.196 72.7137C166.234 72.7137 166.27 72.7286 166.296 72.7552C166.323 72.7818 166.338 72.8179 166.338 72.8555V74.6919C166.341 74.7127 166.34 74.7339 166.334 74.7542C166.328 74.7744 166.319 74.7933 166.305 74.8095C166.292 74.8257 166.275 74.8389 166.256 74.8482C166.238 74.8575 166.217 74.8628 166.196 74.8636Z" fill="white"/>
<path d="M165.382 75.3339C165.357 75.3337 165.333 75.3266 165.312 75.3135C165.291 75.3003 165.274 75.2815 165.263 75.2592C165.252 75.244 165.246 75.2266 165.243 75.2084C165.24 75.1902 165.241 75.1716 165.246 75.1538C165.251 75.136 165.259 75.1196 165.271 75.1055C165.283 75.0915 165.298 75.0803 165.315 75.0726L166.935 74.132C166.951 74.1227 166.969 74.1166 166.987 74.1142C167.006 74.1117 167.025 74.113 167.043 74.1178C167.061 74.1227 167.078 74.1311 167.093 74.1425C167.107 74.1539 167.12 74.1681 167.129 74.1843C167.146 74.2173 167.15 74.2555 167.14 74.2914C167.131 74.3273 167.108 74.3583 167.077 74.3784L165.449 75.3115L165.382 75.3339Z" fill="white"/>
<path d="M171.175 72.109C171.124 72.1246 171.069 72.1246 171.018 72.109C170.964 72.0724 170.92 72.0221 170.891 71.9631C170.862 71.9041 170.849 71.8386 170.854 71.7731V71.3924C170.853 71.3741 170.856 71.3558 170.862 71.3386C170.868 71.3215 170.878 71.3058 170.891 71.2925C170.903 71.2792 170.918 71.2686 170.935 71.2614C170.952 71.2542 170.97 71.2505 170.988 71.2505C171.007 71.2494 171.026 71.2524 171.044 71.2591C171.062 71.2659 171.078 71.2763 171.091 71.2897C171.105 71.3031 171.115 71.3191 171.122 71.3368C171.128 71.3545 171.131 71.3735 171.13 71.3924V71.7059C171.13 71.7656 171.13 71.7955 171.13 71.7955C171.13 71.7955 171.175 71.7955 171.22 71.7955C171.307 71.7166 171.375 71.6195 171.42 71.5111C171.466 71.4027 171.486 71.2857 171.481 71.1684V68.7199C171.481 68.7016 171.485 68.6835 171.492 68.6667C171.499 68.6499 171.51 68.6347 171.523 68.6222C171.536 68.6096 171.552 68.5998 171.569 68.5935C171.586 68.5873 171.605 68.5845 171.623 68.5856C171.659 68.5856 171.693 68.5997 171.718 68.6249C171.743 68.6501 171.757 68.6843 171.757 68.7199V71.2132C171.763 71.3794 171.73 71.5446 171.661 71.6961C171.593 71.8476 171.49 71.9812 171.362 72.0866C171.301 72.1058 171.238 72.1134 171.175 72.109Z" fill="white"/>
<path d="M169.697 69.9367V69.6978C169.732 69.0761 169.912 68.4713 170.223 67.9319C170.534 67.3925 170.968 66.9337 171.489 66.5924C171.675 66.4356 171.905 66.3399 172.148 66.3184C172.39 66.2968 172.634 66.3503 172.845 66.4718C173.056 66.5932 173.224 66.7767 173.328 66.9972C173.431 67.2178 173.464 67.4648 173.422 67.7047V67.7868L169.697 69.9367ZM172.325 66.6223C172.078 66.63 171.838 66.7048 171.63 66.8388C171.187 67.1312 170.811 67.5148 170.528 67.9641C170.245 68.4134 170.061 68.9179 169.988 69.444L173.138 67.63C173.15 67.4538 173.117 67.2776 173.041 67.1181C172.965 66.9586 172.85 66.8213 172.705 66.7193C172.589 66.6536 172.458 66.62 172.325 66.6223Z" fill="white"/>
<path d="M176.169 69.2425C176.133 69.2425 176.098 69.2286 176.071 69.2036C176.045 69.1786 176.029 69.1444 176.027 69.1081V64.3455C176.027 64.3078 176.042 64.2718 176.069 64.2452C176.095 64.2186 176.131 64.2036 176.169 64.2036C176.207 64.2036 176.243 64.2186 176.269 64.2452C176.296 64.2718 176.311 64.3078 176.311 64.3455V69.1081C176.309 69.1444 176.293 69.1786 176.267 69.2036C176.24 69.2286 176.205 69.2425 176.169 69.2425Z" fill="white"/>
<path d="M175.788 65.4279H175.736C175.719 65.4205 175.703 65.4099 175.69 65.3966C175.677 65.3832 175.667 65.3674 175.66 65.3501C175.653 65.3327 175.65 65.3142 175.65 65.2955C175.65 65.2768 175.654 65.2584 175.661 65.2412L176.162 64.0916L176.714 64.7336C176.726 64.7474 176.735 64.7633 176.74 64.7804C176.746 64.7976 176.748 64.8157 176.747 64.8338C176.745 64.8518 176.74 64.8694 176.732 64.8855C176.724 64.9016 176.713 64.916 176.699 64.9277C176.685 64.9395 176.669 64.9484 176.652 64.954C176.635 64.9597 176.617 64.9618 176.599 64.9605C176.581 64.9591 176.563 64.9541 176.547 64.946C176.531 64.9378 176.517 64.9265 176.505 64.9128L176.236 64.6142L175.915 65.3607C175.903 65.3827 175.884 65.4008 175.862 65.4126C175.839 65.4245 175.814 65.4298 175.788 65.4279Z" fill="white"/>
<path d="M177.49 68.5109C177.454 68.509 177.42 68.4932 177.395 68.4668C177.37 68.4404 177.356 68.4054 177.356 68.3691V63.6064C177.351 63.5856 177.351 63.564 177.356 63.5431C177.36 63.5223 177.37 63.5028 177.383 63.486C177.396 63.4693 177.413 63.4557 177.432 63.4464C177.452 63.4371 177.473 63.4323 177.494 63.4323C177.515 63.4323 177.537 63.4371 177.556 63.4464C177.575 63.4557 177.592 63.4693 177.605 63.486C177.619 63.5028 177.628 63.5223 177.633 63.5431C177.637 63.564 177.637 63.5856 177.632 63.6064V68.3691C177.632 68.4067 177.617 68.4428 177.591 68.4694C177.564 68.496 177.528 68.5109 177.49 68.5109Z" fill="white"/>
<path d="M177.08 64.6889H177.028C177.01 64.6815 176.995 64.6709 176.982 64.6575C176.969 64.6442 176.958 64.6284 176.951 64.6111C176.945 64.5937 176.941 64.5752 176.941 64.5565C176.942 64.5378 176.945 64.5194 176.953 64.5022L177.453 63.3526L178.005 63.9946C178.03 64.0209 178.044 64.0556 178.044 64.0917C178.044 64.1277 178.03 64.1624 178.005 64.1887C177.978 64.2139 177.942 64.2279 177.905 64.2279C177.867 64.2279 177.831 64.2139 177.804 64.1887L177.543 63.8826L177.222 64.6291C177.206 64.6517 177.185 64.6693 177.16 64.6799C177.134 64.6905 177.107 64.6936 177.08 64.6889Z" fill="white"/>
<path d="M162.374 80.0592L144.182 69.556L144.189 48.5422L162.374 59.0453V80.0592Z" fill="#E0E0E0"/>
<path d="M154.267 54.3648L172.444 43.8542L170.391 42.6673L152.207 53.1779L154.267 54.3648Z" fill="white"/>
<path d="M146.944 60.5906L153.461 64.3231C153.836 64.57 154.147 64.9011 154.372 65.2899C154.596 65.6787 154.726 66.1145 154.752 66.5626V70.5787C154.752 71.4073 154.17 71.7432 153.461 71.3252L146.944 67.5927C146.569 67.3462 146.256 67.0153 146.032 66.6264C145.808 66.2375 145.678 65.8015 145.652 65.3532V61.3371C145.652 60.5085 146.235 60.18 146.944 60.5906Z" fill="#2D64BC"/>
<path d="M146.444 61.5909L146.69 61.7402V66.1968L146.444 66.0549V61.5909Z" fill="#2D64BC"/>
<path d="M147.451 62.1732L147.877 62.427V66.8836L147.451 66.6372V62.1732Z" fill="#2D64BC"/>
<path d="M148.459 62.7554L148.706 62.8973V67.3613L148.459 67.2195V62.7554Z" fill="#2D64BC"/>
<path d="M149.213 63.1884L149.713 63.4795V67.9436L149.213 67.645V63.1884Z" fill="#2D64BC"/>
<path d="M150.467 63.92L150.721 64.0618V68.5258L150.467 68.3765V63.92Z" fill="#2D64BC"/>
<path d="M151.199 64.3305L151.721 64.644V69.1006L151.191 68.7871L151.199 64.3305Z" fill="#2D64BC"/>
<path d="M152.483 65.0845L152.729 65.2263V69.6829L152.483 69.5411V65.0845Z" fill="#2D64BC"/>
<path d="M153.058 65.4055L153.185 65.4802V69.9367L153.058 69.8695V65.4055Z" fill="#2D64BC"/>
<path d="M152.027 64.8382L152.147 64.9128V69.3694L152.027 69.3022V64.8382Z" fill="#2D64BC"/>
<path d="M149.997 63.6512L150.116 63.7184V68.1825L149.997 68.1078V63.6512Z" fill="#2D64BC"/>
<path d="M148.885 63.0092L149.012 63.0839V67.5479L148.885 67.4733V63.0092Z" fill="#2D64BC"/>
<path d="M148.086 62.5688L148.213 62.6435V67.1075L148.086 67.0328V62.5688Z" fill="#2D64BC"/>
<path d="M147.004 61.9119L147.13 61.9865V66.4506L147.004 66.3759V61.9119Z" fill="#2D64BC"/>
<path d="M153.491 65.6593L153.737 65.8011V70.2652L153.491 70.1233V65.6593Z" fill="#2D64BC"/>
<path d="M156.312 45.0411L135.082 32.7911L113.859 45.0411L135.082 57.2985L156.312 45.0411Z" fill="#F5F5F5"/>
<path d="M125.982 52.0432L147.213 39.7932L145.152 38.6063L123.929 50.8563L125.982 52.0432Z" fill="white"/>
<path d="M135.082 95.8102L156.312 83.5603V45.0411L135.082 57.2986V95.8102Z" fill="#EBEBEB"/>
<path d="M138.591 88.8753C138.493 88.877 138.398 88.8511 138.314 88.8006C138.197 88.7173 138.103 88.6045 138.043 88.4734C137.982 88.3424 137.958 88.1978 137.971 88.0541V85.8146V85.6504H138.09L139.83 84.6277V87.1135C139.826 87.4335 139.746 87.7479 139.597 88.0309C139.448 88.3139 139.233 88.5573 138.971 88.7409C138.859 88.8198 138.727 88.8663 138.591 88.8753ZM138.255 85.9863V88.0467C138.242 88.1425 138.254 88.24 138.289 88.33C138.325 88.4201 138.382 88.4998 138.456 88.5617C138.517 88.5888 138.583 88.5989 138.649 88.591C138.715 88.5831 138.777 88.5575 138.829 88.517C139.053 88.361 139.237 88.1548 139.367 87.915C139.496 87.6752 139.568 87.4084 139.576 87.1359V86.9568H138.926L138.8 86.0834L138.255 85.9863ZM139.15 86.6731H139.591V85.1428L138.546 85.7549L139.061 85.8445L139.15 86.6731Z" fill="white"/>
<path d="M138.904 90.6221C138.866 90.6221 138.83 90.6071 138.804 90.5805C138.777 90.5539 138.762 90.5179 138.762 90.4803V88.6066C138.762 88.5883 138.766 88.5702 138.773 88.5534C138.78 88.5365 138.791 88.5214 138.804 88.5088C138.817 88.4962 138.833 88.4865 138.85 88.4802C138.868 88.4739 138.886 88.4712 138.904 88.4722C138.94 88.4721 138.975 88.4861 139.002 88.5111C139.028 88.5361 139.044 88.5702 139.046 88.6066V90.4803C139.044 90.5173 139.029 90.5523 139.002 90.5785C138.976 90.6048 138.941 90.6203 138.904 90.6221Z" fill="white"/>
<path d="M138.098 91.1148C138.074 91.1153 138.05 91.1094 138.029 91.0975C138.008 91.0857 137.99 91.0685 137.978 91.0476C137.961 91.0145 137.957 90.9763 137.967 90.9404C137.977 90.9045 137.999 90.8735 138.031 90.8535L139.651 89.9204C139.667 89.911 139.685 89.905 139.703 89.9025C139.722 89.9001 139.74 89.9013 139.758 89.9062C139.776 89.911 139.793 89.9194 139.808 89.9308C139.823 89.9422 139.835 89.9564 139.845 89.9726C139.854 89.9882 139.86 90.0055 139.862 90.0235C139.864 90.0414 139.863 90.0596 139.858 90.0771C139.853 90.0945 139.845 90.1108 139.834 90.1249C139.822 90.139 139.808 90.1507 139.792 90.1592L138.165 91.0998C138.145 91.1117 138.121 91.117 138.098 91.1148Z" fill="white"/>
<path d="M143.883 87.8675C143.829 87.8677 143.775 87.8549 143.726 87.8302C143.672 87.7936 143.628 87.7433 143.599 87.6843C143.57 87.6253 143.558 87.5598 143.562 87.4943V87.1061C143.562 87.0878 143.566 87.0697 143.573 87.0529C143.58 87.0361 143.591 87.0209 143.604 87.0084C143.617 86.9958 143.633 86.986 143.65 86.9797C143.667 86.9734 143.686 86.9707 143.704 86.9717C143.722 86.9717 143.739 86.9752 143.755 86.982C143.772 86.9887 143.787 86.9986 143.799 87.0111C143.812 87.0236 143.821 87.0384 143.828 87.0547C143.835 87.071 143.838 87.0885 143.838 87.1061V87.4943C143.838 87.5465 143.838 87.5764 143.838 87.5839C143.838 87.5913 143.883 87.5839 143.928 87.5839C144.015 87.5035 144.084 87.4051 144.129 87.2955C144.174 87.1859 144.195 87.0677 144.189 86.9493V84.4635C144.189 84.4259 144.204 84.3898 144.231 84.3632C144.257 84.3366 144.293 84.3217 144.331 84.3217C144.368 84.3235 144.403 84.339 144.429 84.3652C144.456 84.3914 144.471 84.4265 144.473 84.4635V86.9493C144.48 87.1165 144.447 87.2829 144.377 87.4348C144.307 87.5867 144.202 87.7197 144.07 87.8227C144.012 87.8517 143.948 87.867 143.883 87.8675Z" fill="white"/>
<path d="M142.405 85.6952V85.4489C142.44 84.8283 142.621 84.2247 142.932 83.6866C143.243 83.1486 143.676 82.6911 144.197 82.3509C144.383 82.1941 144.613 82.0984 144.856 82.0769C145.098 82.0553 145.342 82.1088 145.553 82.2303C145.764 82.3517 145.932 82.5352 146.036 82.7557C146.139 82.9763 146.172 83.2233 146.13 83.4632V83.5453L142.405 85.6952ZM145.033 82.3733C144.787 82.3846 144.547 82.4591 144.339 82.5898C143.894 82.883 143.518 83.2678 143.235 83.7185C142.951 84.1691 142.768 84.6751 142.696 85.2025L145.846 83.3885C145.858 83.2114 145.824 83.0343 145.748 82.8738C145.672 82.7133 145.557 82.5745 145.413 82.4703C145.297 82.4068 145.166 82.3734 145.033 82.3733Z" fill="white"/>
<path d="M148.907 85.001C148.869 85.001 148.833 84.986 148.807 84.9594C148.78 84.9328 148.765 84.8967 148.765 84.8591V80.0965C148.765 80.0589 148.78 80.0228 148.807 79.9962C148.833 79.9696 148.869 79.9547 148.907 79.9547C148.945 79.9547 148.981 79.9696 149.007 79.9962C149.034 80.0228 149.049 80.0589 149.049 80.0965V84.8591C149.049 84.8967 149.034 84.9328 149.007 84.9594C148.981 84.986 148.945 85.001 148.907 85.001Z" fill="white"/>
<path d="M148.497 81.1864H148.444C148.427 81.1799 148.412 81.17 148.399 81.1573C148.386 81.1446 148.376 81.1295 148.369 81.1128C148.362 81.096 148.358 81.078 148.358 81.0599C148.359 81.0418 148.362 81.0239 148.37 81.0072L148.87 79.8576L149.422 80.4996C149.446 80.5273 149.458 80.5634 149.455 80.5998C149.452 80.6362 149.435 80.6699 149.407 80.6937C149.38 80.7175 149.344 80.7292 149.307 80.7264C149.271 80.7236 149.237 80.7065 149.213 80.6788L148.944 80.3727L148.623 81.1192C148.611 81.1413 148.592 81.1593 148.57 81.1712C148.547 81.1831 148.522 81.1883 148.497 81.1864Z" fill="white"/>
<path d="M150.199 84.2619C150.163 84.2619 150.129 84.2478 150.104 84.2226C150.078 84.1974 150.064 84.1632 150.064 84.1276V79.3649C150.063 79.3467 150.066 79.3284 150.072 79.3112C150.078 79.294 150.088 79.2783 150.101 79.2651C150.113 79.2518 150.129 79.2412 150.145 79.234C150.162 79.2268 150.18 79.2231 150.199 79.2231C150.217 79.222 150.236 79.2249 150.254 79.2317C150.272 79.2384 150.288 79.2488 150.301 79.2622C150.315 79.2756 150.325 79.2917 150.332 79.3094C150.339 79.3271 150.341 79.346 150.34 79.3649V84.1276C150.34 84.1459 150.337 84.164 150.329 84.1808C150.322 84.1976 150.312 84.2127 150.298 84.2253C150.285 84.2379 150.269 84.2476 150.252 84.2539C150.235 84.2602 150.217 84.263 150.199 84.2619Z" fill="white"/>
<path d="M149.795 80.4474H149.736C149.702 80.4311 149.676 80.403 149.662 80.3685C149.648 80.334 149.648 80.2956 149.661 80.2607L150.161 79.1111L150.721 79.7531C150.744 79.7802 150.757 79.8146 150.757 79.8502C150.757 79.8857 150.744 79.9202 150.721 79.9472C150.708 79.9605 150.692 79.9711 150.675 79.9783C150.658 79.9855 150.639 79.9892 150.62 79.9892C150.602 79.9892 150.583 79.9855 150.566 79.9783C150.548 79.9711 150.533 79.9605 150.52 79.9472L150.258 79.6411L149.937 80.3876C149.923 80.4109 149.901 80.4291 149.876 80.4398C149.85 80.4505 149.822 80.4531 149.795 80.4474Z" fill="white"/>
<path d="M135.082 95.8102L113.859 83.5603V45.0411L135.082 57.2986V95.8102Z" fill="#E0E0E0"/>
<path d="M118.174 75.5503L124.683 79.2828C125.06 79.5285 125.374 79.8591 125.599 80.248C125.825 80.637 125.956 81.0734 125.982 81.5223V85.5459C125.982 86.3671 125.4 86.703 124.683 86.2924L118.174 82.5599C117.797 82.3148 117.484 81.9841 117.26 81.5949C117.035 81.2058 116.906 80.7691 116.882 80.3204V76.3043C116.882 75.4384 117.465 75.1398 118.174 75.5503Z" fill="#F5F5F5"/>
<path d="M117.674 76.5507L117.92 76.7V81.1565L117.674 81.0147V76.5507Z" fill="#E0E0E0"/>
<path d="M118.682 77.1329L119.107 77.3867V81.8508L118.682 81.597V77.1329Z" fill="#E0E0E0"/>
<path d="M119.682 77.7152L119.936 77.857L119.928 82.3211L119.682 82.1792V77.7152Z" fill="#E0E0E0"/>
<path d="M120.443 78.1481L120.936 78.4393V82.9033L120.443 82.6047V78.1481Z" fill="#E0E0E0"/>
<path d="M121.697 78.8797L121.944 79.0216V83.4856L121.697 83.3363V78.8797Z" fill="#E0E0E0"/>
<path d="M122.421 79.2903L122.951 79.6038V84.0604L122.421 83.7469V79.2903Z" fill="#E0E0E0"/>
<path d="M123.713 80.0368L123.959 80.1861V84.6427L123.713 84.5008V80.0368Z" fill="#E0E0E0"/>
<path d="M124.288 80.3652L124.415 80.4399V84.9039L124.288 84.8293V80.3652Z" fill="#E0E0E0"/>
<path d="M123.258 79.7979L123.377 79.8726V84.3291L123.258 84.262V79.7979Z" fill="#E0E0E0"/>
<path d="M121.227 78.611L121.346 78.6782V83.1422L121.227 83.0676V78.611Z" fill="#E0E0E0"/>
<path d="M120.115 77.969L120.234 78.0436V82.5077L120.115 82.433V77.969Z" fill="#E0E0E0"/>
<path d="M119.316 77.5286L119.443 77.6032V82.0673L119.316 81.9926V77.5286Z" fill="#E0E0E0"/>
<path d="M118.234 76.8716L118.361 76.9463V81.4103L118.234 81.3357V76.8716Z" fill="#E0E0E0"/>
<path d="M124.721 80.619L124.967 80.7609V85.2249L124.721 85.0831V80.619Z" fill="#E0E0E0"/>
<path d="M123.929 55.828L125.982 57.0149V52.0432L123.929 50.8563V55.828Z" fill="#F0F0F0"/>
<path d="M92.6289 85.307L77.4675 76.5581L56.2447 88.8081L71.406 97.5645L92.6289 85.307Z" fill="#F5F5F5"/>
<path d="M71.406 132.575L92.6289 120.325V85.3071L71.406 97.5645V132.575Z" fill="#EBEBEB"/>
<path d="M74.9071 125.61C74.8121 125.612 74.7187 125.586 74.6384 125.536C74.5211 125.452 74.4278 125.339 74.3676 125.208C74.3074 125.077 74.2823 124.933 74.295 124.789V122.55V122.385H74.4069L76.1537 121.363V123.849C76.1501 124.168 76.0703 124.483 75.921 124.766C75.7717 125.049 75.5572 125.292 75.2953 125.476C75.18 125.554 75.0461 125.6 74.9071 125.61ZM74.5786 122.721V124.782C74.5648 124.878 74.576 124.976 74.6114 125.066C74.6467 125.156 74.7049 125.236 74.7802 125.297C74.8412 125.321 74.9073 125.329 74.9725 125.322C75.0376 125.314 75.0998 125.29 75.1534 125.252C75.377 125.096 75.5609 124.89 75.6906 124.65C75.8202 124.41 75.8919 124.143 75.8999 123.871V123.692H75.2505L75.1236 122.818L74.5786 122.721ZM75.4744 123.408H75.8775V121.87L74.8324 122.482L75.3475 122.572L75.4744 123.408Z" fill="white"/>
<path d="M75.228 127.387C75.1904 127.387 75.1544 127.372 75.1278 127.345C75.1012 127.319 75.0862 127.283 75.0862 127.245V125.371C75.0862 125.353 75.0899 125.335 75.0971 125.318C75.1043 125.301 75.1149 125.286 75.1282 125.274C75.1415 125.261 75.1572 125.251 75.1743 125.245C75.1915 125.239 75.2098 125.236 75.228 125.237C75.2637 125.237 75.2979 125.251 75.3231 125.276C75.3483 125.302 75.3624 125.336 75.3624 125.371V127.245C75.3625 127.281 75.3486 127.316 75.3235 127.343C75.2985 127.369 75.2644 127.385 75.228 127.387Z" fill="white"/>
<path d="M74.4144 127.85C74.3901 127.851 74.366 127.846 74.3448 127.834C74.3236 127.822 74.3063 127.804 74.2949 127.783C74.2842 127.767 74.2768 127.75 74.2733 127.731C74.2697 127.713 74.2701 127.694 74.2743 127.676C74.2785 127.657 74.2865 127.64 74.2978 127.625C74.309 127.61 74.3233 127.598 74.3397 127.589L75.9671 126.655C75.9832 126.646 76.0011 126.64 76.0196 126.638C76.0381 126.635 76.0569 126.636 76.075 126.641C76.093 126.646 76.1099 126.654 76.1247 126.666C76.1395 126.677 76.1519 126.691 76.1612 126.708C76.1704 126.723 76.1763 126.741 76.1786 126.758C76.181 126.776 76.1797 126.795 76.1748 126.812C76.1699 126.83 76.1616 126.846 76.1502 126.86C76.1389 126.874 76.1249 126.886 76.1089 126.894L74.4816 127.835C74.4613 127.847 74.4378 127.852 74.4144 127.85Z" fill="white"/>
<path d="M80.2072 124.632C80.1527 124.633 80.099 124.62 80.0504 124.595C79.9959 124.558 79.952 124.508 79.9232 124.449C79.8943 124.39 79.8816 124.325 79.8862 124.259V123.871C79.8862 123.835 79.9003 123.801 79.9255 123.776C79.9507 123.751 79.9849 123.737 80.0205 123.737C80.0388 123.736 80.0571 123.738 80.0742 123.745C80.0914 123.751 80.1071 123.761 80.1204 123.773C80.1337 123.786 80.1443 123.801 80.1515 123.818C80.1587 123.835 80.1624 123.853 80.1624 123.871V124.259C80.1624 124.311 80.1624 124.341 80.1624 124.349C80.1624 124.356 80.2072 124.349 80.2519 124.349C80.3375 124.267 80.405 124.169 80.45 124.059C80.495 123.95 80.5166 123.832 80.5132 123.714V121.228C80.5083 121.208 80.5082 121.186 80.5129 121.165C80.5176 121.144 80.5269 121.125 80.5402 121.108C80.5535 121.091 80.5704 121.078 80.5896 121.068C80.6088 121.059 80.6299 121.054 80.6513 121.054C80.6727 121.054 80.6938 121.059 80.713 121.068C80.7323 121.078 80.7492 121.091 80.7625 121.108C80.7757 121.125 80.7851 121.144 80.7897 121.165C80.7944 121.186 80.7943 121.208 80.7894 121.228V123.714C80.7956 123.88 80.763 124.046 80.6944 124.197C80.6257 124.349 80.5228 124.483 80.3938 124.588C80.3358 124.617 80.272 124.632 80.2072 124.632Z" fill="white"/>
<path d="M78.7291 122.468V122.221C78.7645 121.601 78.945 120.997 79.2562 120.459C79.5673 119.921 80.0005 119.463 80.5207 119.123C80.7061 118.965 80.9361 118.868 81.179 118.845C81.4219 118.823 81.6657 118.876 81.877 118.998C82.0882 119.12 82.2564 119.305 82.3584 119.526C82.4604 119.748 82.4913 119.996 82.4467 120.236V120.318L78.7291 122.468ZM81.3568 119.146C81.1106 119.157 80.8715 119.231 80.6625 119.362C80.2183 119.655 79.842 120.04 79.5587 120.491C79.2755 120.941 79.0919 121.447 79.0202 121.975L82.1705 120.153C82.181 119.977 82.1468 119.802 82.0711 119.642C81.9954 119.483 81.8806 119.346 81.7375 119.243C81.6235 119.178 81.4953 119.142 81.3642 119.138L81.3568 119.146Z" fill="white"/>
<path d="M85.2311 121.766C85.1935 121.766 85.1574 121.751 85.1308 121.724C85.1042 121.698 85.0892 121.662 85.0892 121.624V116.861C85.0892 116.824 85.1042 116.788 85.1308 116.761C85.1574 116.735 85.1935 116.72 85.2311 116.72C85.2687 116.72 85.3048 116.735 85.3314 116.761C85.358 116.788 85.3729 116.824 85.3729 116.861V121.624C85.3729 121.662 85.358 121.698 85.3314 121.724C85.3048 121.751 85.2687 121.766 85.2311 121.766Z" fill="white"/>
<path d="M84.8205 117.989H84.7682C84.7513 117.982 84.7359 117.972 84.7229 117.959C84.7099 117.947 84.6997 117.932 84.6927 117.915C84.6857 117.898 84.6822 117.88 84.6823 117.862C84.6825 117.844 84.6863 117.826 84.6936 117.809L85.1938 116.66L85.7462 117.302C85.7699 117.33 85.7817 117.366 85.7789 117.402C85.7761 117.438 85.7589 117.472 85.7312 117.496C85.7175 117.508 85.7016 117.517 85.6844 117.522C85.6672 117.528 85.6491 117.53 85.6311 117.529C85.5947 117.526 85.5609 117.509 85.5371 117.481L85.2684 117.175L84.9474 117.921C84.9348 117.943 84.9161 117.961 84.8937 117.973C84.8712 117.985 84.8458 117.991 84.8205 117.989Z" fill="white"/>
<path d="M86.5225 121.027C86.4862 121.027 86.4512 121.013 86.4248 120.988C86.3984 120.963 86.3826 120.929 86.3807 120.892V116.13C86.3807 116.092 86.3956 116.056 86.4222 116.03C86.4488 116.003 86.4849 115.988 86.5225 115.988C86.5414 115.987 86.5603 115.99 86.578 115.997C86.5957 116.003 86.6118 116.014 86.6252 116.027C86.6386 116.04 86.649 116.057 86.6558 116.074C86.6625 116.092 86.6654 116.111 86.6643 116.13V120.892C86.6644 120.911 86.6607 120.929 86.6534 120.946C86.6462 120.962 86.6357 120.978 86.6224 120.99C86.6091 121.003 86.5934 121.013 86.5762 121.019C86.5591 121.025 86.5408 121.028 86.5225 121.027Z" fill="white"/>
<path d="M86.112 117.242C86.0951 117.248 86.0766 117.248 86.0597 117.242C86.0428 117.236 86.0274 117.226 86.0144 117.213C86.0014 117.2 85.9911 117.185 85.9842 117.168C85.9772 117.152 85.9737 117.134 85.9738 117.116C85.974 117.097 85.9778 117.08 85.9851 117.063L86.4852 115.913L87.0376 116.555C87.0623 116.582 87.076 116.616 87.076 116.652C87.076 116.688 87.0623 116.723 87.0376 116.749C87.0244 116.763 87.0087 116.773 86.9914 116.781C86.9741 116.788 86.9556 116.791 86.9369 116.791C86.9181 116.791 86.8996 116.788 86.8823 116.781C86.865 116.773 86.8493 116.763 86.8361 116.749L86.5748 116.443L86.2538 117.19C86.2375 117.211 86.2155 117.227 86.1904 117.236C86.1653 117.246 86.1381 117.248 86.112 117.242Z" fill="white"/>
<path d="M71.406 132.575L56.2447 123.826V88.8081L71.406 97.5645V132.575Z" fill="#E0E0E0"/>
<path d="M63.2841 97.8482L65.337 99.0351V94.0634L63.2841 92.8765V97.8482Z" fill="#F5F5F5"/>
<path d="M65.337 94.0634L86.5673 81.806L84.507 80.619L63.2841 92.8765L65.337 94.0634Z" fill="white"/>
<path d="M65.337 115.07L38.0526 99.3188L10.7607 115.07L38.0526 130.828L65.337 115.07Z" fill="#F5F5F5"/>
<path d="M38.0526 151.835L65.337 136.084V115.07L38.0526 130.828V151.835Z" fill="#EBEBEB"/>
<path d="M41.5537 144.862C41.4592 144.861 41.3668 144.835 41.2849 144.788C41.1683 144.703 41.0754 144.59 41.0152 144.46C40.955 144.329 40.9297 144.185 40.9415 144.041V141.802V141.638H41.0535L42.8003 140.607V143.101C42.7955 143.419 42.7151 143.732 42.5659 144.014C42.4167 144.295 42.2028 144.538 41.9418 144.721C41.827 144.801 41.6932 144.85 41.5537 144.862ZM41.2177 141.973V144.034C41.2045 144.129 41.2161 144.225 41.2514 144.314C41.2867 144.403 41.3446 144.482 41.4193 144.541C41.4804 144.569 41.5478 144.581 41.6147 144.574C41.6815 144.567 41.7455 144.543 41.8 144.504C42.0227 144.347 42.2061 144.141 42.3356 143.901C42.4651 143.662 42.5373 143.395 42.5465 143.123V142.936H41.8747L41.7478 142.063L41.2177 141.973ZM42.1135 142.66H42.5465V141.13L41.5089 141.742L42.024 141.832L42.1135 142.66Z" fill="white"/>
<path d="M41.8672 146.639C41.8495 146.639 41.8321 146.636 41.8158 146.629C41.7995 146.622 41.7847 146.612 41.7722 146.6C41.7597 146.587 41.7498 146.572 41.7431 146.556C41.7363 146.54 41.7328 146.522 41.7328 146.505V144.631C41.728 144.61 41.7279 144.589 41.7325 144.568C41.7372 144.547 41.7465 144.527 41.7598 144.511C41.7731 144.494 41.79 144.48 41.8092 144.471C41.8285 144.462 41.8496 144.457 41.8709 144.457C41.8923 144.457 41.9134 144.462 41.9326 144.471C41.9519 144.48 41.9688 144.494 41.9821 144.511C41.9953 144.527 42.0047 144.547 42.0093 144.568C42.014 144.589 42.0139 144.61 42.009 144.631V146.505C42.0091 146.523 42.0054 146.541 41.9981 146.558C41.9909 146.575 41.9803 146.59 41.9671 146.602C41.9538 146.615 41.9381 146.625 41.9209 146.631C41.9037 146.637 41.8855 146.64 41.8672 146.639Z" fill="white"/>
<path d="M41.0535 147.102C41.0236 147.1 40.9951 147.089 40.972 147.07C40.9489 147.051 40.9325 147.025 40.925 146.996C40.9175 146.967 40.9195 146.936 40.9305 146.908C40.9415 146.88 40.961 146.857 40.9863 146.841L42.6137 145.907C42.6285 145.897 42.6454 145.89 42.6632 145.886C42.6811 145.883 42.6995 145.883 42.7172 145.887C42.7349 145.891 42.7515 145.9 42.7658 145.911C42.7802 145.922 42.7919 145.936 42.8003 145.952C42.811 145.968 42.8184 145.985 42.8219 146.004C42.8255 146.022 42.8252 146.041 42.8209 146.059C42.8167 146.078 42.8087 146.095 42.7974 146.11C42.7862 146.125 42.7719 146.137 42.7555 146.146L41.1281 147.102H41.0535Z" fill="white"/>
<path d="M46.8463 143.892C46.7972 143.903 46.7462 143.903 46.697 143.892C46.64 143.856 46.5939 143.805 46.5636 143.744C46.5334 143.684 46.5202 143.616 46.5253 143.549V143.168C46.5253 143.13 46.5403 143.094 46.5669 143.068C46.5935 143.041 46.6295 143.026 46.6672 143.026C46.7048 143.026 46.7408 143.041 46.7674 143.068C46.794 143.094 46.809 143.13 46.809 143.168V143.549C46.7987 143.58 46.7987 143.614 46.809 143.646C46.809 143.646 46.8538 143.646 46.906 143.646C46.9903 143.563 47.0564 143.464 47.1001 143.355C47.1438 143.246 47.1641 143.129 47.1598 143.011V140.525C47.1617 140.488 47.1772 140.453 47.2034 140.427C47.2296 140.401 47.2646 140.385 47.3017 140.383C47.3393 140.383 47.3754 140.398 47.402 140.425C47.4286 140.452 47.4435 140.488 47.4435 140.525V143.011C47.4497 143.177 47.4171 143.343 47.3485 143.494C47.2798 143.646 47.1769 143.779 47.0479 143.884C46.9822 143.903 46.9132 143.905 46.8463 143.892Z" fill="white"/>
<path d="M45.3757 141.72V141.473C45.4081 140.852 45.5874 140.247 45.8988 139.709C46.2103 139.17 46.645 138.713 47.1673 138.375C47.3527 138.217 47.5827 138.12 47.8256 138.097C48.0685 138.075 48.3123 138.129 48.5235 138.251C48.7348 138.373 48.903 138.557 49.005 138.779C49.107 139 49.1379 139.248 49.0932 139.488V139.57L45.3757 141.72ZM48.0034 138.398C47.7551 138.41 47.5139 138.485 47.3017 138.614C46.8588 138.908 46.4839 139.293 46.202 139.744C45.92 140.195 45.7376 140.7 45.6668 141.227L48.8096 139.406C48.8216 139.23 48.7889 139.054 48.7145 138.895C48.64 138.736 48.5264 138.598 48.3841 138.495C48.2681 138.429 48.1367 138.396 48.0034 138.398Z" fill="white"/>
<path d="M51.8777 141.025C51.8588 141.027 51.8399 141.024 51.8222 141.017C51.8045 141.01 51.7884 141 51.775 140.986C51.7616 140.973 51.7512 140.957 51.7445 140.939C51.7377 140.921 51.7348 140.902 51.7359 140.884V136.121C51.731 136.1 51.7309 136.078 51.7356 136.058C51.7402 136.037 51.7496 136.017 51.7628 136C51.7761 135.984 51.793 135.97 51.8123 135.961C51.8315 135.952 51.8526 135.947 51.874 135.947C51.8954 135.947 51.9165 135.952 51.9357 135.961C51.9549 135.97 51.9718 135.984 51.9851 136C51.9984 136.017 52.0077 136.037 52.0124 136.058C52.0171 136.078 52.017 136.1 52.0121 136.121V140.884C52.0131 140.902 52.0104 140.92 52.0041 140.937C51.9978 140.954 51.988 140.97 51.9755 140.983C51.9629 140.997 51.9477 141.007 51.9309 141.015C51.9141 141.022 51.896 141.025 51.8777 141.025Z" fill="white"/>
<path d="M51.5044 137.211H51.4447C51.4275 137.204 51.412 137.193 51.3991 137.179C51.3862 137.166 51.3763 137.15 51.37 137.132C51.3637 137.115 51.3611 137.096 51.3624 137.077C51.3637 137.059 51.3688 137.041 51.3775 137.024L51.8702 135.875L52.4301 136.517C52.4548 136.545 52.4672 136.583 52.4644 136.62C52.4616 136.658 52.4439 136.693 52.4152 136.718C52.3865 136.743 52.3491 136.755 52.3113 136.752C52.2735 136.75 52.2384 136.732 52.2136 136.703L51.9523 136.397L51.6313 137.144C51.6181 137.165 51.5993 137.183 51.577 137.194C51.5547 137.206 51.5297 137.212 51.5044 137.211Z" fill="white"/>
<path d="M53.1691 140.286C53.1315 140.286 53.0954 140.271 53.0688 140.245C53.0422 140.218 53.0273 140.182 53.0273 140.145V135.382C53.0273 135.344 53.0422 135.308 53.0688 135.282C53.0954 135.255 53.1315 135.24 53.1691 135.24C53.2067 135.24 53.2428 135.255 53.2694 135.282C53.296 135.308 53.3109 135.344 53.3109 135.382V140.145C53.3109 140.182 53.296 140.218 53.2694 140.245C53.2428 140.271 53.2067 140.286 53.1691 140.286Z" fill="white"/>
<path d="M52.7586 136.472H52.7063C52.6894 136.465 52.674 136.455 52.661 136.443C52.648 136.43 52.6377 136.415 52.6307 136.398C52.6238 136.381 52.6202 136.363 52.6204 136.345C52.6206 136.327 52.6244 136.309 52.6317 136.293L53.1318 135.136L53.6842 135.778C53.6975 135.791 53.7081 135.806 53.7153 135.824C53.7225 135.841 53.7262 135.86 53.7262 135.878C53.7262 135.897 53.7225 135.916 53.7153 135.933C53.7081 135.95 53.6975 135.966 53.6842 135.979C53.6717 135.992 53.6566 136.003 53.6399 136.01C53.6232 136.017 53.6053 136.021 53.5872 136.021C53.569 136.021 53.5511 136.017 53.5344 136.01C53.5177 136.003 53.5027 135.992 53.4901 135.979L53.2214 135.673L52.9004 136.42C52.8847 136.442 52.8628 136.458 52.8375 136.468C52.8122 136.477 52.7847 136.478 52.7586 136.472Z" fill="white"/>
<path d="M38.0526 151.835L10.7607 136.084V115.07L38.0526 130.828V151.835Z" fill="#E0E0E0"/>
<path d="M23.3765 127.327L25.4294 128.514V123.543L23.3765 122.356V127.327Z" fill="#F5F5F5"/>
<path d="M25.4294 123.543L52.7212 107.791L50.6684 106.597L23.3765 122.356L25.4294 123.543Z" fill="white"/>
<path d="M15.0829 128.074L21.5924 131.806C21.969 132.052 22.2827 132.382 22.5083 132.771C22.7339 133.16 22.865 133.597 22.8913 134.046V138.069C22.8913 138.89 22.309 139.226 21.5924 138.816L15.0829 135.083C14.7065 134.838 14.3933 134.508 14.1689 134.118C13.9444 133.729 13.8151 133.292 13.7915 132.844V128.828C13.7915 127.992 14.3738 127.693 15.0829 128.074Z" fill="#F5F5F5"/>
<path d="M14.5828 129.074L14.8291 129.216V133.68L14.5828 133.538V129.074Z" fill="#E0E0E0"/>
<path d="M15.5831 129.656L16.0161 129.91V134.367L15.5831 134.12V129.656Z" fill="#E0E0E0"/>
<path d="M16.5909 130.239L16.8447 130.38L16.8372 134.844L16.5909 134.703V130.239Z" fill="#E0E0E0"/>
<path d="M17.3523 130.672L17.8525 130.963L17.845 135.427L17.3523 135.128V130.672Z" fill="#E0E0E0"/>
<path d="M18.6064 131.403L18.8528 131.545V136.009L18.6064 135.86V131.403Z" fill="#E0E0E0"/>
<path d="M19.3305 131.814L19.8605 132.127V136.584L19.3305 136.27V131.814Z" fill="#E0E0E0"/>
<path d="M20.6219 132.568L20.8683 132.709V137.166L20.6219 137.024V132.568Z" fill="#E0E0E0"/>
<path d="M21.1967 132.889L21.3236 132.963V137.42L21.1967 137.353V132.889Z" fill="#E0E0E0"/>
<path d="M20.1666 132.321L20.286 132.388V136.853L20.1666 136.785V132.321Z" fill="#E0E0E0"/>
<path d="M18.1361 131.134L18.2556 131.202V135.666L18.1361 135.591V131.134Z" fill="#E0E0E0"/>
<path d="M17.0238 130.492L17.1507 130.567V135.024L17.0238 134.956V130.492Z" fill="#E0E0E0"/>
<path d="M16.2251 130.052L16.352 130.127V134.591L16.2251 134.516V130.052Z" fill="#E0E0E0"/>
<path d="M15.1427 129.395L15.2696 129.47V133.926L15.1427 133.859V129.395Z" fill="#E0E0E0"/>
<path d="M21.6297 133.142L21.8761 133.292V137.748L21.6297 137.606V133.142Z" fill="#E0E0E0"/>
<path d="M59.2755 73.057L38.0526 60.7996L16.8223 73.057L38.0526 85.307L59.2755 73.057Z" fill="#F5F5F5"/>
<path d="M38.0526 127.327L59.2755 115.07V73.0571L38.0526 85.307V127.327Z" fill="#EBEBEB"/>
<path d="M41.5537 120.355C41.4598 120.356 41.3673 120.333 41.2849 120.288C41.1683 120.203 41.0754 120.09 41.0152 119.96C40.955 119.829 40.9297 119.685 40.9415 119.541V117.302V117.138H41.0535L42.8003 116.115V118.601C42.796 118.921 42.716 119.235 42.5668 119.518C42.4176 119.801 42.2034 120.044 41.9418 120.228C41.8258 120.304 41.6919 120.347 41.5537 120.355ZM41.2177 117.466V119.534C41.2059 119.629 41.2182 119.725 41.2534 119.814C41.2886 119.902 41.3457 119.981 41.4193 120.041C41.4804 120.069 41.5478 120.081 41.6147 120.074C41.6815 120.068 41.7455 120.043 41.8 120.004C42.0229 119.846 42.2062 119.638 42.3357 119.397C42.4652 119.156 42.5373 118.889 42.5465 118.616V118.437H41.8747L41.7478 117.563L41.2177 117.466ZM42.1135 118.153H42.5465V116.623L41.5089 117.235L42.024 117.324L42.1135 118.153Z" fill="white"/>
<path d="M41.8672 122.132C41.8489 122.132 41.8308 122.128 41.814 122.121C41.7972 122.114 41.782 122.103 41.7694 122.09C41.7568 122.076 41.7471 122.061 41.7408 122.044C41.7345 122.026 41.7318 122.008 41.7328 121.99V120.124C41.7318 120.105 41.7345 120.087 41.7408 120.07C41.7471 120.053 41.7568 120.037 41.7694 120.024C41.782 120.01 41.7972 120 41.814 119.993C41.8308 119.985 41.8489 119.982 41.8672 119.982C41.8861 119.981 41.905 119.984 41.9227 119.99C41.9404 119.997 41.9565 120.007 41.9699 120.021C41.9833 120.034 41.9937 120.05 42.0004 120.068C42.0072 120.086 42.0101 120.105 42.009 120.124V121.99C42.0101 122.009 42.0072 122.028 42.0004 122.045C41.9937 122.063 41.9833 122.079 41.9699 122.092C41.9565 122.106 41.9404 122.116 41.9227 122.123C41.905 122.13 41.8861 122.133 41.8672 122.132Z" fill="white"/>
<path d="M41.0535 122.602C41.0236 122.6 40.9951 122.589 40.972 122.57C40.9489 122.551 40.9325 122.525 40.925 122.496C40.9175 122.467 40.9195 122.436 40.9305 122.408C40.9415 122.38 40.961 122.357 40.9863 122.341L42.6137 121.4C42.6463 121.381 42.6851 121.376 42.7215 121.386C42.7579 121.396 42.7889 121.42 42.8078 121.452C42.8266 121.485 42.8316 121.524 42.8218 121.56C42.812 121.597 42.7882 121.628 42.7555 121.646L41.1281 122.58C41.1062 122.595 41.0801 122.602 41.0535 122.602Z" fill="white"/>
<path d="M46.8463 119.385C46.7932 119.385 46.7412 119.369 46.697 119.34C46.64 119.305 46.5937 119.256 46.5634 119.196C46.533 119.137 46.5199 119.07 46.5253 119.004V118.623C46.5253 118.585 46.5403 118.549 46.5669 118.523C46.5935 118.496 46.6295 118.481 46.6671 118.481C46.7048 118.481 46.7408 118.496 46.7674 118.523C46.794 118.549 46.809 118.585 46.809 118.623V119.004C46.7987 119.035 46.7987 119.069 46.809 119.101C46.8407 119.11 46.8743 119.11 46.906 119.101C46.9912 119.021 47.0581 118.924 47.1019 118.815C47.1457 118.707 47.1655 118.59 47.1598 118.474V115.988C47.1598 115.95 47.1748 115.914 47.2014 115.888C47.228 115.861 47.264 115.846 47.3017 115.846C47.3206 115.845 47.3395 115.848 47.3572 115.855C47.3749 115.861 47.391 115.872 47.4044 115.885C47.4178 115.899 47.4282 115.915 47.4349 115.932C47.4417 115.95 47.4446 115.969 47.4435 115.988V118.474C47.4496 118.64 47.4171 118.806 47.3485 118.957C47.2798 119.109 47.1769 119.242 47.0479 119.347C46.9846 119.376 46.9155 119.388 46.8463 119.385Z" fill="white"/>
<path d="M45.3757 117.242V117.003C45.4093 116.381 45.5891 115.776 45.9003 115.236C46.2116 114.697 46.6457 114.238 47.1673 113.898C47.3544 113.743 47.5844 113.649 47.8265 113.629C48.0685 113.609 48.3109 113.664 48.5208 113.786C48.7308 113.908 48.8982 114.092 49.0006 114.312C49.103 114.532 49.1353 114.778 49.0932 115.018V115.092L45.3757 117.242ZM48.0034 113.928C47.7551 113.94 47.5139 114.015 47.3017 114.144C46.8597 114.437 46.4853 114.821 46.2034 115.271C45.9215 115.72 45.7386 116.224 45.6668 116.749L48.8096 114.935C48.8231 114.76 48.791 114.584 48.7164 114.424C48.6419 114.265 48.5274 114.127 48.3841 114.025C48.2719 113.946 48.1402 113.899 48.0034 113.89V113.928Z" fill="white"/>
<path d="M51.8777 116.496C51.8401 116.496 51.804 116.481 51.7774 116.454C51.7508 116.427 51.7359 116.391 51.7359 116.354V111.591C51.731 111.57 51.7309 111.549 51.7356 111.528C51.7402 111.507 51.7496 111.487 51.7628 111.471C51.7761 111.454 51.793 111.44 51.8123 111.431C51.8315 111.422 51.8526 111.417 51.874 111.417C51.8954 111.417 51.9165 111.422 51.9357 111.431C51.9549 111.44 51.9718 111.454 51.9851 111.471C51.9984 111.487 52.0077 111.507 52.0124 111.528C52.0171 111.549 52.017 111.57 52.0121 111.591V116.354C52.0121 116.39 51.9982 116.425 51.9732 116.452C51.9482 116.478 51.914 116.494 51.8777 116.496Z" fill="white"/>
<path d="M51.5044 112.696H51.4447C51.4275 112.689 51.412 112.678 51.3991 112.665C51.3862 112.651 51.3763 112.635 51.37 112.617C51.3637 112.6 51.3611 112.581 51.3624 112.563C51.3637 112.544 51.3688 112.526 51.3775 112.509L51.8702 111.36L52.4301 112.002C52.4548 112.028 52.4685 112.063 52.4685 112.099C52.4685 112.135 52.4548 112.17 52.4301 112.196C52.4026 112.221 52.3666 112.235 52.3293 112.235C52.292 112.235 52.2561 112.221 52.2285 112.196L51.9673 111.89L51.6463 112.636C51.6316 112.66 51.6101 112.678 51.5848 112.688C51.5594 112.699 51.5313 112.702 51.5044 112.696Z" fill="white"/>
<path d="M53.1691 115.749C53.1321 115.747 53.0971 115.732 53.0708 115.706C53.0446 115.679 53.0291 115.644 53.0273 115.607V110.845C53.0273 110.807 53.0422 110.771 53.0688 110.744C53.0954 110.718 53.1315 110.703 53.1691 110.703C53.2067 110.703 53.2428 110.718 53.2694 110.744C53.296 110.771 53.3109 110.807 53.3109 110.845V115.607C53.3091 115.644 53.2936 115.679 53.2674 115.706C53.2412 115.732 53.2062 115.747 53.1691 115.749Z" fill="white"/>
<path d="M52.7585 111.964H52.7063C52.6891 111.957 52.6735 111.946 52.6605 111.933C52.6474 111.92 52.6371 111.904 52.6302 111.887C52.6233 111.869 52.6198 111.851 52.6201 111.832C52.6203 111.813 52.6242 111.795 52.6316 111.778L53.1318 110.628L53.6842 111.27C53.6975 111.283 53.7081 111.299 53.7153 111.316C53.7225 111.334 53.7262 111.352 53.7262 111.371C53.7262 111.39 53.7225 111.408 53.7153 111.426C53.7081 111.443 53.6975 111.459 53.6842 111.472C53.6572 111.495 53.6227 111.508 53.5872 111.508C53.5516 111.508 53.5172 111.495 53.4901 111.472L53.2214 111.166L52.9004 111.912C52.8841 111.933 52.8621 111.949 52.837 111.959C52.8119 111.968 52.7847 111.97 52.7585 111.964Z" fill="white"/>
<path d="M38.0526 127.327L16.8223 115.07V73.0571L38.0526 85.307V127.327Z" fill="#E0E0E0"/>
<path d="M26.8925 83.8365L28.9528 85.0234V80.0592L26.8925 78.8648V83.8365Z" fill="#F5F5F5"/>
<path d="M28.9528 80.0592L50.1757 67.8017L48.1228 66.6148L26.8925 78.8648L28.9528 80.0592Z" fill="white"/>
<path d="M21.1445 107.06L27.6539 110.792C28.0308 111.037 28.3443 111.368 28.5688 111.757C28.7933 112.146 28.9223 112.583 28.9454 113.032V117.048C28.9454 117.869 28.3706 118.205 27.6539 117.795L21.1445 114.062C20.7666 113.818 20.452 113.487 20.2262 113.098C20.0005 112.709 19.87 112.272 19.8456 111.823V107.806C19.853 106.985 20.4279 106.649 21.1445 107.06Z" fill="#F5F5F5"/>
<path d="M20.6369 108.068L20.8832 108.21V112.674L20.6369 112.524V108.068Z" fill="#E0E0E0"/>
<path d="M21.6447 108.65L22.0702 108.896V113.36L21.6447 113.107V108.65Z" fill="#E0E0E0"/>
<path d="M22.6524 109.225L22.8987 109.374V113.831L22.6524 113.689V109.225Z" fill="#E0E0E0"/>
<path d="M23.4138 109.658L23.9065 109.956V114.413L23.4138 114.122V109.658Z" fill="#E0E0E0"/>
<path d="M24.6679 110.389L24.9143 110.531V114.995L24.6679 114.853V110.389Z" fill="#E0E0E0"/>
<path d="M25.3921 110.8L25.9221 111.113V115.577L25.3921 115.264V110.8Z" fill="#E0E0E0"/>
<path d="M26.6835 111.554L26.9298 111.696V116.16L26.6835 116.01V111.554Z" fill="#E0E0E0"/>
<path d="M27.2583 111.882L27.3777 111.949V116.413L27.2583 116.339V111.882Z" fill="#E0E0E0"/>
<path d="M26.2206 111.307L26.3476 111.382V115.846L26.2206 115.772V111.307Z" fill="#E0E0E0"/>
<path d="M24.1902 110.121L24.3171 110.195V114.652L24.1902 114.585V110.121Z" fill="#E0E0E0"/>
<path d="M23.0779 109.486L23.2048 109.553V114.017L23.0779 113.943V109.486Z" fill="#E0E0E0"/>
<path d="M22.2866 109.046L22.4061 109.113V113.577L22.2866 113.502V109.046Z" fill="#E0E0E0"/>
<path d="M21.2042 108.389L21.3236 108.456V112.92L21.2042 112.845V108.389Z" fill="#E0E0E0"/>
<path d="M27.6838 112.136L27.9376 112.278V116.734L27.6838 116.593V112.136Z" fill="#E0E0E0"/>
<path d="M17.0239 188.719L98.4963 235.748C99.498 236.256 100.605 236.521 101.729 236.521C102.852 236.521 103.959 236.256 104.961 235.748L283.47 132.732C285.254 131.702 285.254 130.03 283.47 128.999L201.998 81.9702C200.997 81.4585 199.889 81.1916 198.765 81.1916C197.642 81.1916 196.534 81.4585 195.533 81.9702L17.0239 184.986C15.2397 186.017 15.2397 187.689 17.0239 188.719Z" fill="#455A64"/>
<path d="M61.0596 210.554C62.4486 211.255 63.9827 211.62 65.5386 211.62C67.0944 211.62 68.6285 211.255 70.0175 210.554C72.5034 209.121 72.5034 206.821 70.0175 205.366C68.6295 204.662 67.095 204.294 65.5386 204.294C63.9821 204.294 62.4476 204.662 61.0596 205.366C58.5738 206.821 58.5738 209.136 61.0596 210.554Z" fill="#263238"/>
<path d="M100.027 235.748L18.5541 188.719C16.9566 187.793 16.7924 186.36 18.054 185.33C17.2571 185.96 16.602 186.751 16.1313 187.652C15.6605 188.552 15.3847 189.541 15.3218 190.555V193.594C15.3831 194.715 15.7077 195.806 16.2692 196.779C16.8308 197.752 17.6136 198.578 18.5541 199.192L100.027 246.221C101.023 246.742 102.135 246.999 103.259 246.968V236.525C102.133 236.546 101.02 236.279 100.027 235.748Z" fill="#37474F"/>
<path d="M283.463 143.198C284.406 142.586 285.19 141.759 285.753 140.786C286.316 139.814 286.642 138.721 286.703 137.599V134.561C286.642 133.545 286.367 132.555 285.894 131.654C285.422 130.753 284.764 129.963 283.963 129.335C285.232 130.365 285.068 131.799 283.47 132.717L104.961 235.748C103.964 236.267 102.852 236.523 101.729 236.495V246.998C102.852 247.027 103.964 246.77 104.961 246.251L283.463 143.198Z" fill="#263238"/>
<path d="M111.918 226.006L33.9394 180.963C32.8644 180.343 32.8644 179.336 33.9394 178.723L184.672 91.6746C185.273 91.3691 185.938 91.2098 186.613 91.2098C187.287 91.2098 187.952 91.3691 188.553 91.6746L266.562 136.711C267.63 137.33 267.63 138.331 266.562 138.95L115.77 226.006C115.173 226.307 114.513 226.464 113.844 226.464C113.175 226.464 112.516 226.307 111.918 226.006Z" fill="white"/>
<path d="M80.4983 200.857L89.5981 195.602L86.5673 193.855L77.4675 199.103L80.4983 200.857Z" fill="#2D64BC"/>
<path d="M189.666 137.83L198.766 132.575L195.727 130.828L186.635 136.084L189.666 137.83Z" fill="#2D64BC"/>
<path d="M207.858 127.327L216.958 122.072L213.927 120.325L204.827 125.573L207.858 127.327Z" fill="#2D64BC"/>
<path d="M237.061 108.926C237.414 109.103 237.804 109.195 238.199 109.195C238.594 109.195 238.984 109.103 239.337 108.926C239.475 108.879 239.593 108.791 239.678 108.673C239.762 108.555 239.807 108.414 239.807 108.269C239.807 108.124 239.762 107.983 239.678 107.865C239.593 107.748 239.475 107.659 239.337 107.612C238.985 107.432 238.595 107.338 238.199 107.338C237.803 107.338 237.413 107.432 237.061 107.612C236.924 107.659 236.805 107.748 236.72 107.865C236.636 107.983 236.591 108.124 236.591 108.269C236.591 108.414 236.636 108.555 236.72 108.673C236.805 108.791 236.924 108.879 237.061 108.926Z" fill="#263238"/>
<path d="M240.696 119.235C241.401 119.592 242.179 119.778 242.969 119.778C243.759 119.778 244.538 119.592 245.242 119.235C246.496 118.489 246.496 117.332 245.242 116.608C244.538 116.251 243.759 116.065 242.969 116.065C242.179 116.065 241.401 116.251 240.696 116.608C239.442 117.332 239.442 118.511 240.696 119.235Z" fill="#263238"/>
<path d="M237.486 114.667C238.322 114.181 238.277 113.375 237.389 112.86L222.459 104.223C221.979 103.966 221.444 103.826 220.899 103.815C220.354 103.805 219.814 103.924 219.324 104.163C218.488 104.649 218.533 105.455 219.421 105.97L234.396 114.607C234.871 114.857 235.397 114.992 235.934 115.002C236.47 115.013 237.002 114.898 237.486 114.667Z" fill="#263238"/>
<path d="M212.001 79.6411L212.508 79.3425C212.158 80.6164 211.987 81.933 212.001 83.2542V85.0756C212.001 91.6149 219.847 108.321 222.735 114.234C223.034 114.853 219.07 119.071 219.07 119.071L223.781 116.354C223.781 116.354 235.553 106.649 235.553 98.6768V96.8553C235.553 88.8454 230.283 79.3127 223.781 75.5578C220.496 73.6692 217.532 73.602 215.397 75.0353L210.918 77.6032L212.001 79.6411ZM217.891 85.7549C217.891 82.0225 220.526 80.4772 223.781 82.3584C223.512 84.7696 227.916 92.2793 229.663 92.5555C229.663 96.288 227.028 97.8332 223.781 95.9521C222.071 94.8323 220.65 93.3255 219.632 91.5538C218.614 89.7822 218.027 87.7955 217.921 85.7549H217.891Z" fill="#2D64BC"/>
<path d="M207.156 87.9944C207.29 95.9969 219.443 119.071 219.443 119.071C219.443 119.071 231.059 109.202 230.932 101.2V99.3785C230.798 91.376 225.371 81.9254 218.801 78.2825C212.232 74.6396 207.022 78.1631 207.156 86.173V87.9944ZM213.053 88.5767C212.994 84.8442 215.606 83.2542 218.884 85.0756C220.616 86.1646 222.067 87.6467 223.119 89.4016C224.17 91.1565 224.794 93.1347 224.938 95.1757C225.005 98.9082 222.392 100.498 219.107 98.6768C217.377 97.5856 215.928 96.1029 214.876 94.3485C213.825 92.594 213.2 90.6169 213.053 88.5767Z" fill="#2D64BC"/>
<path opacity="0.1" d="M207.156 87.9944C207.29 95.9969 219.443 119.071 219.443 119.071C219.443 119.071 231.059 109.202 230.932 101.2V99.3785C230.798 91.376 225.371 81.9254 218.801 78.2825C212.232 74.6396 207.022 78.1631 207.156 86.173V87.9944ZM213.053 88.5767C212.994 84.8442 215.606 83.2542 218.884 85.0756C220.616 86.1646 222.067 87.6467 223.119 89.4016C224.17 91.1565 224.794 93.1347 224.938 95.1757C225.005 98.9082 222.392 100.498 219.107 98.6768C217.377 97.5856 215.928 96.1029 214.876 94.3485C213.825 92.594 213.2 90.6169 213.053 88.5767Z" fill="black"/>
<path d="M93.3082 194.721C100.855 199.065 118.547 195.908 132.828 187.659L172.056 165.018C186.336 156.769 191.786 146.572 184.224 142.235C176.662 137.898 158.955 141.07 144.66 149.311L105.506 171.923C91.2329 180.164 85.7686 190.399 93.3082 194.721Z" fill="#F0F0F0"/>
<path d="M207.522 4.90952H207.559L214.016 1.17704H214.069C218.137 -0.883282 223.572 -0.315942 229.424 3.49118C241.189 11.0606 250.169 28.5286 249.49 42.4955C249.146 49.4603 246.504 54.2379 242.421 56.343H242.383L235.919 60.0755H235.874C231.805 62.1433 226.363 61.5685 220.503 57.7688C208.746 50.1919 199.766 32.7314 200.445 18.7645C200.803 11.7922 203.483 7.01463 207.522 4.90952Z" fill="#37474F"/>
<path d="M236.247 59.8814L242.406 56.2982H242.45C246.496 54.1857 249.169 49.4081 249.512 42.4508C249.811 36.225 248.191 29.305 245.265 22.8777L238.8 26.6101C241.734 33.0375 243.354 39.9575 243.048 46.1907C242.727 52.9838 240.159 57.7091 236.247 59.8814Z" fill="#263238"/>
<path d="M220.533 57.7614C208.776 50.1844 199.796 32.7239 200.475 18.757C201.154 4.79009 211.254 -0.398051 222.989 7.17141C234.724 14.7409 243.734 32.2088 243.055 46.1758C242.376 60.1427 232.291 65.3308 220.533 57.7614Z" fill="#455A64"/>
<path d="M230.387 56.776C237.322 57.1119 238.449 49.311 238.598 45.9518C239.196 33.6346 230.939 17.585 220.571 10.9039C218.361 9.35631 215.79 8.40496 213.106 8.14185C206.178 7.80592 205.051 15.6068 204.894 18.966C204.297 31.2832 212.546 47.3328 222.922 54.0513C225.131 55.5989 227.703 56.5502 230.387 56.8133V56.776Z" fill="#FAFAFA"/>
<path d="M220.406 34.7768C220.488 34.777 220.569 34.7618 220.645 34.732C220.801 34.6814 220.936 34.5808 221.029 34.4459C221.122 34.311 221.168 34.1492 221.16 33.9855V16.1965C221.16 15.9985 221.082 15.8086 220.942 15.6687C220.802 15.5287 220.612 15.45 220.414 15.45C220.216 15.45 220.026 15.5287 219.886 15.6687C219.746 15.8086 219.667 15.9985 219.667 16.1965V31.8206L211.359 21.1458C211.236 20.9874 211.055 20.8842 210.857 20.859C210.658 20.8338 210.457 20.8886 210.299 21.0114C210.14 21.1341 210.037 21.3148 210.012 21.5136C209.987 21.7124 210.042 21.913 210.164 22.0714L219.832 34.4856C219.9 34.574 219.986 34.646 220.086 34.6964C220.185 34.7468 220.295 34.7742 220.406 34.7768Z" fill="#37474F"/>
<path d="M224.691 47.9375C224.726 47.9443 224.761 47.9443 224.796 47.9375C224.875 47.9132 224.942 47.8593 224.982 47.7869C225.022 47.7146 225.033 47.6294 225.012 47.5493L220.824 33.448C220.801 33.3678 220.746 33.3004 220.673 33.2605C220.599 33.2206 220.513 33.2115 220.433 33.2353C220.352 33.259 220.285 33.3137 220.245 33.3872C220.205 33.4607 220.196 33.547 220.22 33.6272L224.4 47.7285C224.421 47.7889 224.461 47.8413 224.513 47.8787C224.565 47.916 224.627 47.9366 224.691 47.9375Z" fill="#2D64BC"/>
<path d="M220.645 30.4546C219.257 29.5662 218.07 30.1784 217.995 31.8207C218 32.7164 218.216 33.5985 218.626 34.395C219.036 35.1914 219.628 35.8799 220.354 36.4041C221.735 37.2999 222.922 36.6878 223.004 35.0455C222.998 34.149 222.781 33.2666 222.371 32.4692C221.962 31.6718 221.37 30.9817 220.645 30.4546Z" fill="#2D64BC"/>
<path d="M98.6979 190.354L107.79 185.098L104.759 183.352L95.6671 188.6L98.6979 190.354Z" fill="#2D64BC"/>
<path d="M116.89 179.851L125.99 174.595L122.951 172.848L113.859 178.096L116.89 179.851Z" fill="#2D64BC"/>
<path d="M113.15 177.708C113.15 182.098 110.074 187.413 106.275 189.652C104.252 190.824 102.43 190.861 101.176 189.981C100.671 189.583 100.255 189.083 99.958 188.513C99.6607 187.943 99.4881 187.316 99.4518 186.674C99.7071 186.554 99.9563 186.422 100.198 186.278C103.998 184.091 107.074 178.753 107.074 174.334C107.077 174.007 107.057 173.68 107.014 173.356C107.583 173.055 108.209 172.875 108.852 172.829C109.494 172.783 110.14 172.871 110.746 173.087C112.239 173.714 113.15 175.334 113.15 177.708Z" fill="#263238"/>
<path d="M113.77 168.691L113.643 168.616C111.732 167.601 109.164 167.787 106.275 169.444C100.415 172.826 95.6596 181.052 95.6596 187.823C95.6596 191.227 96.8615 193.609 98.8024 194.713C100.743 195.818 103.363 195.632 106.267 193.967C112.127 190.585 116.875 182.351 116.875 175.581C116.882 172.177 115.703 169.795 113.77 168.691ZM106.305 189.637C104.274 190.809 102.453 190.847 101.199 189.958C100.094 189.212 99.4219 187.719 99.4219 185.666C99.4219 181.284 102.505 175.961 106.305 173.722C108.036 172.722 109.612 172.55 110.784 173.065C112.232 173.685 113.143 175.304 113.143 177.693C113.15 182.113 110.074 187.45 106.275 189.652L106.305 189.637Z" fill="#37474F"/>
<path d="M111.134 173.267L111.052 173.222C109.813 172.557 108.134 172.684 106.275 173.752C102.475 175.946 99.3921 181.284 99.3921 185.696C99.3921 187.935 100.139 189.428 101.43 190.175C102.721 190.921 104.416 190.772 106.275 189.682C110.074 187.487 113.15 182.15 113.15 177.738C113.15 175.528 112.381 173.976 111.134 173.267ZM106.275 188.084C104.647 189.025 103.184 189.055 102.169 188.338C101.288 187.719 100.743 186.532 100.743 184.889C100.848 182.971 101.403 181.104 102.364 179.44C103.325 177.775 104.665 176.361 106.275 175.312C106.798 174.947 107.399 174.709 108.03 174.617C108.661 174.525 109.305 174.581 109.91 174.782C111.075 175.282 111.806 176.581 111.806 178.514C111.702 180.432 111.147 182.299 110.186 183.962C109.225 185.624 107.885 187.037 106.275 188.084Z" fill="#2D64BC"/>
<path d="M135.082 169.34L144.182 164.092L141.151 162.338L132.051 167.593L135.082 169.34Z" fill="#2D64BC"/>
<path d="M153.282 158.837L162.374 153.589L159.343 151.835L150.243 157.09L153.282 158.837Z" fill="#2D64BC"/>
<path d="M171.474 148.334L180.566 143.086L177.535 141.331L168.435 146.587L171.474 148.334Z" fill="#2D64BC"/>
<path d="M126.199 99.4904C126.294 99.3634 126.427 99.27 126.579 99.2238C126.731 99.1775 126.893 99.1809 127.043 99.2333C127.193 99.2857 127.322 99.3845 127.412 99.5153C127.501 99.6461 127.547 99.8021 127.542 99.9607C127.601 100.386 127.557 100.818 127.416 101.223C127.275 101.628 127.039 101.994 126.729 102.29C126.132 102.805 125.527 102.596 125.385 101.82C125.327 101.395 125.371 100.962 125.512 100.557C125.654 100.153 125.889 99.7869 126.199 99.4904Z" fill="#2D64BC"/>
<path d="M133.201 102.79L127.117 99.274L125.781 102.491L131.887 106.015L133.201 102.79Z" fill="#2D64BC"/>
<path d="M132.268 102.991C132.865 102.484 133.462 102.693 133.611 103.469C133.666 103.894 133.621 104.325 133.478 104.728C133.335 105.131 133.1 105.496 132.79 105.791C132.193 106.306 131.588 106.097 131.447 105.321C131.392 104.895 131.438 104.463 131.581 104.059C131.723 103.654 131.959 103.289 132.268 102.991Z" fill="#2D64BC"/>
<path d="M179.028 132.433C179.028 132.583 179.028 132.717 179.028 132.866C179.028 133.165 179.028 133.471 179.028 133.777C177.819 133.262 176.244 133.434 174.512 134.434C170.712 136.629 167.629 141.966 167.629 146.378C167.629 148.423 168.301 149.901 169.406 150.67C169.096 150.891 168.774 151.095 168.443 151.282L168.092 151.461L167.039 155.425L160.948 152.029C159.022 150.916 157.835 148.543 157.835 145.154C157.835 138.383 162.583 130.156 168.443 126.767C171.339 125.095 173.959 124.924 175.908 126.021L181.88 129.365L182.007 129.44L179.028 132.433Z" fill="#455A64"/>
<path d="M181.999 129.373L181.872 129.298C179.961 128.283 177.393 128.469 174.504 130.127C168.644 133.508 163.889 141.735 163.889 148.505C163.889 151.909 165.091 154.291 167.032 155.395C168.973 156.5 171.593 156.314 174.497 154.649C180.357 151.267 185.105 143.033 185.105 136.263C185.127 132.859 183.925 130.477 181.999 129.373ZM174.534 150.319C172.504 151.491 170.682 151.529 169.428 150.64C168.323 149.894 167.652 148.401 167.652 146.348C167.652 141.966 170.735 136.644 174.534 134.404C176.266 133.404 177.841 133.232 179.051 133.747C180.499 134.367 181.409 135.987 181.409 138.375C181.395 142.795 178.304 148.132 174.504 150.319H174.534Z" fill="#37474F"/>
<path d="M181.395 138.405C181.395 142.795 178.319 148.11 174.519 150.349C172.496 151.521 170.675 151.558 169.421 150.678C168.915 150.28 168.5 149.78 168.203 149.21C167.905 148.64 167.733 148.013 167.696 147.371C167.952 147.251 168.201 147.119 168.443 146.975C172.243 144.788 175.318 139.45 175.318 135.031C175.322 134.704 175.302 134.377 175.258 134.053C175.828 133.752 176.454 133.572 177.096 133.526C177.739 133.48 178.384 133.568 178.991 133.784C180.469 134.411 181.395 136.016 181.395 138.405Z" fill="#263238"/>
<path d="M179.364 133.949L179.282 133.896C178.043 133.239 176.356 133.359 174.504 134.434C170.705 136.629 167.622 141.959 167.622 146.378C167.622 148.617 168.368 150.11 169.66 150.857C170.951 151.603 172.646 151.446 174.504 150.357C178.304 148.169 181.38 142.832 181.38 138.413C181.395 136.211 180.648 134.665 179.364 133.949ZM174.504 148.759C172.87 149.707 171.406 149.737 170.399 149.02C169.51 148.401 168.973 147.214 168.973 145.572C169.077 143.653 169.633 141.786 170.594 140.122C171.555 138.458 172.895 137.044 174.504 135.994C175.893 135.188 177.162 135.046 178.132 135.464C179.297 135.964 180.028 137.263 180.028 139.197C179.925 141.113 179.37 142.977 178.411 144.639C177.451 146.3 176.112 147.712 174.504 148.759Z" fill="#2D64BC"/>
<path d="M168.435 140.637L185.605 130.724C187.598 129.567 181.126 122.811 176.311 122.356C173.66 122.035 170.971 122.29 168.428 123.102C168.428 123.102 172.093 127.798 171.466 130.463C170.839 133.128 168.435 140.637 168.435 140.637Z" fill="#2D64BC"/>
<path d="M144.182 112.621C144.182 112.621 169.07 125.177 170.145 125.931C171.22 126.685 170.145 135.442 168.435 140.637C166.726 145.833 164.098 153.82 163.046 156.06C161.993 158.299 160.62 159.135 158.096 160.591L140.181 170.945L115.927 173.901L106.297 168.676L108.805 152.917C108.805 152.917 134.582 139.204 138.113 137.166C141.644 135.128 152.087 125.565 144.182 112.621Z" fill="#2D64BC"/>
<path opacity="0.2" d="M144.182 112.621C144.182 112.621 169.07 125.177 170.145 125.931C171.22 126.685 170.145 135.442 168.435 140.637C166.726 145.833 164.098 153.82 163.046 156.06C161.993 158.299 160.62 159.135 158.096 160.591L140.181 170.945L115.927 173.901L106.297 168.676L108.805 152.917C108.805 152.917 134.582 139.204 138.113 137.166C141.644 135.128 152.087 125.565 144.182 112.621Z" fill="black"/>
<path d="M170.623 137.644C172.862 131.627 174.534 126.64 174.251 123.274C173.907 119.28 172.414 116.018 165.83 114.376C159.246 112.733 150.042 112.763 150.042 112.763L147.242 114.383C147.242 114.383 166.174 125.357 168.323 126.551C169.637 127.297 171.041 130.589 168.465 140.645L168.906 140.899C169.122 141.033 169.906 139.577 170.623 137.644Z" fill="#2D64BC"/>
<path opacity="0.3" d="M170.623 137.644C172.862 131.627 174.534 126.64 174.251 123.274C173.907 119.28 172.414 116.018 165.83 114.376C159.246 112.733 150.042 112.763 150.042 112.763L147.242 114.383C147.242 114.383 166.174 125.357 168.323 126.551C169.637 127.297 171.041 130.589 168.465 140.645L168.906 140.899C169.122 141.033 169.906 139.577 170.623 137.644Z" fill="white"/>
<path d="M156.282 119.623L159.343 117.877C159.343 117.877 159.164 107.269 154.7 104.694C150.236 102.118 135.082 103.872 135.082 103.872L132.051 105.619L156.282 119.623Z" fill="#2D64BC"/>
<path d="M146.354 107.12C144.898 107.963 144.898 109.322 146.354 110.158C147.17 110.573 148.073 110.79 148.989 110.79C149.905 110.79 150.808 110.573 151.624 110.158C153.073 109.322 153.073 107.956 151.624 107.12C150.807 106.708 149.905 106.493 148.989 106.493C148.074 106.493 147.171 106.708 146.354 107.12Z" fill="#F0F0F0"/>
<path d="M151.012 112.188C149.99 112.786 149.99 113.748 151.012 114.338C151.59 114.634 152.23 114.788 152.878 114.788C153.527 114.788 154.167 114.634 154.745 114.338C155.775 113.748 155.775 112.786 154.745 112.188C154.166 111.896 153.527 111.744 152.878 111.744C152.23 111.744 151.591 111.896 151.012 112.188Z" fill="#F0F0F0"/>
<path d="M139.285 105.768C138.255 106.358 138.255 107.321 139.285 107.918C139.864 108.21 140.503 108.362 141.151 108.362C141.799 108.362 142.438 108.21 143.017 107.918C144.047 107.321 144.047 106.358 143.017 105.768C142.44 105.473 141.8 105.319 141.151 105.319C140.502 105.319 139.862 105.473 139.285 105.768Z" fill="#F0F0F0"/>
<path d="M156.76 116.548C157.357 116.033 157.955 116.242 158.104 117.018C158.159 117.444 158.113 117.876 157.971 118.28C157.828 118.685 157.592 119.05 157.283 119.347C157.188 119.474 157.055 119.568 156.903 119.614C156.751 119.66 156.588 119.657 156.439 119.604C156.289 119.552 156.16 119.453 156.07 119.322C155.98 119.192 155.934 119.036 155.939 118.877C155.882 118.451 155.926 118.018 156.069 117.613C156.212 117.208 156.449 116.843 156.76 116.548Z" fill="#2D64BC"/>
<path d="M163.725 119.847L157.634 116.331L156.305 119.549L162.404 123.065L163.725 119.847Z" fill="#2D64BC"/>
<path d="M162.784 120.049C162.88 119.922 163.013 119.828 163.164 119.782C163.316 119.736 163.479 119.739 163.629 119.792C163.778 119.844 163.908 119.943 163.997 120.074C164.087 120.205 164.133 120.361 164.128 120.519C164.185 120.945 164.14 121.378 163.997 121.782C163.855 122.187 163.618 122.553 163.307 122.848C162.71 123.363 162.113 123.147 161.963 122.378C161.908 121.953 161.953 121.52 162.096 121.115C162.238 120.711 162.474 120.345 162.784 120.049Z" fill="#2D64BC"/>
<path d="M162.784 120.049C162.88 119.922 163.013 119.828 163.164 119.782C163.316 119.736 163.479 119.739 163.629 119.792C163.778 119.844 163.908 119.943 163.997 120.074C164.087 120.205 164.133 120.361 164.128 120.519C164.185 120.945 164.14 121.378 163.997 121.782C163.855 122.187 163.618 122.553 163.307 122.848C162.71 123.363 162.113 123.147 161.963 122.378C161.908 121.953 161.953 121.52 162.096 121.115C162.238 120.711 162.474 120.345 162.784 120.049Z" fill="black"/>
<path d="M110.799 171.736C110.799 171.886 110.799 172.02 110.799 172.169C110.799 172.468 110.799 172.774 110.799 173.08C109.589 172.565 108.014 172.737 106.32 173.737C102.52 175.932 99.4369 181.269 99.4369 185.681C99.4369 187.726 100.109 189.204 101.214 189.973C100.903 190.194 100.582 190.398 100.251 190.585L99.8997 190.764L98.8472 194.728L92.7558 191.332C90.8298 190.219 89.6429 187.846 89.6429 184.456C89.6429 177.686 94.3906 169.459 100.251 166.07C103.147 164.398 105.767 164.226 107.716 165.324L113.687 168.668L113.814 168.743L110.799 171.736Z" fill="#455A64"/>
<path d="M92.6288 159.889L88.0827 175.648L97.1825 180.903L101.893 165.242L92.6288 159.889Z" fill="#2D64BC"/>
<path opacity="0.2" d="M92.6288 159.889L88.0827 175.648L97.1825 180.903L101.893 165.242L92.6288 159.889Z" fill="black"/>
<path d="M92.6289 159.889C92.6289 159.889 97.7871 164.271 101.893 165.242C107.283 166.548 115.852 166.69 118.891 166.899C123.534 167.22 127.042 167.212 128.685 166.623C130.812 165.876 136.53 162.554 138.113 161.644C141.144 159.897 142.435 153.022 134.082 151.14C128.434 149.97 122.68 149.382 116.912 149.386L92.6289 159.889Z" fill="#2D64BC"/>
<path d="M144.07 157.874C143.81 158.523 143.635 159.203 143.547 159.897C143.307 160.618 143.25 161.388 143.383 162.136C143.952 163.077 144.848 163.776 145.899 164.1C146.656 164.268 147.44 164.279 148.201 164.131C148.963 163.983 149.686 163.68 150.325 163.241C151.871 162.315 153.035 161.196 155.23 160.569C156.799 160.237 158.276 159.567 159.56 158.605C160.776 157.627 162.404 154.925 160.075 154.298C157.746 153.671 152.684 155.881 148.071 156.082L144.07 157.874Z" fill="#37474F"/>
<path d="M144.07 154.992V158.441C144.211 158.829 144.457 159.17 144.779 159.427C145.102 159.683 145.489 159.846 145.899 159.897C146.274 159.952 146.656 159.911 147.011 159.777C147.57 159.564 148.055 159.191 148.405 158.706C148.755 158.22 148.956 157.643 148.982 157.045L149.116 154.992H144.07Z" fill="#FFA8A7"/>
<path d="M150.639 133.665C150.639 137.957 149.43 156.515 149.43 156.515C149.43 156.515 147.675 158.755 143.861 156.515L142.577 135.778L150.639 133.665Z" fill="#37474F"/>
<path d="M130.633 151.954L142.577 145.071C143.066 144.815 143.476 144.429 143.762 143.956C144.048 143.483 144.199 142.94 144.199 142.388C144.199 141.835 144.048 141.293 143.762 140.82C143.476 140.347 143.066 139.961 142.577 139.704L133.679 134.568C133.178 134.314 132.624 134.182 132.062 134.182C131.501 134.182 130.947 134.314 130.446 134.568L118.502 141.451C118.015 141.71 117.607 142.096 117.323 142.569C117.039 143.042 116.889 143.583 116.889 144.135C116.889 144.686 117.039 145.228 117.323 145.7C117.607 146.173 118.015 146.56 118.502 146.818L127.401 151.954C127.902 152.208 128.455 152.34 129.017 152.34C129.578 152.34 130.132 152.208 130.633 151.954Z" fill="#2D64BC"/>
<path d="M130.633 151.954L142.577 145.071C143.066 144.815 143.476 144.429 143.762 143.956C144.048 143.483 144.199 142.94 144.199 142.388C144.199 141.835 144.048 141.293 143.762 140.82C143.476 140.347 143.066 139.961 142.577 139.704L133.679 134.568C133.178 134.314 132.624 134.182 132.062 134.182C131.501 134.182 130.947 134.314 130.446 134.568L118.502 141.451C118.015 141.71 117.607 142.096 117.323 142.569C117.039 143.042 116.889 143.583 116.889 144.135C116.889 144.686 117.039 145.228 117.323 145.7C117.607 146.173 118.015 146.56 118.502 146.818L127.401 151.954C127.902 152.208 128.455 152.34 129.017 152.34C129.578 152.34 130.132 152.208 130.633 151.954Z" fill="white"/>
<path d="M118.502 143.317L127.401 148.453C127.902 148.707 128.455 148.839 129.017 148.839C129.578 148.839 130.132 148.707 130.633 148.453L142.577 141.57C142.772 141.504 142.941 141.379 143.061 141.211C143.181 141.044 143.246 140.843 143.246 140.637C143.246 140.431 143.181 140.231 143.061 140.063C142.941 139.896 142.772 139.77 142.577 139.704L133.679 134.568C133.178 134.314 132.624 134.182 132.062 134.182C131.501 134.182 130.947 134.314 130.446 134.568L118.502 141.451C118.307 141.517 118.138 141.643 118.018 141.81C117.898 141.977 117.834 142.178 117.834 142.384C117.834 142.59 117.898 142.791 118.018 142.958C118.138 143.125 118.307 143.251 118.502 143.317Z" fill="#2D64BC"/>
<path d="M125.781 97.6317L124.265 103.88L117.756 104.275L119.159 95.6161L125.781 97.6317Z" fill="#FFA8A7"/>
<path d="M132.126 92.9287C132.126 92.9287 132.872 95.5713 132.566 95.7206C132.096 95.7923 131.618 95.7923 131.148 95.7206L132.126 92.9287Z" fill="#F28F8F"/>
<path d="M130.879 84.4934C131.924 85.7251 132.88 87.7481 132.141 92.7048C131.335 98.1244 130.334 98.7514 129.528 99.274C128.476 99.9607 124.265 99.5949 123.078 98.729C121.653 97.6914 119.45 94.3993 118.928 91.1521C118.316 87.3375 119.592 83.1049 122.399 82.3808C126.348 81.3581 129.991 83.4483 130.879 84.4934Z" fill="#FFA8A7"/>
<path d="M118.502 97.3704C119.51 98.4155 121.578 98.6991 122.877 98.938C124.176 99.1769 128.169 99.4382 129.349 96.594C130.528 93.7499 129.722 91.7045 131.17 91.0177C132.619 90.3309 134.067 89.883 134.447 89.5247C134.828 89.1664 134.836 84.4859 130.946 82.0598C127.057 79.6337 121.1 79.0738 117.181 83.9932C114.21 87.7929 115.427 94.1605 118.502 97.3704Z" fill="#455A64"/>
<path d="M122.421 98.9754C123.429 99.0649 126.617 98.5648 127.58 97.251C128.543 95.9371 128.931 93.5857 129.073 92.354C129.086 91.8689 129.264 91.4027 129.577 91.0322C129.891 90.6618 130.321 90.4092 130.797 90.316C131.76 90.0099 133.888 88.9649 133.888 88.9649V88.3826C134.574 88.3395 135.262 88.3395 135.948 88.3826C136.396 88.4647 136.149 89.1291 135.015 89.7039C133.88 90.2787 130.767 91.391 130.29 91.7717C129.812 92.1524 129.588 93.7574 129.207 95.4668C128.826 97.1763 127.647 99.7293 122.421 98.9754Z" fill="#37474F"/>
<path d="M131.379 106.045L135.112 103.902C135.47 102.82 134.895 102.275 133.88 102.342C132.865 102.409 133.178 101.424 132.559 101.148C131.745 100.774 131.282 100.983 130.917 100.812C130.551 100.64 130.394 100.207 129.916 100.155C127.781 99.9533 126.326 102.999 126.326 102.999L131.379 106.045Z" fill="#F28F8F"/>
<path d="M106.043 133.456C106.043 133.456 122.533 125.282 125.407 123.961C128.281 122.639 132.79 120.721 135.187 120.721C136.123 120.798 137 121.211 137.657 121.883C138.314 122.554 138.706 123.441 138.762 124.379C138.793 125.819 138.711 127.259 138.516 128.686C133.985 130.172 129.355 131.337 124.661 132.172C117.801 133.366 106.043 133.456 106.043 133.456Z" fill="#37474F"/>
<path d="M107.835 128.731C107.835 132.12 107.514 135.643 108.925 138.122C110.336 140.6 117.98 146.333 125.176 145.131C129.879 144.34 143.838 137.913 143.838 137.913C143.838 137.913 150.609 135.427 150.639 133.658C150.684 131.052 150.505 127.379 144.6 127.536C139.218 127.678 123.34 130.993 123.34 130.993L107.835 128.731Z" fill="#455A64"/>
<path d="M112.441 101.879C114.994 99.2142 116.718 98.9903 117.942 99.3187C120.756 100.124 123.48 101.215 126.072 102.573C126.072 102.573 125.086 112.114 129.752 114.861V129.731C129.752 129.731 129.61 131.343 127.58 132.948C125.788 134.359 121.735 135.785 116.897 135.382C111.149 134.904 107.835 128.731 107.835 128.731C107.835 128.731 107.686 116.57 108.499 111.74C109.455 106.104 111.56 102.805 112.441 101.879Z" fill="#455A64"/>
<path d="M129.752 115.585C129.752 115.585 126.93 113.345 126.072 110.434C126.072 110.434 126.408 115.003 129.752 117.317V115.585Z" fill="#37474F"/>
<path d="M155.872 122.602C157.212 122.657 158.53 122.248 159.604 121.445C159.604 121.445 160.903 118.922 162.501 119.138C162.501 119.138 162.784 118.063 162.128 117.712C161.471 117.362 161.187 117.459 160.918 117.085C160.649 116.712 160.62 116.018 159.425 116.018C158.933 116.018 159 115.667 157.805 115.525C156.611 115.383 155.431 118.138 154.558 118.138L155.872 122.602Z" fill="#FFA8A7"/>
<path d="M126.072 102.573C130.17 103.208 131.656 104.425 133.149 105.806C134.642 107.187 143.779 116.354 143.779 116.354L154.842 117.944C155.423 118.415 155.85 119.049 156.066 119.765C156.514 121.064 156.111 122.482 155.685 122.818C155.685 122.818 144.712 123.475 142.554 123.065C140.397 122.654 129.715 115.562 129.715 115.562C128.694 114.792 127.837 113.826 127.196 112.719C126.555 111.613 126.142 110.389 125.982 109.12C125.288 104.619 126.072 102.573 126.072 102.573Z" fill="#455A64"/>
<path d="M116.233 142.003L99.2801 162.696C99.0919 162.72 98.9025 162.732 98.7128 162.733C98.0406 162.744 97.3762 162.588 96.7794 162.278L82.4616 154.007L81.4912 153.447C80.9611 153.141 80.5207 151.887 80.5207 150.648V147.162C80.5201 143.581 81.4622 140.062 83.2521 136.961C85.0421 133.859 87.6169 131.283 90.7178 129.492L107.813 119.623L126.005 130.127L116.233 142.003Z" fill="#2D64BC"/>
<g opacity="0.1">
<path d="M116.233 142.003L99.2801 162.696C99.0919 162.72 98.9025 162.732 98.7128 162.733C98.0406 162.744 97.3762 162.588 96.7794 162.278L82.4616 154.007L81.4912 153.447C80.9611 153.141 80.5207 151.887 80.5207 150.648V147.162C80.5201 143.581 81.4622 140.062 83.2521 136.961C85.0421 133.859 87.6169 131.283 90.7178 129.492L107.813 119.623L126.005 130.127L116.233 142.003Z" fill="black"/>
</g>
<path d="M110.388 149.14L125.982 130.134L107.79 119.631L90.7029 129.492C88.4925 130.772 86.5426 132.456 84.9549 134.456L110.388 149.14Z" fill="#2D64BC"/>
<path d="M125.982 145.392C125.982 146.632 125.549 147.886 125.012 148.192L124.041 148.752L100.631 162.271C100.205 162.5 99.7388 162.645 99.2577 162.696C99.0695 162.72 98.8801 162.732 98.6904 162.733V157.665C98.6898 154.083 99.6326 150.564 101.424 147.462C103.215 144.36 105.792 141.785 108.895 139.995L110.828 138.883L125.982 130.127V145.392Z" fill="#2D64BC"/>
<g opacity="0.2">
<path d="M125.982 145.392C125.982 146.632 125.549 147.886 125.012 148.192L124.041 148.752L100.631 162.271C100.205 162.5 99.7388 162.645 99.2577 162.696C99.0695 162.72 98.8801 162.732 98.6904 162.733V157.665C98.6898 154.083 99.6326 150.564 101.424 147.462C103.215 144.36 105.792 141.785 108.895 139.995L110.828 138.883L125.982 130.127V145.392Z" fill="black"/>
</g>
<path d="M131.006 170.997L140.166 170.967L153.274 163.398L140.434 172.677L130.767 172.811L131.006 170.997Z" fill="#E0E0E0"/>
<path d="M108.768 184.031C108.768 184.031 125.281 177.805 126.684 177.074C128.331 176.064 129.894 174.923 131.357 173.662C131.656 173.267 131.796 172.775 131.75 172.282C131.705 171.789 131.477 171.331 131.111 170.997C131.111 170.997 124.392 170.691 122.668 171.221C121.705 171.512 106.163 176.499 106.163 176.499L108.768 184.031Z" fill="#E0E0E0"/>
<path d="M108.029 177.074C106.663 175.902 105.289 176.387 104.953 178.149C104.825 179.121 104.928 180.109 105.254 181.034C105.579 181.959 106.118 182.794 106.827 183.471C108.193 184.643 109.567 184.165 109.903 182.396C110.03 181.424 109.927 180.436 109.602 179.511C109.276 178.586 108.737 177.751 108.029 177.074Z" fill="#455A64"/>
</svg>
