<svg width="309" height="314" viewBox="0 0 309 314" fill="none" xmlns="http://www.w3.org/2000/svg">
<path d="M37.2708 235.559C21.7207 216.323 19.2059 188.936 31.0101 167.377C34.1754 161.602 38.2768 156.216 40.7544 150.167C42.6869 145.432 43.5691 140.311 43.3362 135.178C43.1033 130.045 41.7612 125.031 39.4085 120.504C33.5591 109.276 22.0716 101.381 14.9462 90.7879C1.75098 71.1547 6.23423 43.9377 22.6133 26.146C39.5699 7.73022 65.715 -0.374889 90.5809 0.013284C100.516 0.173686 110.569 1.6542 119.384 5.75728C128.729 10.109 136.331 17.226 145.96 21.0372C169.811 30.4752 197.671 17.2372 223.387 21.0083C241.239 23.6277 257.165 35.0547 264.133 50.2592C271.102 65.4637 268.891 83.9436 258.475 97.5601C250.674 107.757 238.125 116.654 238.207 129.041C238.299 142.986 254.041 151.529 264.22 161.844C274.155 171.921 279.871 186.245 276.653 200.452C270.54 227.446 244.691 228.105 223.826 237.193C211.905 242.385 206.216 253.394 199.489 263.178C190.352 276.482 175.384 285.617 159.343 287.025C151.502 287.713 143.532 286.504 136.323 283.306C127.81 279.528 122.408 272.389 114.717 267.514C107.93 263.212 101.575 262.412 93.4125 261.842C73.6104 260.458 47.5429 252.765 37.2708 235.559Z" fill="#CAE9FA"/>
<path d="M119.547 228.464L47.9357 260.002C47.0693 260.381 46.0932 260.39 45.2206 260.027C44.3479 259.664 43.6497 258.959 43.2785 258.066L0.277777 153.831C-0.0856324 152.935 -0.0927226 151.928 0.258043 151.027C0.608809 150.126 1.28915 149.405 2.15149 149.019L73.7656 117.479C74.6319 117.1 75.6081 117.091 76.4807 117.454C77.3533 117.817 78.0515 118.522 78.4227 119.415L121.424 223.652C121.79 224.548 121.798 225.557 121.446 226.458C121.094 227.36 120.411 228.081 119.547 228.464Z" fill="#EC6277"/>
<g style="mix-blend-mode:screen" opacity="0.2">
<path d="M45.5933 258.814L2.5925 154.578C2.22613 153.683 2.21756 152.674 2.56865 151.773C2.91974 150.871 3.60195 150.15 4.46621 149.766L76.0788 118.228C76.4682 118.057 76.8841 117.961 77.3067 117.942C76.8083 117.55 76.2184 117.3 75.5966 117.219C74.9748 117.137 74.3432 117.227 73.7657 117.479L2.15473 149.017C1.29238 149.403 0.612043 150.125 0.261277 151.025C-0.0894889 151.926 -0.0823963 152.934 0.281013 153.829L43.2818 258.065C43.5674 258.751 44.0486 259.331 44.6612 259.727C45.2738 260.124 45.9888 260.318 46.711 260.285C46.2196 259.904 45.8341 259.397 45.5933 258.814Z" fill="#E6F5FE"/>
</g>
<g style="mix-blend-mode:multiply">
<path d="M113.451 225.388L52.4423 252.257C51.7053 252.579 50.8748 252.586 50.1324 252.278C49.39 251.969 48.7961 251.369 48.4806 250.609L11.9455 162.048C11.6331 161.287 11.6248 160.429 11.9223 159.662C12.2198 158.894 12.799 158.279 13.5336 157.951L74.5496 131.091C75.2866 130.768 76.1171 130.761 76.8595 131.069C77.6019 131.378 78.1958 131.978 78.5113 132.738L115.045 221.301C115.354 222.061 115.361 222.918 115.062 223.683C114.763 224.449 114.184 225.061 113.451 225.388Z" fill="#F6E3EB"/>
</g>
<path d="M111.498 224.457L50.7113 251.232C49.9749 251.554 49.1451 251.561 48.4035 251.252C47.6618 250.944 47.0688 250.344 46.7543 249.584L10.216 161.01C9.90506 160.25 9.89785 159.393 10.196 158.628C10.4941 157.862 11.0733 157.249 11.8072 156.923L72.5951 130.152C73.3319 129.827 74.1633 129.818 74.9068 130.126C75.6502 130.435 76.2448 131.035 76.5598 131.796L113.097 220.37C113.407 221.131 113.414 221.989 113.114 222.755C112.814 223.521 112.233 224.133 111.498 224.457Z" fill="white"/>
<path d="M64.0199 141.128L25.5924 158.052C25.3816 158.145 25.1552 158.195 24.926 158.197C24.6968 158.199 24.4695 158.155 24.2568 158.067C24.0442 157.979 23.8505 157.848 23.6868 157.682C23.5231 157.517 23.3925 157.319 23.3026 157.101L20.9585 151.418C20.8686 151.2 20.8211 150.967 20.8187 150.73C20.8163 150.493 20.8591 150.258 20.9445 150.038C21.03 149.819 21.1566 149.618 21.3169 149.449C21.4773 149.28 21.6683 149.145 21.8791 149.052L60.3081 132.128C60.5189 132.035 60.7454 131.986 60.9745 131.984C61.2037 131.981 61.4311 132.026 61.6437 132.114C61.8563 132.202 62.05 132.333 62.2137 132.499C62.3775 132.664 62.508 132.862 62.5979 133.08L64.942 138.763C65.0318 138.98 65.0793 139.215 65.0816 139.451C65.0839 139.688 65.041 139.923 64.9554 140.143C64.8697 140.363 64.743 140.563 64.5825 140.732C64.422 140.901 64.2308 141.036 64.0199 141.128Z" fill="#C6CFDF"/>
<path d="M52.0619 138.259L31.8702 147.152C31.7364 147.211 31.5926 147.242 31.4471 147.243C31.3016 147.245 31.1573 147.217 31.0223 147.16C30.8874 147.104 30.7645 147.021 30.6606 146.916C30.5568 146.811 30.4741 146.685 30.4172 146.547L30.0881 140.963C30.0595 140.684 30.1138 140.403 30.2439 140.157C30.374 139.911 30.5736 139.711 30.8161 139.585L47.5103 132.233C47.7662 132.139 48.0435 132.129 48.3052 132.203C48.567 132.276 48.8009 132.431 48.9758 132.645L52.6534 136.756C52.7675 137.036 52.7693 137.352 52.6584 137.634C52.5476 137.916 52.333 138.14 52.0619 138.259Z" fill="#C6CFDF"/>
<path d="M42.8733 172.773C43.593 174.517 43.7958 176.444 43.456 178.308C43.1162 180.172 42.2491 181.89 40.9644 183.245C39.6797 184.599 38.035 185.53 36.2383 185.919C34.4416 186.308 32.5737 186.138 30.8706 185.43C29.1676 184.722 27.7059 183.508 26.6705 181.942C25.6351 180.376 25.0724 178.527 25.0536 176.631C25.0348 174.734 25.5607 172.874 26.5649 171.286C27.569 169.699 29.0063 168.454 30.6949 167.71C31.8162 167.216 33.0208 166.955 34.2397 166.942C35.4587 166.929 36.6682 167.164 37.7991 167.634C38.9301 168.105 39.9603 168.8 40.8309 169.682C41.7016 170.564 42.3956 171.614 42.8733 172.773Z" fill="#387DAB"/>
<path d="M32.9541 170.108L30.8121 171.051L35.7178 182.941L37.8598 181.997L32.9541 170.108Z" fill="white"/>
<path d="M39.6359 172.882L28.129 177.951L29.0422 180.164L40.5491 175.095L39.6359 172.882Z" fill="white"/>
<path d="M46.3305 162.95L75.228 150.223" stroke="#C4E6F9" stroke-width="15" stroke-miterlimit="10"/>
<path d="M49.2272 169.97L78.1247 157.244" stroke="#C4E6F9" stroke-width="15" stroke-miterlimit="10"/>
<path d="M52.1224 176.991L81.0199 164.265" stroke="#C4E6F9" stroke-width="15" stroke-miterlimit="10"/>
<path d="M34.7452 202.006L87.0804 178.956" stroke="#C4E6F9" stroke-width="15" stroke-miterlimit="10"/>
<path d="M37.586 208.89L89.9212 185.842" stroke="#C4E6F9" stroke-width="15" stroke-miterlimit="10"/>
<path d="M40.4268 215.776L92.762 192.728" stroke="#C4E6F9" stroke-width="15" stroke-miterlimit="10"/>
<path d="M43.2662 222.662L95.6029 199.614" stroke="#C4E6F9" stroke-width="15" stroke-miterlimit="10"/>
<path d="M46.1069 229.548L72.9195 217.741" stroke="#C4E6F9" stroke-width="15" stroke-miterlimit="10"/>
<path d="M26.9709 153.884L60.1544 139.268" stroke="#B6C3D5" stroke-width="2.57" stroke-linecap="round" stroke-linejoin="round"/>
<path d="M25.701 150.805L58.8846 136.191" stroke="#B6C3D5" stroke-width="2.57" stroke-linecap="round" stroke-linejoin="round"/>
<path d="M242.062 35.9474L220.164 16.7524L215.903 21.9422L237.801 41.1372L242.062 35.9474Z" fill="#0C3489"/>
<path d="M203.164 91.2868L173.669 65.4412C172.36 64.2858 171.546 62.6423 171.405 60.8694C171.264 59.0964 171.808 57.3379 172.917 55.9775L204.445 17.5725C205.563 16.2198 207.153 15.379 208.869 15.2336C210.585 15.0881 212.287 15.6498 213.604 16.7961L243.099 42.6417C244.408 43.797 245.221 45.4405 245.362 47.2135C245.503 48.9865 244.959 50.745 243.85 52.1054L212.317 90.5088C211.199 91.8598 209.61 92.6997 207.895 92.8454C206.181 92.9911 204.48 92.4309 203.164 91.2868Z" fill="#0C3489"/>
<path d="M198.697 24.6187L178.699 48.9753L218.09 83.505L238.088 59.1484L198.697 24.6187Z" fill="white"/>
<path d="M216.739 61.1328C215.357 62.8174 213.521 64.0405 211.466 64.6474C209.41 65.2542 207.226 65.2176 205.191 64.5422C203.155 63.8667 201.36 62.5828 200.03 60.8527C198.701 59.1226 197.898 57.0241 197.723 54.8225C197.548 52.6209 198.009 50.4152 199.047 48.4842C200.085 46.5532 201.655 44.9837 203.556 43.9742C205.458 42.9646 207.606 42.5604 209.73 42.8126C211.854 43.0648 213.858 43.962 215.488 45.391C217.674 47.307 219.034 50.042 219.269 52.9941C219.504 55.9463 218.594 58.8739 216.739 61.1328Z" fill="#387DAB"/>
<path d="M212.181 47.2759L202.757 58.754L204.824 60.5658L214.248 49.0877L212.181 47.2759Z" fill="white"/>
<path d="M203.83 47.9885L202.076 50.1241L213.185 59.8617L214.938 57.726L203.83 47.9885Z" fill="white"/>
<path d="M243.119 38.9925L217.09 16.1786C216.526 15.6833 216.175 14.9769 216.115 14.2145C216.054 13.4521 216.289 12.6961 216.767 12.1124L220.582 7.46075C221.061 6.87784 221.745 6.51532 222.482 6.45276C223.22 6.39021 223.952 6.63274 224.517 7.12711L250.547 29.9395C251.111 30.4348 251.462 31.1412 251.523 31.9035C251.583 32.6659 251.348 33.4219 250.87 34.0057L247.054 38.6573C246.575 39.2405 245.891 39.6033 245.154 39.6661C244.416 39.729 243.684 39.4867 243.119 38.9925Z" fill="#C4E6F9"/>
<path d="M224.947 9.00381L218.947 16.3117" stroke="#9FD2F1" stroke-width="3.99" stroke-linecap="round" stroke-linejoin="round"/>
<path d="M228.904 12.4717L222.904 19.7796" stroke="#9FD2F1" stroke-width="3.99" stroke-linecap="round" stroke-linejoin="round"/>
<path d="M232.861 15.9396L226.861 23.2475" stroke="#9FD2F1" stroke-width="3.99" stroke-linecap="round" stroke-linejoin="round"/>
<path d="M236.818 19.4075L230.819 26.7154" stroke="#9FD2F1" stroke-width="3.99" stroke-linecap="round" stroke-linejoin="round"/>
<path d="M240.775 22.8754L234.776 30.1833" stroke="#9FD2F1" stroke-width="3.99" stroke-linecap="round" stroke-linejoin="round"/>
<path d="M244.732 26.3448L238.733 33.6512" stroke="#9FD2F1" stroke-width="3.99" stroke-linecap="round" stroke-linejoin="round"/>
<path d="M248.689 29.8127L242.69 37.1206" stroke="#9FD2F1" stroke-width="3.99" stroke-linecap="round" stroke-linejoin="round"/>
<g style="mix-blend-mode:multiply">
<path d="M245.371 47.9654C243.382 50.6045 241.215 53.0954 238.887 55.4193C237.704 56.6175 236.428 57.7179 235.299 58.9706C226.761 68.4552 216.361 79.0337 203.282 78.2365C193.792 77.6574 183.984 70.688 177.09 64.2911C174.957 62.3118 172.899 60.2217 172.338 56.8341C171.538 58.1997 171.233 59.8147 171.478 61.3911C171.722 62.9675 172.501 64.4029 173.675 65.4412L203.17 91.2868C204.487 92.4329 206.189 92.9943 207.905 92.8486C209.621 92.7028 211.211 91.8617 212.329 90.5088L243.844 52.1054C244.795 50.9457 245.334 49.485 245.371 47.9654Z" fill="#ECEFF4"/>
</g>
<g style="mix-blend-mode:screen" opacity="0.5">
<path d="M216.895 13.6763L220.71 9.02468C221.702 7.81525 222.999 6.72451 224.675 8.26758L250.704 31.0799C251.078 31.4088 251.325 32.2429 251.48 32.684C251.574 32.1823 251.537 31.6639 251.373 31.1817C251.209 30.6995 250.925 30.2709 250.549 29.9395L224.517 7.13193C223.952 6.63756 223.22 6.39503 222.482 6.45758C221.745 6.52014 221.061 6.88266 220.582 7.46557L216.767 12.1172C216.445 12.5104 216.231 12.9854 216.146 13.4931C216.061 14.0008 216.11 14.5226 216.286 15.0045C216.374 14.5145 216.583 14.0567 216.895 13.6763Z" fill="#E6F5FE"/>
</g>
<path d="M224.32 174.928L184.836 155.889C184.197 155.58 183.623 155.145 183.146 154.607C182.67 154.07 182.3 153.44 182.06 152.755C181.819 152.07 181.711 151.342 181.742 150.614C181.774 149.885 181.944 149.171 182.242 148.51L218.136 69.0535C218.435 68.3926 218.856 67.799 219.376 67.3065C219.897 66.8141 220.506 66.4324 221.169 66.1835C221.832 65.9346 222.537 65.8232 223.242 65.8557C223.946 65.8883 224.638 66.0641 225.277 66.3731L264.759 85.4128C265.398 85.7209 265.973 86.1562 266.45 86.6939C266.926 87.2316 267.296 87.8611 267.536 88.5464C267.777 89.2317 267.885 89.9593 267.854 90.6877C267.822 91.4161 267.652 92.131 267.353 92.7913L231.461 172.254C231.162 172.915 230.74 173.508 230.22 174C229.699 174.492 229.09 174.873 228.427 175.121C227.763 175.37 227.059 175.48 226.355 175.447C225.65 175.414 224.958 175.238 224.32 174.928Z" fill="#C6CFDF"/>
<path d="M244.499 75.646L225.062 66.2721C222.491 65.0322 219.344 66.378 218.034 69.2796L182.345 148.29C181.035 151.192 182.056 154.546 184.629 155.788L204.066 165.161L244.499 75.646Z" fill="#E6E9F0"/>
<path d="M220.465 97.7429C219.556 97.3009 218.853 96.5054 218.51 95.5299C218.167 94.5544 218.211 93.4782 218.633 92.5363L223.332 82.1326C223.76 81.1931 224.53 80.4667 225.475 80.112C226.419 79.7574 227.461 79.8033 228.373 80.2399C229.282 80.6819 229.984 81.4775 230.328 82.453C230.671 83.4285 230.627 84.5046 230.205 85.4465L225.506 95.8502C225.078 96.7897 224.308 97.5162 223.363 97.8708C222.419 98.2255 221.377 98.1795 220.465 97.7429Z" fill="#EC6277"/>
<path d="M221.013 87.2687L218.633 92.5363C218.227 93.475 218.194 94.5411 218.542 95.5045C218.89 96.468 219.59 97.2516 220.492 97.6865C221.393 98.1213 222.424 98.1725 223.362 97.829C224.3 97.4855 225.07 96.7748 225.506 95.8502L227.885 90.5826L221.013 87.2687Z" fill="white"/>
<path d="M245.005 109.39C244.095 108.948 243.392 108.152 243.048 107.176C242.705 106.2 242.749 105.124 243.172 104.181L247.871 93.7794C248.298 92.8403 249.068 92.1141 250.012 91.7592C250.956 91.4043 251.998 91.4496 252.91 91.8851C253.819 92.3271 254.522 93.1229 254.865 94.0988C255.208 95.0747 255.164 96.1512 254.741 97.0933L250.042 107.497C249.615 108.436 248.845 109.162 247.901 109.516C246.957 109.871 245.916 109.825 245.005 109.39Z" fill="#EC6277"/>
<path d="M245.551 98.9139L243.172 104.181C242.757 105.121 242.719 106.192 243.065 107.161C243.411 108.13 244.113 108.919 245.019 109.356C245.924 109.793 246.96 109.843 247.901 109.495C248.842 109.146 249.612 108.429 250.044 107.497L252.424 102.228L245.551 98.9139Z" fill="white"/>
<path d="M208.65 123.903C207.741 123.461 207.038 122.665 206.695 121.689C206.352 120.713 206.396 119.637 206.818 118.695L211.517 108.291C211.945 107.352 212.715 106.626 213.659 106.271C214.603 105.916 215.644 105.962 216.556 106.398C217.466 106.84 218.169 107.635 218.512 108.611C218.856 109.586 218.812 110.663 218.389 111.605L213.69 122.009C213.263 122.948 212.492 123.675 211.548 124.029C210.604 124.384 209.562 124.339 208.65 123.903Z" fill="#EC6277"/>
<path d="M209.196 113.427L206.818 118.695C206.598 119.162 206.47 119.67 206.442 120.189C206.414 120.709 206.486 121.228 206.654 121.718C206.822 122.209 207.083 122.659 207.421 123.044C207.759 123.429 208.168 123.74 208.624 123.96C209.081 124.18 209.574 124.304 210.077 124.325C210.58 124.346 211.082 124.263 211.553 124.081C212.025 123.899 212.457 123.623 212.824 123.267C213.19 122.911 213.485 122.483 213.691 122.009L216.069 116.741L209.196 113.427Z" fill="white"/>
<path d="M233.194 135.548C232.286 135.106 231.583 134.311 231.24 133.335C230.896 132.36 230.941 131.283 231.363 130.341L236.062 119.938C236.489 118.998 237.259 118.271 238.204 117.916C239.148 117.561 240.19 117.607 241.102 118.043C242.011 118.486 242.714 119.282 243.057 120.257C243.4 121.233 243.356 122.31 242.934 123.252L238.229 133.657C237.801 134.595 237.031 135.319 236.088 135.674C235.146 136.028 234.105 135.983 233.194 135.548Z" fill="#EC6277"/>
<path d="M233.736 125.074L231.356 130.341C230.942 131.281 230.904 132.352 231.25 133.321C231.596 134.29 232.298 135.079 233.203 135.516C234.109 135.953 235.145 136.003 236.086 135.655C237.027 135.306 237.797 134.589 238.229 133.657L240.609 128.389L233.736 125.074Z" fill="white"/>
<path d="M196.934 149.841C196.025 149.399 195.322 148.604 194.979 147.628C194.635 146.652 194.68 145.575 195.102 144.633L199.801 134.23C200.229 133.29 200.999 132.564 201.943 132.21C202.887 131.855 203.929 131.901 204.84 132.337C205.75 132.778 206.453 133.574 206.796 134.55C207.139 135.525 207.095 136.602 206.672 137.543L201.973 147.947C201.546 148.887 200.776 149.614 199.832 149.969C198.888 150.324 197.846 150.278 196.934 149.841Z" fill="#EC6277"/>
<path d="M197.481 139.366L195.102 144.633C194.892 145.099 194.772 145.604 194.75 146.118C194.728 146.632 194.805 147.145 194.975 147.629C195.145 148.112 195.405 148.556 195.742 148.936C196.078 149.315 196.483 149.622 196.934 149.84C197.385 150.057 197.873 150.181 198.371 150.204C198.868 150.226 199.365 150.148 199.833 149.972C200.301 149.796 200.731 149.527 201.098 149.179C201.465 148.832 201.763 148.413 201.973 147.947L204.353 142.68L197.481 139.366Z" fill="white"/>
<path d="M221.373 161.706C220.464 161.264 219.761 160.469 219.418 159.493C219.075 158.518 219.119 157.442 219.541 156.5L224.24 146.096C224.668 145.157 225.438 144.43 226.382 144.076C227.326 143.721 228.368 143.767 229.279 144.203C230.189 144.645 230.892 145.44 231.236 146.416C231.579 147.391 231.535 148.468 231.113 149.41L226.414 159.814C225.986 160.753 225.215 161.479 224.271 161.834C223.327 162.188 222.285 162.143 221.373 161.706Z" fill="#EC6277"/>
<path d="M221.921 151.232L219.541 156.5C219.135 157.438 219.102 158.505 219.45 159.468C219.798 160.431 220.498 161.215 221.4 161.65C222.302 162.085 223.333 162.136 224.271 161.792C225.209 161.449 225.978 160.738 226.414 159.814L228.792 154.546L221.921 151.232Z" fill="white"/>
<g style="mix-blend-mode:screen" opacity="0.5">
<path d="M218.79 95.0209C218.841 94.6319 218.95 94.2533 219.111 93.8981L221.49 88.6305L223.818 83.4976C224.246 82.5585 225.016 81.8324 225.96 81.4778C226.904 81.1232 227.946 81.1689 228.857 81.6049C229.55 81.9382 230.127 82.4814 230.514 83.1624C230.383 82.3368 229.999 81.5762 229.419 80.9921C228.839 80.4081 228.094 80.0314 227.292 79.9171C226.489 79.8029 225.673 79.9571 224.962 80.3573C224.251 80.7574 223.682 81.3824 223.34 82.1406L221.021 87.2735L218.641 92.5411C218.381 93.118 218.261 93.7519 218.292 94.3875C218.323 95.0232 218.503 95.6415 218.818 96.1886C218.753 95.8029 218.744 95.4095 218.79 95.0209Z" fill="#E6F5FE"/>
<path d="M243.299 107.048C243.316 106.526 243.436 106.013 243.65 105.54L246.03 100.271L248.349 95.138C248.64 94.4913 249.096 93.9391 249.669 93.5411C250.242 93.1431 250.909 92.9144 251.598 92.8797C252.287 92.845 252.973 93.0057 253.58 93.3443C254.188 93.683 254.694 94.1867 255.044 94.8011C254.914 93.9749 254.531 93.2135 253.951 92.6289C253.371 92.0443 252.625 91.6673 251.822 91.5531C251.019 91.439 250.203 91.5938 249.491 91.9948C248.78 92.3957 248.212 93.0218 247.871 93.781L245.551 98.9139L243.172 104.181C242.958 104.655 242.838 105.168 242.821 105.691C242.796 106.443 242.98 107.186 243.35 107.834C243.307 107.574 243.29 107.311 243.299 107.048Z" fill="#E6F5FE"/>
<path d="M206.944 121.561C206.948 121.433 206.958 121.306 206.975 121.179C207.026 120.791 207.134 120.412 207.295 120.056L209.674 114.789L211.994 109.656C212.422 108.717 213.192 107.991 214.136 107.636C215.081 107.281 216.122 107.327 217.034 107.763C217.726 108.097 218.303 108.64 218.689 109.321C218.559 108.495 218.175 107.734 217.596 107.15C217.016 106.565 216.27 106.189 215.468 106.074C214.666 105.96 213.849 106.114 213.138 106.515C212.427 106.915 211.859 107.54 211.517 108.299L209.196 113.432L206.818 118.699C206.656 119.055 206.548 119.433 206.497 119.822C206.481 119.949 206.47 120.077 206.466 120.204C206.442 120.956 206.626 121.699 206.995 122.347C206.952 122.087 206.935 121.824 206.944 121.561Z" fill="#E6F5FE"/>
<path d="M231.835 131.698L234.213 126.439L236.541 121.306C236.832 120.659 237.289 120.106 237.861 119.708C238.434 119.31 239.101 119.081 239.791 119.047C240.481 119.012 241.166 119.173 241.774 119.512C242.381 119.851 242.887 120.356 243.237 120.971C243.107 120.144 242.724 119.383 242.144 118.798C241.564 118.213 240.818 117.836 240.015 117.722C239.213 117.607 238.396 117.762 237.684 118.163C236.973 118.564 236.405 119.19 236.063 119.949L233.744 125.082L231.364 130.349C231.105 130.927 230.986 131.561 231.016 132.197C231.047 132.832 231.227 133.451 231.541 133.999C231.41 133.219 231.513 132.416 231.835 131.698Z" fill="#E6F5FE"/>
<path d="M195.259 147.118C195.31 146.729 195.418 146.351 195.579 145.995L197.959 140.727L200.278 135.595C200.706 134.655 201.476 133.929 202.42 133.574C203.365 133.219 204.407 133.265 205.318 133.702C206.01 134.036 206.587 134.579 206.973 135.259C206.843 134.434 206.46 133.673 205.88 133.088C205.3 132.504 204.555 132.127 203.752 132.013C202.95 131.899 202.133 132.053 201.422 132.453C200.711 132.854 200.143 133.479 199.801 134.238L197.473 139.37L195.094 144.638C194.933 144.993 194.824 145.372 194.773 145.761C194.709 146.265 194.739 146.777 194.862 147.269C194.893 147.389 194.928 147.509 194.97 147.628C195.051 147.855 195.152 148.074 195.271 148.282C195.211 147.897 195.206 147.504 195.259 147.118Z" fill="#E6F5FE"/>
<path d="M219.698 158.984C219.75 158.596 219.857 158.217 220.018 157.862L222.398 152.594L224.726 147.461C225.154 146.522 225.924 145.795 226.868 145.441C227.812 145.086 228.854 145.132 229.765 145.568C230.458 145.901 231.035 146.445 231.42 147.126C231.29 146.3 230.906 145.539 230.327 144.955C229.747 144.371 229.001 143.994 228.199 143.879C227.397 143.765 226.58 143.919 225.869 144.32C225.158 144.72 224.59 145.346 224.248 146.104L221.929 151.237L219.549 156.505C219.387 156.86 219.279 157.238 219.228 157.627C219.118 158.501 219.293 159.387 219.726 160.146C219.661 159.762 219.651 159.371 219.698 158.984Z" fill="#E6F5FE"/>
</g>
<path d="M73.9175 135.541L60.7337 139.675L66.1429 158.094L79.3266 153.96L73.9175 135.541Z" fill="#0C3489"/>
<g style="mix-blend-mode:multiply">
<path d="M73.9196 135.539L60.7359 139.673L62.168 144.549L75.3517 140.416L73.9196 135.539Z" fill="#ECEFF4"/>
</g>
<path d="M49.162 72.5566L40.8398 44.2249L37.8188 40.3255L47.4436 73.0956L49.162 72.5566Z" fill="#C6CFDF"/>
<path d="M53.2836 72.9111L49.2878 67.2714L44.4956 68.7744L44.2069 75.7519C43.4788 76.9677 39.4116 84.0703 40.0652 86.2951L55.4802 138.79C55.6356 139.319 55.8902 139.811 56.2297 140.239C56.5692 140.666 56.9869 141.02 57.4588 141.281C57.9308 141.542 58.4478 141.704 58.9804 141.758C59.5129 141.812 60.0506 141.757 60.5627 141.597L75.0976 137.04C76.1315 136.715 76.9984 135.98 77.5076 134.995C78.0167 134.01 78.1265 132.857 77.8127 131.788L62.3976 79.3016C61.7441 77.072 54.7972 73.5672 53.2836 72.9111Z" fill="#0C3489"/>
<g style="mix-blend-mode:multiply">
<path d="M53.2836 72.9111L49.2878 67.2714L48.3145 67.5762C48.3657 67.8505 50.8169 72.6417 52.5602 74.2938C54.3827 76.0213 57.77 77.6847 59.2913 79.7202C60.9151 81.8953 65.5489 98.0237 66.0627 99.5154C66.6418 101.187 67.1603 102.884 67.6291 104.587C69.3258 110.772 70.5181 115.7 71.5659 122.934C71.8764 125.061 71.1809 128.118 70.1393 130.038C68.798 132.508 66.2164 133.845 63.7451 134.804C60.9244 135.899 57.9578 136.527 55.1294 137.592L55.4802 138.787C55.6355 139.316 55.8902 139.808 56.2297 140.236C56.5692 140.663 56.9868 141.017 57.4588 141.278C57.9308 141.538 58.4478 141.7 58.9803 141.755C59.5129 141.809 60.0506 141.754 60.5627 141.594L75.0976 137.037C76.1315 136.712 76.9984 135.977 77.5076 134.992C78.0167 134.007 78.1265 132.853 77.8127 131.785L62.3976 79.2984C61.744 77.072 54.7972 73.5672 53.2836 72.9111Z" fill="#ECEFF4"/>
</g>
<path d="M79.542 131.408L53.837 139.467L55.1113 143.806L80.8163 135.747L79.542 131.408Z" fill="#9FD5D8"/>
<path d="M80.4115 152.96L64.7069 157.884L65.5016 160.59L81.2062 155.666L80.4115 152.96Z" fill="#9FD5D8"/>
<path d="M53.7322 132.834L64.0385 129.602" stroke="white" stroke-width="9.01" stroke-miterlimit="10"/>
<path d="M51.8197 126.325L58.5011 124.23" stroke="white" stroke-width="9.01" stroke-miterlimit="10"/>
<path d="M49.9088 119.816L60.2165 116.584" stroke="white" stroke-width="9.01" stroke-miterlimit="10"/>
<path d="M47.9978 113.308L54.6776 111.214" stroke="white" stroke-width="9.01" stroke-miterlimit="10"/>
<path d="M46.0852 106.799L56.3929 103.567" stroke="white" stroke-width="9.01" stroke-miterlimit="10"/>
<path d="M44.1743 100.29L50.8541 98.1953" stroke="white" stroke-width="9.01" stroke-miterlimit="10"/>
<path d="M42.2633 93.7827L52.5695 90.5506" stroke="white" stroke-width="9.01" stroke-miterlimit="10"/>
<path d="M78.9629 253.962L198.626 253.962C203.902 253.962 208.179 249.542 208.179 244.09L208.179 33.1941C208.179 27.7424 203.902 23.3229 198.626 23.3229L78.9629 23.3229C73.6868 23.3229 69.4096 27.7424 69.4096 33.1941L69.4096 244.09C69.4096 249.542 73.6868 253.962 78.9629 253.962Z" fill="#387DAB"/>
<path d="M83.5595 234.101L194.031 234.101C198.801 234.101 202.667 230.106 202.667 225.177L202.667 38.2885C202.667 33.3603 198.801 29.3653 194.031 29.3653L83.5595 29.3653C78.7901 29.3653 74.9237 33.3603 74.9237 38.2885L74.9237 225.177C74.9237 230.106 78.7901 234.101 83.5595 234.101Z" fill="#E6F5FE"/>
<g style="mix-blend-mode:screen" opacity="0.6">
<path d="M77.2507 226.772C78.2955 210.196 81.585 193.806 86.4889 178.01C91.6117 161.488 98.467 145.541 106.542 130.34C114.748 114.89 124.254 100.2 134.746 86.3127C145.049 72.6526 156.358 59.8357 168.572 47.9767C175.317 41.4408 182.351 35.2343 189.674 29.3572H83.572C81.2836 29.364 79.0909 30.3063 77.4728 31.9782C75.8546 33.6502 74.9427 35.9159 74.9361 38.2804V225.177C74.9373 227.314 75.6854 229.378 77.0427 230.99C77.097 229.577 77.1622 228.177 77.2507 226.772Z" fill="#E6F5FE"/>
</g>
<path d="M133.08 242.862C133.08 244.029 133.416 245.171 134.044 246.142C134.672 247.112 135.565 247.869 136.609 248.316C137.653 248.762 138.802 248.879 139.91 248.651C141.019 248.423 142.037 247.86 142.836 247.035C143.635 246.209 144.179 245.157 144.399 244.011C144.619 242.866 144.506 241.679 144.074 240.6C143.641 239.521 142.909 238.599 141.969 237.951C141.029 237.302 139.925 236.956 138.794 236.956C138.044 236.956 137.301 237.108 136.607 237.405C135.914 237.702 135.284 238.137 134.753 238.686C134.223 239.234 133.802 239.885 133.515 240.602C133.228 241.318 133.08 242.086 133.08 242.862Z" fill="#67B2DE"/>
<path d="M163.373 26.879V28.0179C163.365 30.7905 162.296 33.4473 160.399 35.408C158.502 37.3687 155.93 38.474 153.247 38.4825H124.345C121.661 38.4744 119.09 37.3693 117.192 35.4086C115.295 33.4478 114.225 30.7908 114.217 28.0179V26.879H163.373Z" fill="#387DAB"/>
<path d="M146.367 31.0222C146.367 31.6567 146.549 32.2769 146.89 32.8045C147.231 33.332 147.716 33.7432 148.284 33.986C148.851 34.2288 149.475 34.2924 150.078 34.1686C150.68 34.0448 151.233 33.7393 151.667 33.2906C152.101 32.842 152.397 32.2703 152.517 31.648C152.637 31.0257 152.575 30.3807 152.34 29.7945C152.105 29.2083 151.707 28.7073 151.197 28.3548C150.686 28.0023 150.086 27.8141 149.472 27.8141C148.648 27.8141 147.859 28.1521 147.276 28.7538C146.694 29.3554 146.367 30.1714 146.367 31.0222Z" fill="#67B2DE"/>
<path d="M125.008 31.0222C125.008 31.6567 125.19 32.2769 125.531 32.8045C125.872 33.332 126.357 33.7432 126.925 33.986C127.492 34.2288 128.116 34.2924 128.718 34.1686C129.321 34.0448 129.874 33.7393 130.308 33.2906C130.742 32.842 131.038 32.2703 131.158 31.648C131.278 31.0257 131.216 30.3807 130.981 29.7945C130.746 29.2083 130.348 28.7073 129.838 28.3548C129.327 28.0023 128.727 27.8141 128.113 27.8141C127.289 27.8141 126.5 28.1521 125.917 28.7538C125.335 29.3554 125.008 30.1714 125.008 31.0222Z" fill="#67B2DE"/>
<path d="M220.931 191.039C222.278 191.542 223.743 191.603 225.126 191.214C226.508 190.826 227.741 190.006 228.657 188.867C229.397 187.95 230.161 187.169 230.779 186.713C234.872 183.696 241.206 182.543 245.944 184.724C246.744 185.123 247.501 185.607 248.204 186.168C250.59 188.017 253.804 188.049 256.32 186.394C259.633 184.216 264.56 183.877 267.555 185.712C273.281 189.22 275.635 197.349 276.906 203.637C280.352 220.683 286.896 248.465 289.468 264.962C289.778 266.969 294.606 287.516 293.801 289.37C292.521 292.309 289.395 293.805 286.504 295.032C270.06 302.034 260.701 306.533 243.712 311.976C242.211 312.457 240.666 312.938 239.098 312.819C237.285 312.685 230.225 293.9 229.081 292.439C223.321 285.078 202.639 269.806 194.753 259.896C186.836 249.952 178.83 241.372 177.107 227.915C176.486 223.063 176.536 217.773 173.701 213.851C172.81 212.62 171.661 211.574 170.971 210.212C169.403 207.111 170.772 203.015 173.49 200.928C176.208 198.841 179.895 198.506 183.205 199.244C186.611 200.002 190.001 203.23 193.272 203.525C196.221 203.791 199.393 201.25 201.166 199.163C206.913 192.412 213.357 188.165 220.931 191.039Z" fill="#F4C4AA"/>
<path d="M189.186 209.448L161.941 159.416C160.633 156.923 160.333 153.997 161.106 151.277C161.88 148.557 163.664 146.264 166.068 144.898C168.48 143.546 171.312 143.236 173.945 144.035C176.578 144.835 178.797 146.678 180.119 149.163L207.363 199.194C208.671 201.687 208.97 204.613 208.197 207.334C207.423 210.054 205.639 212.348 203.234 213.714C200.822 215.063 197.991 215.372 195.359 214.573C192.727 213.774 190.508 211.932 189.186 209.448Z" fill="#F4C4AA"/>
<path d="M180.168 153.321L178.124 149.452C175.893 145.227 171.365 144.874 167.276 147.179C163.187 149.484 161.028 153.613 163.258 157.836L165.303 161.705C166.762 164.467 170.697 164.262 172.909 163.41C176.859 161.888 182.559 157.846 180.168 153.321Z" fill="#F6D2C0"/>
<path d="M180.628 154.549C179.265 157.164 177.213 159.122 174.907 160.593C172.24 162.292 168.543 163.089 165.517 162.048C167.113 164.44 170.795 164.225 172.903 163.41C176.497 162.022 181.53 158.563 180.628 154.549Z" fill="#F7DFD1"/>
<path d="M174.124 171.13C174.063 171.13 174.004 171.114 173.952 171.082C173.9 171.051 173.858 171.005 173.829 170.95C173.786 170.87 173.777 170.775 173.802 170.687C173.827 170.599 173.884 170.525 173.962 170.48L183.467 165.118C183.545 165.077 183.635 165.069 183.719 165.095C183.802 165.122 183.873 165.181 183.914 165.26C183.956 165.34 183.967 165.433 183.943 165.52C183.92 165.607 183.864 165.681 183.789 165.726L174.283 171.088C174.234 171.116 174.179 171.13 174.124 171.13Z" fill="#F2B499"/>
<path d="M176.489 175.608C176.415 175.607 176.343 175.581 176.285 175.533C176.227 175.486 176.186 175.419 176.168 175.345C176.15 175.27 176.157 175.192 176.187 175.122C176.217 175.052 176.269 174.994 176.334 174.957L185.839 169.597C185.878 169.573 185.921 169.558 185.965 169.552C186.01 169.547 186.055 169.55 186.098 169.562C186.141 169.575 186.181 169.596 186.216 169.625C186.251 169.654 186.281 169.689 186.302 169.73C186.323 169.771 186.337 169.815 186.341 169.861C186.346 169.907 186.341 169.954 186.328 169.998C186.315 170.042 186.293 170.083 186.265 170.119C186.236 170.154 186.2 170.183 186.161 170.204L176.655 175.565C176.605 175.594 176.547 175.609 176.489 175.608Z" fill="#F2B499"/>
<path d="M213.062 249.968C212.949 249.967 212.839 249.938 212.74 249.882C212.642 249.826 212.559 249.745 212.498 249.647C204.097 236.289 193.926 218.733 185.083 203.32C184.993 203.161 184.967 202.972 185.011 202.794C185.055 202.616 185.166 202.464 185.319 202.37C185.472 202.276 185.655 202.249 185.828 202.295C186 202.341 186.148 202.455 186.238 202.614C195.071 218.012 205.233 235.554 213.622 248.891C213.67 248.968 213.704 249.053 213.72 249.143C213.736 249.233 213.735 249.325 213.717 249.415C213.699 249.504 213.663 249.589 213.613 249.664C213.563 249.74 213.499 249.804 213.425 249.854C213.317 249.927 213.191 249.967 213.062 249.968Z" fill="#F2B499"/>
<path d="M230.301 314H251.879L301.153 295.607C302.267 295.19 303.176 294.334 303.68 293.225C304.183 292.116 304.24 290.846 303.837 289.694L296.696 269.288C296.293 268.136 295.464 267.197 294.391 266.677C293.318 266.157 292.089 266.098 290.974 266.515L226.83 290.464C226.278 290.67 225.77 290.987 225.336 291.395C224.903 291.804 224.551 292.297 224.302 292.846C224.052 293.395 223.91 293.989 223.883 294.595C223.856 295.201 223.945 295.806 224.144 296.377L230.301 314Z" fill="white"/>
<path d="M308.999 281.939C309 280.387 308.732 278.756 307.598 277.696C307.025 277.16 306.358 276.73 305.627 276.434C304.17 275.843 302.555 275.821 301.083 276.371L226.159 304.339C225.362 304.635 224.629 305.091 224.003 305.68C223.376 306.27 222.868 306.981 222.508 307.773C222.147 308.565 221.941 309.423 221.902 310.297C221.863 311.172 221.99 312.046 222.278 312.869C222.513 313.542 223.148 313.992 223.86 313.992H298.988C304.509 313.992 308.985 309.518 308.988 303.997L308.999 281.939Z" fill="#0C3489"/>
<g style="mix-blend-mode:multiply">
<path d="M304.832 305.884C304.507 308.616 304.025 311.327 303.387 314H309V279.579C308.337 278.258 307.265 277.204 305.955 276.586C304.645 275.967 303.173 275.82 301.772 276.168C301.808 276.283 301.835 276.402 301.853 276.522C302.592 281.437 304.492 286.077 305.054 291.032C305.329 293.488 305.364 296.045 305.335 298.516C305.296 300.98 305.128 303.439 304.832 305.884Z" fill="#ECEFF4"/>
</g>
<path d="M184.09 99.6646C183.809 100.422 183.489 101.171 183.147 101.91C182.019 104.356 180.597 106.646 178.917 108.727C172.627 116.502 150.878 136.276 147.618 139.233C147.342 139.478 147.07 139.714 146.778 139.943C143.241 142.67 138.913 143.374 134.563 141.656C132.718 140.904 131.034 139.786 129.606 138.365L99.1687 108.721C97.3719 106.676 95.8641 104.379 94.69 101.897C94.3423 101.164 94.0179 100.42 93.7307 99.6517C89.6728 89.1406 91.0715 76.3453 98.0432 67.3628C107.5 55.1723 123.903 55.0119 133.995 66.4566L139.043 72.1765L144.492 65.9978C154.438 54.7248 170.207 55.1498 179.714 66.9426C187.004 76.0069 188.211 88.8791 184.09 99.6646Z" fill="#EC6277"/>
<path d="M184.09 99.6645C183.809 100.422 183.489 101.171 183.147 101.91H157.395C157.174 101.91 156.958 101.841 156.776 101.711C156.594 101.581 156.455 101.397 156.377 101.184L152.445 90.2762L146.757 110.84C146.692 111.073 146.555 111.278 146.368 111.425C146.18 111.571 145.952 111.65 145.717 111.651H145.7C145.461 111.649 145.23 111.565 145.043 111.412C144.855 111.258 144.723 111.045 144.666 110.806L138.81 86.7746L131.952 117.617C131.902 117.84 131.787 118.043 131.622 118.197C131.458 118.351 131.251 118.449 131.031 118.478C130.986 118.481 130.941 118.481 130.896 118.478C130.697 118.478 130.502 118.422 130.332 118.315C130.162 118.208 130.024 118.056 129.932 117.873L121.925 101.897H94.6901C94.3423 101.164 94.0179 100.42 93.7307 99.6517H122.586C122.785 99.6517 122.98 99.7081 123.15 99.8147C123.32 99.9214 123.459 100.074 123.55 100.256L130.5 114.126L137.7 81.7252C137.754 81.4798 137.887 81.2603 138.076 81.1021C138.266 80.9439 138.501 80.856 138.745 80.8526H138.756C138.998 80.8533 139.232 80.9373 139.422 81.0913C139.613 81.2453 139.748 81.4604 139.807 81.7027L145.782 106.201L151.269 86.3656C151.335 86.1421 151.466 85.9453 151.645 85.8025C151.824 85.6597 152.041 85.578 152.267 85.5689C152.493 85.5597 152.716 85.6235 152.905 85.7513C153.094 85.8792 153.239 86.0647 153.322 86.2822L158.148 99.6469L184.09 99.6645Z" fill="white"/>
<g style="mix-blend-mode:multiply">
<path d="M179.714 66.9554C179.459 66.6346 179.198 66.3379 178.937 66.0379C179.977 71.1521 180.121 76.4174 179.363 81.5841C178.265 88.9625 175.309 95.9545 171.489 102.249C169.483 105.551 167.195 108.633 164.862 111.69C162.689 114.532 160.477 117.339 158.081 119.983C153.224 125.342 148.722 130.616 142.058 133.296C138.223 134.837 132.979 134.223 128.984 133.31C126.484 132.739 124.081 131.799 121.748 130.704L129.609 138.36C131.037 139.781 132.721 140.899 134.566 141.651C138.913 143.369 143.244 142.659 146.782 139.938C147.073 139.714 147.345 139.473 147.621 139.228C150.881 136.271 172.63 116.497 178.92 108.722C180.601 106.642 182.022 104.351 183.151 101.905C183.492 101.172 183.812 100.423 184.093 99.6597C188.211 88.8791 187.004 76.0069 179.714 66.9554Z" fill="#F6E3EB"/>
</g>
</svg>
