<svg width="191" height="195" viewBox="0 0 191 195" fill="none" xmlns="http://www.w3.org/2000/svg">
<g filter="url(#filter0_d_18_256)">
<path d="M186 95C186 112.998 180.663 130.592 170.664 145.557C160.665 160.522 146.452 172.185 129.824 179.073C113.196 185.961 94.8991 187.763 77.2468 184.251C59.5945 180.74 43.3799 172.073 30.6533 159.347C17.9267 146.62 9.25983 130.405 5.74858 112.753C2.23733 95.1009 4.03943 76.8039 10.927 60.1758C17.8146 43.5477 29.4783 29.3355 44.4431 19.3363C59.408 9.33706 77.0019 4 95 4C119.135 4 142.281 13.5875 159.347 30.6533C176.413 47.7191 186 70.8653 186 95Z" fill="#86A4C6"/>
<mask id="mask0_18_256" style="mask-type:luminance" maskUnits="userSpaceOnUse" x="4" y="4" width="182" height="182">
<path d="M186 95C186 112.998 180.663 130.592 170.664 145.557C160.665 160.522 146.452 172.185 129.824 179.073C113.196 185.961 94.8991 187.763 77.2468 184.251C59.5945 180.74 43.3799 172.073 30.6533 159.347C17.9267 146.62 9.25983 130.405 5.74858 112.753C2.23733 95.1009 4.03943 76.8039 10.927 60.1758C17.8146 43.5477 29.4783 29.3355 44.4431 19.3363C59.408 9.33706 77.0019 4 95 4C119.135 4 142.281 13.5875 159.347 30.6533C176.413 47.7191 186 70.8653 186 95Z" fill="white"/>
</mask>
<g mask="url(#mask0_18_256)">
<path d="M152.598 154.045C146.238 146.747 96.6254 130.742 96.6254 130.742C96.6254 130.742 47.9832 148.457 40.6526 154.045C33.3221 159.634 30.5871 195 30.5871 195H161.233C161.233 195 158.879 161.343 152.598 154.045Z" fill="#004B74"/>
<path d="M119.253 140.985L96.6254 149.644L73.966 140.985V129.492C81.4767 127.128 89.305 125.916 97.182 125.898C104.692 125.843 112.156 127.064 119.253 129.508V140.985Z" fill="#013958"/>
<path d="M115.85 130.426L96.6254 139.022L77.4007 130.426V115.323H115.85V130.426Z" fill="#DDA778"/>
<path d="M135.377 85.6875V64.9174C135.377 35.8201 123.674 16.3006 97.2138 16.3006C70.7539 16.3006 59.0505 35.8201 59.0505 64.9174V85.6875C63.0043 82.3461 66.7233 78.7388 70.1815 74.8908C72.5985 72.1679 64.3934 57.2552 66.8899 51.002C69.927 43.4032 77.6869 37.989 77.6869 37.989C77.6869 37.989 80.8672 41.6934 95.1784 42.9916C109.776 44.3213 114.848 36.3109 114.848 36.3109C114.848 36.3109 116.089 69.5558 119.348 73.9093C123.338 79.3924 128.938 83.5078 135.377 85.6875Z" fill="black"/>
<path d="M137.301 76.9647C137.301 83.4396 132.69 92.3365 129.589 92.3365C126.488 92.3365 123.96 87.0807 123.96 80.6058C123.877 78.3445 124.349 76.0972 125.336 74.0586C126.322 72.02 127.793 70.2516 129.621 68.9068C132.594 66.548 137.301 68.9068 137.301 76.9647Z" fill="#F9BB8D"/>
<path d="M56.8084 76.9647C56.8084 83.4396 61.4039 92.3365 64.5206 92.3365C67.6372 92.3365 70.1338 87.0807 70.1338 80.6058C70.2222 78.3486 69.7573 76.104 68.7794 74.0657C67.8014 72.0274 66.3397 70.2568 64.5206 68.9068C61.5152 66.548 56.8084 68.9068 56.8084 76.9647Z" fill="#F9BB8D"/>
<path d="M97.182 25.6725C75.3494 25.6725 65.6973 40.9019 65.6973 63.6667V92.1624C65.6973 96.3259 67.2874 107.091 68.8775 110.4C73.966 120.911 89.3108 132.69 96.5618 132.69C103.813 132.69 121.066 121.038 125.184 110.954C126.774 107.059 128.714 95.1228 128.714 90.2468V63.6192C128.667 40.9019 119.015 25.6725 97.182 25.6725Z" fill="#F9BB8D"/>
<path d="M128.667 79.8301L130.623 68.0361C132.022 41.2185 119.015 21.414 97.182 21.414C75.3494 21.414 63.4711 44.0839 64.3139 68.0361L65.6973 79.8301C65.6973 79.8301 65.6973 70.9806 70.1338 66.2947C72.1214 64.1733 70.1338 57.651 72.1691 52.7592C74.6656 46.8226 81.0739 42.5958 81.0739 42.5958C81.0739 42.5958 83.7294 45.4928 95.3851 46.506C107.422 47.5509 111.605 41.2976 111.605 41.2976C111.605 41.2976 118.776 41.8359 122.735 51.002C125.28 56.9228 123.324 59.6457 123.133 63.3659C122.942 67.0862 128.667 79.8301 128.667 79.8301Z" fill="black"/>
</g>
</g>
<defs>
<filter id="filter0_d_18_256" x="0" y="0" width="195" height="199" filterUnits="userSpaceOnUse" color-interpolation-filters="sRGB">
<feFlood flood-opacity="0" result="BackgroundImageFix"/>
<feColorMatrix in="SourceAlpha" type="matrix" values="0 0 0 0 0 0 0 0 0 0 0 0 0 0 0 0 0 0 127 0" result="hardAlpha"/>
<feOffset/>
<feGaussianBlur stdDeviation="2"/>
<feComposite in2="hardAlpha" operator="out"/>
<feColorMatrix type="matrix" values="0 0 0 0 0 0 0 0 0 0 0 0 0 0 0 0 0 0 0.25 0"/>
<feBlend mode="normal" in2="BackgroundImageFix" result="effect1_dropShadow_18_256"/>
<feBlend mode="normal" in="SourceGraphic" in2="effect1_dropShadow_18_256" result="shape"/>
</filter>
</defs>
</svg>
