<svg width="91" height="91" viewBox="0 0 91 91" fill="none" xmlns="http://www.w3.org/2000/svg">
<path d="M60.1196 37.575C60.1196 41.5612 58.5361 45.3842 55.7174 48.2028C52.8987 51.0215 49.0758 52.605 45.0896 52.605C41.1034 52.605 37.2804 51.0215 34.4618 48.2028C31.6431 45.3842 30.0596 41.5612 30.0596 37.575C30.0596 33.5888 31.6431 29.7659 34.4618 26.9472C37.2804 24.1285 41.1034 22.545 45.0896 22.545C49.0758 22.545 52.8987 24.1285 55.7174 26.9472C58.5361 29.7659 60.1196 33.5888 60.1196 37.575Z" fill="#2D64BC"/>
<path fill-rule="evenodd" clip-rule="evenodd" d="M43.5566 82.635C23.516 81.8309 7.51465 65.3279 7.51465 45.09C7.51465 24.3373 24.337 7.51501 45.0896 7.51501C65.8423 7.51501 82.6646 24.3373 82.6646 45.09C82.6646 65.8427 65.8423 82.665 45.0896 82.665H44.5749C44.2342 82.665 43.8948 82.655 43.5566 82.635ZM20.9778 68.7998C20.6968 67.9931 20.6012 67.1333 20.698 66.2845C20.7948 65.4357 21.0815 64.6196 21.5368 63.8968C21.9922 63.174 22.6045 62.563 23.3283 62.1092C24.0521 61.6554 24.8688 61.3704 25.7179 61.2755C40.3646 59.6541 49.9049 59.8006 64.4802 61.3093C65.3304 61.3978 66.1491 61.6792 66.8741 62.1319C67.5991 62.5847 68.2111 63.197 68.6637 63.9221C69.1163 64.6471 69.3975 65.4659 69.4858 66.3161C69.5741 67.1663 69.4672 68.0254 69.1733 68.828C75.4204 62.5079 78.9188 53.9765 78.9072 45.09C78.9072 26.4134 63.7663 11.2725 45.0896 11.2725C26.413 11.2725 11.2721 26.4134 11.2721 45.09C11.2721 54.326 14.9752 62.6977 20.9778 68.7998Z" fill="#2D64BC"/>
</svg>
